<?xml version="1.0" encoding="utf-8"?>
<!-- Generator: Adobe Illustrator 25.2.1, SVG Export Plug-In . SVG Version: 6.00 Build 0)  -->
<svg version="1.1" id="Layer_1" xmlns="http://www.w3.org/2000/svg" xmlns:xlink="http://www.w3.org/1999/xlink" x="0px" y="0px"
	 viewBox="0 0 800 800" style="enable-background:new 0 0 800 800;" xml:space="preserve">
<style type="text/css">
	.st0{fill-rule:evenodd;clip-rule:evenodd;fill:#FFFFFF;}
</style>
<g>
	<path class="st0" d="M232,477.9h31.5L232,425.4l-26.6-44.3l-113.2,68l17.3,28.9L232,477.9L232,477.9z M525.5,477.9h154.1
		l-95.9-159.8L477.6,141.7L433.9,168l-69.4,41.7l69.4,115.5L525.5,477.9z M471.6,530.6c-10.9-7-23.6-11.1-37.4-11.1h-0.3
		c-38.1,0.2-69,31.3-69,69.4c0,38.1,31,69.2,69,69.4h0.3c13.8,0,26.5-4.1,37.4-11.1v7.2h31.9V477.9h-31.9V530.6z M471.6,596.2
		c-3.4,17.5-18.9,31-37.4,31h-0.3c-20.9-0.2-37.9-17.3-37.9-38.2c0-20.9,16.9-38,37.9-38.1h0.3c18.5,0,34,13.3,37.4,30.8V596.2z
		 M621.4,530.6c-11.1-7.3-24.1-11.1-37.4-11.1h-0.4c-38.1,0.2-69,31.3-69,69.4c0,38.1,31,69.2,69,69.4h0.4
		c13.8,0,26.6-4.1,37.4-11.1v7.2h31.9V523h-31.9V530.6L621.4,530.6z M621.4,596.2c-3.4,17.5-18.9,31-37.4,31h-0.4
		c-20.9-0.2-37.8-17.3-37.8-38.2c0-20.9,16.9-38,37.8-38.1h0.4c18.5,0,34,13.3,37.4,30.8V596.2z M766.7,580.3
		c-1.2-0.6-2.8-1.2-4.7-1.9c-7.1-2.5-18.7-5.5-34.8-9c-14.1-3.2-21.3-7.2-21.3-12.4c0-3.6,1.3-6.5,3.7-8.6c3.3-2.8,9.1-4.2,17.5-4.2
		c8.5,0,14.7,1.9,18.3,5.5c2.2,2.2,3.9,6.2,4.9,11.8h33.9c0-16.6-6.8-28.5-20.1-35.7c-0.7-0.5-1.4-0.8-2.2-1.2
		c-9.2-4.3-21.5-6.5-36.8-6.5c-18.6,0-32.6,4.9-41.9,14.8c-7.5,7.9-11.1,17.6-11.1,29.1c0,14.3,7,24.5,21.3,31.2
		c5.4,2.6,18.5,6.2,39.3,10.6c13.9,3,20.9,7.4,20.9,12.9c0,3.3-1.4,6.1-4.4,8.6c-3.9,3.3-9.7,4.9-17.5,4.9
		c-10.4,0-17.8-1.8-22.1-5.1c-4.3-3.3-6.5-8.1-6.5-14.1h-35.5c0,16.1,6.8,28.2,20.4,36.1c10.9,6.2,25.1,9.4,42.8,9.4
		c11.8,0,22.3-2,31.3-5.8c1.9-0.8,3.5-1.6,5.3-2.6c13.9-7.7,20.9-20,20.9-36.8C788.2,597.3,781.1,587,766.7,580.3z M118.5,530.6
		c-11.2-7.2-24.2-11.1-37.5-11.1h-0.4c-38,0.2-68.9,31.3-68.9,69.4c0,38.1,31,69.2,68.9,69.4H81c13.8,0,26.6-4.1,37.5-11.1v7.2h31.9
		V523h-31.9L118.5,530.6L118.5,530.6z M118.5,596.2c-3.4,17.5-18.9,31-37.5,31h-0.4C59.9,626.9,43,609.8,43,588.9
		c0-20.9,16.9-38,37.7-38.1H81c18.6,0,34.1,13.3,37.5,30.8V596.2z M317.6,509.1h34.7v-30.5h-34.7V509.1z M317.6,654.5h34.7V519.5
		h-34.7V654.5z M269.8,530.6c-11.2-7.2-24.2-11.1-37.5-11.1H232c-38.1,0.2-69,31.3-69,69.4c0,38.1,31,69.2,69,69.4h0.3
		c13.3,0,26.3-3.9,37.5-11.1v7.2h31.9V477.9h-31.9L269.8,530.6L269.8,530.6z M269.8,596.2c-3.4,17.5-18.9,31-37.5,31H232
		c-20.9-0.2-37.9-17.3-37.9-38.2c0-20.9,16.9-38,37.9-38.1h0.3c18.6,0,34.1,13.3,37.5,30.8L269.8,596.2L269.8,596.2z M471.5,477.9
		l-37.6-62.9l-92.4-153.8L232,327.2l-3.7,2.2l3.7,6.2l85.5,142.3L471.5,477.9L471.5,477.9z"/>
</g>
</svg>
