<?xml version="1.0" encoding="utf-8"?>
<!-- Generator: Adobe Illustrator 25.2.1, SVG Export Plug-In . SVG Version: 6.00 Build 0)  -->
<svg version="1.1" id="Layer_1" xmlns="http://www.w3.org/2000/svg" xmlns:xlink="http://www.w3.org/1999/xlink" x="0px" y="0px"
	 viewBox="0 0 800 800" style="enable-background:new 0 0 800 800;" xml:space="preserve">
<style type="text/css">
	.st0{fill:#FFFFFF;}
</style>
<path class="st0" d="M433.8,69.6C486.3,0.3,559.4,0,559.4,0s10.9,65.1-41.3,127.9c-55.8,67-119.1,56-119.1,56S387,131.2,433.8,69.6z
	 M405.6,229.5c27,0,77.2-37.2,142.6-37.2c112.4,0,156.7,80,156.7,80s-86.5,44.2-86.5,151.6c0,121.1,107.8,162.8,107.8,162.8
	S650.8,798.8,549,798.8c-46.7,0-83.1-31.5-132.3-31.5c-50.2,0-100,32.7-132.4,32.7c-92.9,0-210.3-201.2-210.3-362.9
	c0-159.1,99.4-242.5,192.6-242.5C327.1,194.6,374.1,229.5,405.6,229.5L405.6,229.5z"/>
</svg>
