<?xml version="1.0" encoding="utf-8"?>
<!-- Generator: Adobe Illustrator 25.2.1, SVG Export Plug-In . SVG Version: 6.00 Build 0)  -->
<svg version="1.1" id="Layer_1" xmlns="http://www.w3.org/2000/svg" xmlns:xlink="http://www.w3.org/1999/xlink" x="0px" y="0px"
	 viewBox="0 0 600 600" style="enable-background:new 0 0 600 600;" xml:space="preserve">
<style type="text/css">
	.st0{fill:#FFFFFF;}
</style>
<g>
	<path class="st0" d="M381.2,356.5c-0.2,0.8,1.4,2.2,2.1,3.3c1-1,2.1-2,3.5-3.3c-1.2-1.7-1.9-2.8-2.6-3.8
		C383.2,353.9,381.6,355,381.2,356.5z"/>
	<path class="st0" d="M389.2,367.1c-0.7,1.9-0.8,4-0.7,6c0,1.2,0.8,2.4,1.3,3.6c1.2-0.6,3-0.8,3.5-1.8c1.1-2.2,1.5-4.7,2.5-8
		c-1-0.8-2.2-2.3-3.6-2.5C391.3,364.3,389.6,366,389.2,367.1z"/>
	<path class="st0" d="M390.5,337.6c-0.4-0.2-0.8-0.4-1.2-0.5c-2.1,0.7-2.6,2.1-1.9,4c0.4,0.2,0.9,0.4,1.3,0.6
		C389.2,340.3,389.9,339,390.5,337.6z"/>
	<path class="st0" d="M393.6,349.1c0-1.2-1.1-2.4-1.7-3.7c-1.1,0.6-2.1,1.2-4,2.3c1.5,1.7,2.4,2.7,3.3,3.7
		C392.1,350.7,393.6,349.9,393.6,349.1z"/>
	<path class="st0" d="M382,324c0.5-1.6-0.1-3.6,0.3-5.3c0.8-3.6-0.8-5.7-3.9-6.9c-2.7,2.8-2.5,3.5,1.9,8.6c-1,0.5-1.9,0.7-2.4,1.3
		c-0.9,1-1.6,2.2-2.4,3.4c1.2,0.8,2.5,2.3,3.5,2.1C380.3,326.9,381.6,325.3,382,324z"/>
	<path class="st0" d="M387.8,314.4c-0.8,0.6-1.7,1.2-2.2,2c-0.4,0.6,0,1.6,0,2.4c-0.1,1.6-0.2,3.3-0.3,4.9c-0.1,1.3-0.8,2.7-0.4,3.8
		c0.3,1,1.8,2.4,2.5,2.3c1.1-0.2,2.2-1.5,2.8-2.6c0.4-0.8,0-2.1-0.2-3.2c-0.4-2.4-1-4.7-1.5-7.1c0.4-0.2,0.8-0.3,1.1-0.5
		C389,315.8,388.4,315.1,387.8,314.4z"/>
	<path class="st0" d="M383.5,373c-2.6-0.2-3,2.2-2.8,4c0.1,1.2,1.4,2.4,2.2,3.5c1-1.1,2.1-2.3,3.4-3.8
		C385,375.1,384.3,373.1,383.5,373z"/>
	<path class="st0" d="M386.5,336.1c-1.2-1.1-2.3-2.1-2.4-2.1c-1.4,1.2-2.8,2.6-3.9,4c-0.1,0.2,1,1.4,1.6,2.1
		C383.3,338.9,384.7,337.7,386.5,336.1z"/>
	<path class="st0" d="M401.5,325.7c-2.1-1.9-2.9,1.2-4.3,2.2c-5.1,3.7-5.2,4-2,7.9c-0.3,2.4-1.2,4.6-0.7,6.4c0.4,2,1.9,3.8,3.3,5.4
		c0.4,0.5,2.6,0.3,3-0.2c0.9-1.3,1.2-3,1.6-4.6c0.3-1.2,0.4-2.5,0.3-3.7c0-1.7-0.1-3.4-0.3-5.1c-0.1-0.9-0.4-1.8-0.5-2.7
		C401.7,329.3,402.5,326.5,401.5,325.7z"/>
	<path class="st0" d="M398.4,352c-0.8,0.8-2.4,1.6-2.4,2.4c-0.1,2.7-1.1,3.3-3.6,2.6c-0.5-0.1-1.8,0.8-1.9,1.4
		c-0.1,0.6,0.7,1.7,1.3,2c1.3,0.6,2.8,0.7,5,1.3c0.7-0.8,1.8-1.7,2.5-2.9c0.5-1,0.8-2.3,0.6-3.5C399.7,354.1,398.9,353.1,398.4,352z
		"/>
	<path class="st0" d="M347.4,241.6c-0.3,0.7,0.5,2,0.8,2.9c0.9-0.3,1.9-0.5,2.6-1c1.5-1.1,2.4-0.9,2.9,0.9c0.2,0.8,0.1,1.8,0.6,2.4
		c0.7,0.9,1.7,1.5,2.6,2.2c0.7-1,2.3-2.3,2-2.9c-1.3-2.9-3-5.7-4.8-8.4c-0.9-1.4-2.3-2.6-3.4-3.9c-1-1.1-1.9-2.3-2.5-3
		c-3,0.2-4.2,3.2-2.5,5.1C347.4,237.7,348.5,239.1,347.4,241.6z"/>
	<path class="st0" d="M287.3,310.3c-2.8,0.2-3.4,2.2-3.4,3.7c0.1,5.5,1.5,8.2,3.9,8.3c2.4,0.1,4.4-2.5,4.3-5.6
		C292,313,289.9,310.2,287.3,310.3z"/>
	<path class="st0" d="M363.2,257.3c1.5-2.2,1.7-4.1,0.2-6c-0.3-0.4-1.3-0.2-1.9-0.2c0.1,1.8,0.3,3.5,0.5,5.3
		C361.9,256.6,362.4,256.8,363.2,257.3z"/>
	<path class="st0" d="M342.1,229.3c0.4,0.2,1.4-0.7,2.8-1.5c-1.6-1.1-2.4-1.9-3.3-2.2c-0.5-0.1-1.2,0.9-1.9,1.4
		C340.6,227.7,341.2,228.8,342.1,229.3z"/>
	<path class="st0" d="M378.3,305.7c0.8,3.2,3,4.3,5.9,3.8c0.9-0.2,2.3-2.8,2-3.1c-2-2.4-2.2-6.5-6.3-6.9c-0.5-0.1-1.3-0.7-1.3-1.1
		c-0.1-4.1-4.1-4.6-6.3-6.8c-0.7-0.7-2.4-1-3.1-0.6c-0.7,0.4-1.2,2.1-1,3c0.2,0.9,1.4,1.6,2.4,2.1c0.9,0.5,2,0.6,3.7,1.1
		c-1.2,0.9-1.3,1.1-1.5,1.1c-3.3,0.3-3.2,2.6-2.4,4.7c0.9,2.5,2.6,2.4,4.6,1C377.1,302.4,377.9,303.9,378.3,305.7z"/>
	<path class="st0" d="M367.3,273c-0.5-0.6-0.9-1.2-1.6-2.1c-2.1,2.8-0.9,4.5,0.8,6.5c0.7,0.9,0.9,2.3,1,3.6c0.2,1.6-0.5,3.7,0.3,4.8
		c0.6,0.8,3.1,0.7,4.4,0.3c2.7-1,3.7-0.2,4.2,2.5c0.3,1.4,1.1,2.8,2,4c0.9,1.3,2.1,2.4,3.2,3.5c0.6,0.6,1.3,1.4,1.9,1.4
		c2.9-0.1,3.4,2.3,4.9,4c1.5,1.7,3.5,2.6,2.1,5.5c-0.4,0.7,1.2,3.5,1.6,3.4c1.9-0.3,3.8-1.2,5.5-2.1c0.2-0.1-0.4-1.8-0.7-2.8
		c-0.5-1.5-1-3.1-1.7-4.6c-1.6-3.7-3.4-7.4-5.1-11.1c-0.1-0.2-0.3-0.4-0.5-0.5c-4.8-2.6-4.7-8.5-8-12.2c-1.2-1.4-1.2-3.7-3.9-4
		c-0.5-0.1-0.8-1.8-1.2-2.7c-0.8-2-1.3-4.2-2.5-6c-1.2-1.7-3.1-3-4.8-4.3c-0.7-0.5-1.7-1.2-2.3-1c-0.7,0.2-1.6,1.4-1.5,2
		c0.4,1.8,1,3.6,2,5.1c1.7,2.7,3.8,5.2,1.2,8.9C368.3,274.2,367.8,273.6,367.3,273z"/>
	<path class="st0" d="M395.7,313.2c-1.1,1.8-2.1,3.7-2.6,5.7c-0.3,1.2,0.2,2.9,0.9,3.9c0.5,0.6,2.7,1,3.1,0.5c1.8-1.8,3.2-3.9,5-6.4
		c-1.5-1.6-2.7-3.1-4.1-4.2C397.7,312.3,396,312.7,395.7,313.2z"/>
	<path class="st0" d="M358.6,274.3c-0.3,1.2-1,2.3-0.8,3.5c0.2,1.6,0.9,3.1,1.4,4.6c-0.3,0.1-0.6,0.2-0.9,0.4c0.5,1.2,1,2.4,1.6,3.5
		c0.8-0.9,1.7-1.7,2.5-2.7c2.4-2.8,0.6-5.2-0.8-7.4C360.8,275.3,359.5,274.9,358.6,274.3z"/>
	<path class="st0" d="M344.7,273.7c-0.4,0-0.8,0-1.2,0c-0.4,1.3-1.2,2.7-1.2,4c0,0.8,1.2,1.6,1.9,2.4c0.6-1.3,1.5-2.6,1.8-4
		C346,275.5,345.1,274.5,344.7,273.7z"/>
	<path class="st0" d="M344.1,269.2c1.7-1.7,1.9-3.4-1.3-5.7c-0.4,2.4-0.8,4.2-1.1,6.1C342.5,269.4,343.7,269.6,344.1,269.2z"/>
	<path class="st0" d="M346.2,254.2c-0.3-2.3-0.3-3.9-0.8-5.3c-0.3-0.7-1.4-1.2-2.2-1.8c-0.4,0.8-1.2,1.7-1.2,2.5
		c-0.1,1.4,0.2,2.8,0.6,4.1c0.3,0.9,1.1,1.5,1.7,2.3C345.1,255.4,345.8,254.6,346.2,254.2z"/>
	<path class="st0" d="M350.1,288.1c-0.5-1.2-1.6-2.2-2.5-3.3c-0.6,0.7-1.2,1.5-2.2,2.7c1.3,1.1,2.2,2,3.2,2.8
		C349.1,289.6,350.3,288.6,350.1,288.1z"/>
	<path class="st0" d="M412.5,190.7c5.2,0,9.9-4.6,10.1-9.9c0.2-5.3-4.3-10.2-9.5-10.3c-5.4-0.1-10.1,4.6-10.2,10.1
		C402.8,186.1,407.3,190.7,412.5,190.7z"/>
	<path class="st0" d="M477.4,209c-2.9,1.8-5,3.1-7.7,4.8c2.3,1.5,4,2.7,6.3,4.2C476.5,214.8,476.9,212.3,477.4,209z"/>
	<path class="st0" d="M354,163.9c-1.8,2.8-3.1,4.8-4.9,7.7c2.8,0.4,4.9,0.7,7.6,1C355.7,169.4,354.9,167,354,163.9z"/>
	<path class="st0" d="M350.2,264.9c1.3-0.6,2.4-1.5,4.4-2.9c-1.9-1.2-3.3-2.6-3.8-2.3c-1,0.6-1.8,1.9-2.2,3.1
		C348.5,263.3,350,265,350.2,264.9z"/>
	<path class="st0" d="M349.6,276.9c1,1.9,2.4,3.5,3.6,5.2c0.6-0.7,1.3-1.3,2.6-2.7c-1.7-1.8-3.1-3.3-4.6-4.7
		C350.6,275.5,349.4,276.6,349.6,276.9z"/>
	<path class="st0" d="M353.9,255.3c-0.6-2.4-1.2-4.5-2-7.5C348.7,252.3,349.4,254.6,353.9,255.3z"/>
	<path class="st0" d="M353.8,287.1c-0.3,1.9-0.7,3.8-1.1,6.3C356.8,291.7,357.1,290.4,353.8,287.1z"/>
	<path class="st0" d="M356,296.5c-0.2,1-0.6,1.8-0.4,2.1c1.1,1.6,2.2,3.1,3.5,4.5c0.2,0.2,1.3-0.6,2-0.9c-0.8-1.5-1.5-3.1-2.5-4.4
		C358.2,297.1,357.1,297,356,296.5z"/>
	<path class="st0" d="M364.9,310.8c-0.7-0.1-1.6,1.8-2.4,2.8c1.1,0.9,2,2.3,3.2,2.5c0.9,0.2,2.1-1.2,3.1-1.8c0-0.5,0-0.9,0-1.4
		C367.5,312.1,366.2,310.9,364.9,310.8z"/>
	<path class="st0" d="M347.6,301.9c1.5,1.5,2.6,2.5,3.6,3.6c0.7-0.9,2.2-1.9,2-2.5c-0.4-1.5-1.6-2.8-2.4-4.2
		C349.9,299.5,349,300.4,347.6,301.9z"/>
	<path class="st0" d="M356.7,265.1c-0.8,0.2-2,0.4-2.2,1c-0.7,1.5-1.2,3.2-1.4,4.9c-0.1,0.5,0.9,1.4,1.5,1.7
		c1.3,0.5,8.4-5.7,8.4-7.9c-1.2-2.3-2.5-5.4-4.4-8c-1.1-1.5-3-0.6-3,1.2c0,1.3,1,2.7,1.9,3.8C358.7,263.4,359,264.4,356.7,265.1z"/>
	<path class="st0" d="M284.9,207.7c-5.3,2-10.5,5.7-14.5,9.9c-15.3,15.6-30.6,31.3-44.9,47.8c-9.5,10.9-17.6,22.9-22.8,36.9
		c-6.7,18.1-8.3,36.3-5.2,55.2c3.4,20.9,22.6,43.3,46.7,46c9.1,1,18.5,2.6,27.2-0.5c12.3-4.4,21.9-13.1,30.6-22.9
		c5.5-6.2,8.4-13.7,11.5-21.1c4.7-11.3,9.6-22.6,10.7-35c1.1-12.6,2.2-25.1,3.1-37.7c0.7-10.3,1.1-20.6,1.6-30.9c-0.2,0-0.5,0-0.7,0
		c0-1.8,0-3.6,0-5.4c-0.3-11.7-2.6-22.9-7.9-33.4c-1.1-2.2-2.7-4.4-4.6-5.8C306.1,203.9,295.3,203.9,284.9,207.7z M286.4,357.4
		c-9.6,11.1-21.2,13-38.1,8c-14.6-4.3-24.2-14.1-26.8-29.6c-2.8-16.5,2.9-30.1,15.5-40.7c9.2-7.8,20.1-11.1,32.2-10.2
		c11.4,0.9,17.7,8.2,22.1,17.8c3.6,8,5.1,16.5,5.3,26.2C296.4,339,293.5,349.1,286.4,357.4z"/>
	<path class="st0" d="M360.3,292.4c0.6,1.7,1.8,3.1,2.8,4.7c0.4-0.2,0.9-0.3,1.3-0.5c0.2-1.6,0.4-3.2,0.4-4.7c0-1.1-0.1-2.2-0.2-3.3
		c-1.1,0.1-2.7-0.1-3.3,0.5C360.6,289.8,360,291.5,360.3,292.4z"/>
	<path class="st0" d="M97.8,237.3c-2.9-1-5.3-1.9-8.6-3.1c1.3,3.3,2.3,5.7,3.5,8.6C94.6,240.7,96,239.2,97.8,237.3z"/>
	<path class="st0" d="M181.9,191.6c5.3,0.1,9.9-4.4,9.9-9.8c0-5.5-4.6-10.2-10-10.2c-5.3,0-9.7,4.6-9.7,10.1
		C172.1,186.9,176.6,191.4,181.9,191.6z"/>
	<path class="st0" d="M188.6,428.3c-5.5,0-10.1,4.6-10.1,10.1c0,5.4,4.5,10,9.8,10c5.3-0.1,9.8-4.6,9.9-10
		C198.3,433,193.9,428.3,188.6,428.3z"/>
	<path class="st0" d="M406.5,242.7c-6.3,4-12.5,8-18.8,12C390.6,256.2,403.9,247.4,406.5,242.7z"/>
	<path class="st0" d="M404.3,429.7c-5.1,0.1-9.5,4.6-9.6,9.9c-0.1,5.4,4.7,10.3,10,10.3c5.3,0,9.7-4.6,9.7-10.1
		C414.4,434.2,409.7,429.6,404.3,429.7z"/>
	<path class="st0" d="M526.3,253.4c-5.6,0.1-10.1,4.7-10,10.2c0.1,5.4,4.7,9.7,10.2,9.5c5.5-0.2,10-4.9,9.8-10.4
		C536.1,257.5,531.7,253.4,526.3,253.4z"/>
	<path class="st0" d="M506.6,222.7c-4.8,4.8-9.4,9.4-14.1,14.1c3.3,3.8,6.7,7.3,12.3,5.6c4.4-1.4,7.2-4.4,7.8-9
		C513.2,228.3,510,225.3,506.6,222.7z"/>
	<path class="st0" d="M568.2,265.8c-10-27.8-28-50-50.3-68.9c-30.5-25.8-65.7-43.1-103.8-54.4c-64.2-19.2-129.3-21.7-194.9-9.1
		c-40.3,7.8-78.4,21.6-113.1,43.7C78.6,194.5,55,216,38.7,244.6c-14.5,25.4-20.5,52.5-16.1,81.6c4.3,28.3,17.5,52.3,36.2,73.4
		c22.3,25.2,49.7,43.5,80,57.6c50.7,23.5,104.3,33.3,159.8,33.5c26.4,0,52.6-2.4,78.6-7.5c41.9-8.3,81.6-22.6,117.5-46.2
		c25.9-17,48.1-37.7,63.6-64.9C577.5,338.2,581.6,302.7,568.2,265.8z M486.6,196.7c-2.1,12.6-4.2,25.2-6.3,37.9c-5.7-2.3-6-2.7-6-8
		c0-0.9-0.7-2-1.4-2.5c-1.7-1.4-3.6-2.4-5.3-3.7c-2.4-1.8-4.3-3-7.6-0.9c-1.4,0.9-4.8-1.4-7.3-2.2c0-0.5,0.1-1,0.1-1.4
		c10.9-6.6,21.7-13.3,32.6-19.9C485.8,196.2,486.2,196.4,486.6,196.7z M442.8,178.6c9.3-3.3,19.4,1.5,22.3,11
		c-2.2,0.8-4.2,1.5-6.1,2.2c-5-6.4-8.9-8-13.7-5.7c-4.4,2.1-7,7.3-6,12c1.1,5.2,5.2,7.6,13.1,7.5c0.6,2,1.2,4.1,1.8,6.2
		c-8.1,4-18.3-0.4-21.9-9.2C428.3,193.1,433.2,182,442.8,178.6z M430.3,180.4c0,10-7.9,18.1-17.7,18.1c-9.8,0.1-17.5-7.7-17.4-17.7
		c0-10.1,7.8-18.1,17.6-18.1C422.5,162.6,430.4,170.6,430.3,180.4z M378,158.6c0.9,4.6,1.8,9.2,2.9,14.8c3.4-4.5,6.2-8.2,9-12
		c4.1-5.5,4.1-5.5,11.5-2.5c-7.9,10.2-15.7,20.4-23.4,30.5c-0.5,0-0.9-0.1-1.4-0.1c-2.6-12.5-5.1-25.1-7.7-37.7
		C376.1,151.6,376.8,152.2,378,158.6z M355.6,148.6c0.5,0.1,1,0.2,1.5,0.3c3.5,12.2,7.1,24.3,10.6,36.6c-5.6,0.8-6.7,0.2-8.7-4.3
		c-1-2.2-12.9-4.1-14.4-2.3c-3.3,3.9-4.1,4-9.8,1.9C341.7,170,348.6,159.3,355.6,148.6z M322.3,210.4c1.2,1.6,2.3,2,4.4,2
		c3.4,0.1,7,0.7,10.1,2.1c8,3.5,14.5,9.1,19.6,16.1c11.5,15.7,23.1,31.4,34.2,47.4c11.8,17,18.9,35.6,18.2,56.7
		c-0.5,14.1-3.2,27.7-8.8,40.7c-16.7,38.7-67,48.6-97.3,19.1c-1-1-1.9-2.2-2.7-3.2c-4,3.1-7.5,5.8-11,8.5c-10.7,8.1-22.6,11-36,9.4
		c-13.6-1.6-26.7-4.4-37.4-13.5c-15.5-13.2-23.7-30.1-24.6-50.3c-1.2-26.5,6.1-50.7,21.8-72.1c12.4-16.9,25.8-32.9,41.1-47.3
		c8.1-7.7,16.1-15.4,25.6-21.4c6.4-4.1,13.2-6.4,20.9-3.8c1.1,0.4,2.4,0.4,3.6,0.3C312.2,200.2,317.8,204.3,322.3,210.4z
		 M300.3,144.4c0.5,0,0.9,0.1,1.4,0.1c5.2,11.6,10.4,23.2,15.7,34.9c-5.3,1.5-6.8,0.9-9.3-3.1c-1.2-2-13.3-2.2-14.6-0.2
		c-2.8,4.3-3.4,4.5-9.4,3.2C289.5,167.6,294.9,156,300.3,144.4z M277.8,145.9c0.7,11.6,1.4,22.8,2.1,34.5c-2.6,0.2-4.8,0.3-7.5,0.5
		c-0.7-11.6-1.4-22.9-2.1-34.7C273,146.1,275.1,146,277.8,145.9z M233.8,149.3c7.9,4.7,14.6,11.2,22.9,16.5
		c-0.8-6.4-1.5-12.1-2.3-18.2c2.6-0.4,4.8-0.6,7.5-1c1.5,11.8,3,23.3,4.5,34.7c-0.4,0.3-0.8,0.6-1.2,0.9
		c-7.5-5.5-14.7-11.6-22.8-17.8c0.8,6.9,1.5,13,2.3,19.4c-2.6,0.4-4.8,0.6-7.4,1c-1.6-11.9-3.1-23.4-4.6-34.8
		C233.1,149.8,233.5,149.6,233.8,149.3z M216.8,154.3c4.3-0.4,7.5,2.3,9.3,6.3c1.7,3.9,1,7.5-1.6,10.8c-0.7,0.8-1.4,1.6-2.4,2.6
		c3.4,3.9,6.5,7.5,9.6,11.1c-5.1,3.4-7.3,3.1-10.8-1c-1.7-2-3.5-4-5-6.1c-1.3-1.8-2.7-2.1-4.8-0.7c0.9,4.1,1.9,8.3,2.9,12.8
		c-2.4,0.6-4.5,1.2-7.2,1.9c-2.7-11.3-5.3-22.3-8-34.1C204.9,156.5,210.8,154.9,216.8,154.3z M181.9,163.6
		c9.8,0.1,17.6,8.2,17.6,18.2c0,9.9-7.7,17.6-17.6,17.5c-9.8,0-17.6-8-17.6-18.1C164.3,171.4,172.2,163.5,181.9,163.6z M154.7,173.1
		c1.1,2.2,2.1,4.1,3.2,6.3c-4.3,2.2-8.5,4.2-13,6.5c1.1,2.2,2,4.2,3.2,6.5c3.6-1.7,7-3.3,10.7-5.1c1.1,2.1,2.1,3.9,3.3,6.3
		c-3.6,1.8-7.1,3.6-10.8,5.4c1.8,3.8,3.5,7.3,5.5,11.6c-2,1.1-4.1,2.1-6.6,3.4c-5.1-10.5-10.1-20.7-15.3-31.4
		C141.6,179.5,148,176.4,154.7,173.1z M124,189.1c1.5-0.7,3.1-3.2,4.8-0.4c5.2,8.8,10.4,17.6,15.6,26.4c0.2,0.3,0.3,0.6,0.8,1.7
		c-1.5,1-3,2.2-4.8,3c-0.7,0.3-2.3-0.4-2.7-1.2c-5.2-8.5-10.2-17.2-15.3-25.7C121,190.6,122.4,189.8,124,189.1z M79,279
		c-9.5,4.5-21-0.2-24.7-10.1c-3.5-9.5,1.5-19.9,11.3-22.6c0.6,1.6,1.4,3,1.6,4.5c0.1,0.8-0.3,2.1-0.9,2.6c-5.3,4.2-6.8,7.9-4.7,12.5
		c2.1,4.7,7.4,7.4,12.2,6.2c4.9-1.2,7.4-5.2,7.4-11.7c0-0.2,0.1-0.5,0.2-1c0.9-0.3,1.8-0.6,2.8-0.9c1-0.3,2.1-0.5,3.1-0.8
		C91.3,264.8,87.2,275.1,79,279z M106.1,240.5c-0.8-0.2-2,0.4-2.7,0.9c-1.6,1.4-3,3.1-4.6,4.6c-2.2,2-3.6,3.7-2.2,7.3
		c0.6,1.6-2.1,4.6-3.4,6.9c-0.5-0.1-0.9-0.2-1.4-0.4c-4.7-11.9-9.4-23.8-14.1-35.7c0.4-0.3,0.7-0.6,1.1-0.9c12,4.2,24,8.4,36.1,12.7
		C111.8,241.2,111.1,241.4,106.1,240.5z M97.5,207.6c0.4-0.6,0.6-1,1-1.3c4.7-3.9,4.7-3.9,8.3,1.1c4.3,5.8,8.5,11.6,12.9,17.5
		c3.4-2.5,6.6-4.8,10.2-7.4c1.5,2,2.7,3.7,4.3,5.8c-5.3,3.9-10.6,7.8-16.2,12C111,225.9,104.3,216.8,97.5,207.6z M131.3,383.2
		c-1.2,0.2-2.5,0-3.8,0c0-1.4-0.3-2.9,0.2-4.1c7.4-16.4,14.2-33.2,22.6-49.1c9.2-17.5,22.4-31.9,40.3-41.2c1.2-0.6,2.3-1.5,3.3-2.8
		c-16.5,2.4-31.8-1.1-46.2-8.9c-2.9-1.6-5.5-3.7-9.1-6.3c11.6-3.2,18.7-11.1,27.2-17.2c18.3-13.1,38.3-22.1,61.1-23.5
		c4.6-0.3,9.2,0.5,13.9,0.8c0.1,0.4,0.3,0.7,0.4,1.1c-1.2,1.3-2.4,2.5-3.5,3.8c-3.9,4.3-8,8.4-11.6,12.8c-2.5,3.1-5.4,5-9.3,6.2
		c-10.6,3.1-21.1,6.7-31.6,9.9c-5.2,1.6-10.4,2.8-15.6,4.2c0.1,0.4,0.2,0.7,0.3,1.1c16-4.1,32-8.2,48.5-12.4c-1,1.4-1.7,2.4-2.5,3.4
		c-13.4,17.2-23.4,36.1-27.9,57.6c-0.3,1.3-1,2.8-1.9,3.8c-10.9,12.3-21.8,24.6-32.8,36.9c-1.7,1.9-3.3,3.7-4.4,6.1
		c12.3-12.9,24.5-25.9,37.2-39.3c0.2,1.2,0.3,1.8,0.3,2.4c0.3,8.5,0.7,17,0.9,25.5c0,1-0.3,2.6-0.9,3c-16.2,9.8-32.3,19.7-50.6,25
		C134.1,382.5,132.7,383,131.3,383.2z M152.4,415.9c-4.5,2-7.1,7.2-6.2,11.9c1.1,5.3,5.1,7.7,13.1,7.8c0.6,1.9,1.2,3.9,1.8,5.9
		c-7.1,4.1-17.4,0.3-21.4-7.8c-4.7-9.2-0.4-20.8,9.1-24.8c9.4-4,19.9,0.6,23.3,10.5c-2.2,0.9-4.1,1.6-6,2.4
		C160.9,415.2,157.2,413.7,152.4,415.9z M188.3,456.2c-9.6,0.1-17.4-7.5-17.6-17.3c-0.2-10.1,7.7-18.4,17.6-18.5
		c9.8-0.1,17.6,7.7,17.6,17.6C206,448,198.1,456.1,188.3,456.2z M243.1,465.2c0,1.2-0.2,2.3-0.3,3.9c-1.7-0.3-3-0.6-4.4-0.7
		c-2.1-0.2-2.8-1.3-2.6-3.4c0.3-4.1,0.5-8.3,0-12.7c-2.9,3.7-5.8,7.5-8.8,11.1c-0.8,1-2.1,1.6-3.2,2.4c-0.6-1.1-1.4-2.2-1.7-3.4
		c-1.4-4.5-2.7-9.1-4.8-13.7c-1.2,3.3-2.6,6.6-3.4,10c-0.9,3.8-2.8,4.9-6.3,3.5c-0.6-0.3-1.4-0.4-2.7-0.7c4.2-11.2,8.3-22.2,12.7-34
		c3.7,3.8,3.6,8.4,5,12.2c1.4,3.9,2.4,8,3.9,12.8c4.9-6,9.2-11.5,13.7-16.8c0.8-1,2.2-1.6,3.3-2.3c0.2,1.2,0.7,2.4,0.7,3.6
		C243.8,446.5,243.5,455.9,243.1,465.2z M282,472.5c-0.4-5.2-0.8-10.2-1.2-15.1c-0.2-0.1-0.5-0.1-0.7-0.2c-2.5,4.2-5,8.3-7.6,12.4
		c-0.6,1-1.6,1.7-2.4,2.5c-0.8-1-1.8-1.8-2.3-2.9c-2-4.4-3.8-8.9-5.7-13.4c-0.3,0.1-0.6,0.1-0.9,0.2c-0.8,3.5-1.8,7-2.2,10.6
		c-0.4,3.6-2,4.8-5.4,3.9c-0.8-0.2-1.6-0.2-3-0.4c2.8-11.7,5.5-23.1,8.5-35.4c4.1,3.6,4.7,8.1,6.5,11.8c1.9,3.7,3.4,7.6,5.3,11.8
		c5.3-7,8.7-14.8,14-21.2c0.4,0.1,0.9,0.2,1.3,0.4c1.1,11.7,2.2,23.4,3.3,35.6C286.7,472.8,284.5,472.7,282,472.5z M301.9,472.7
		c-1.6-0.2-4.2,1.2-4.3-2.2c-0.1-10.4-0.2-20.9-0.2-31.3c0-0.3,0.3-0.6,0.5-1.1c2.2,0,4.4,0,7.2,0c0,5,0,9.7,0,14.5
		c0,5.9,0,11.8,0.1,17.6C305.3,472.8,303.7,472.9,301.9,472.7z M336.9,463.4c-0.6,4.1-3,7.2-6.9,7.9c-3.7,0.7-7.9,0.5-11.6-0.3
		c-4.1-0.9-4.2-2.1-2.3-5.9c0.3-0.6,0.7-1.2,1.3-2.2c1.7,0.8,3.1,1.5,4.6,1.9c2.4,0.7,5.3,1.6,6.5-1.6c1.1-2.9-1.5-4.2-3.7-5.3
		c-1.4-0.7-2.9-1.1-4.4-1.7c-5.7-2.7-8.3-7.3-6.9-12.3c1.4-5,6.4-8.1,12.5-7.4c1.8,0.2,3.6,0.7,5.2,1.3c4.1,1.6,4.2,2.2,2,6
		c-1,1.6-1.8,2.3-3.7,1.2c-1.4-0.8-3.1-1.6-4.7-1.6c-1.3,0-3,0.9-3.7,2c-0.4,0.6,0.7,2.6,1.7,3.4c1.1,1,2.8,1.3,4.2,2
		c1.8,0.9,3.8,1.6,5.5,2.7C336,455.8,337.5,459.2,336.9,463.4z M361.6,467.3c-5.5,2.9-11.1,2.6-16.9-0.9c0.9-2.2,1.7-4,2.5-6
		c1.6,0.5,2.8,1,4,1.4c3.8,1.2,6.8,0.5,7.1-1.8c0.6-3.5-2.3-4.3-4.8-5.2c-1.5-0.5-3-0.8-4.5-1.4c-5.6-2.3-8.1-6.4-7.3-11.4
		c0.8-4.7,4.8-8,10.4-8.3c2.2-0.1,4.6,0.2,6.7,0.8c4.3,1.2,4.9,3.7,1.8,6.9c-0.5,0.5-1.7,0.5-2.5,0.3c-1.8-0.4-3.5-1.4-5.2-1.3
		c-1.3,0-2.9,1.1-3.6,2.2c-0.3,0.6,0.9,2.5,1.9,3.3c1.1,0.8,2.6,1,4,1.6c2.1,0.8,4.4,1.4,6.3,2.5C368.7,454,368.6,463.4,361.6,467.3
		z M380.4,464.1c-0.8,0.2-1.6,0.2-2.8,0.3c-2.5-11.2-4.9-22.2-7.5-33.6c2.5-0.6,4.6-1.1,7.3-1.8c0.8,3.7,1.6,7.1,2.4,10.6
		c1.4,6.3,2.8,12.6,4.2,19C385,463.1,385,463.1,380.4,464.1z M404.5,457.6c-9.8-0.1-17.6-8.3-17.5-18.3c0.1-9.9,7.9-17.6,17.7-17.5
		c9.8,0.2,17.5,8.2,17.4,18.3C422.1,450,414.4,457.7,404.5,457.6z M458.6,435.2c-6.7-2.4-13.3-4.9-19.9-7.4c-1.1-0.4-2.2-0.7-4-1.3
		c2.9,6.1,5.4,11.6,8.2,17.4c-2.2,1.1-4.2,2.1-6.4,3.3c-0.6-0.8-1.1-1.4-1.4-2.1c-4.3-9-8.6-18-12.8-27c-0.4-0.9-0.3-1.9-0.4-2.9
		c1,0,2.1-0.2,3,0.1c7.7,2.6,15.4,5.3,24,8.3c-2.8-6-5.3-11.3-8-17c2.5-1.1,4.5-2.1,6.9-3.2c5,10.7,9.9,21.1,15.3,32.4
		C461,435.5,459.7,435.6,458.6,435.2z M422.1,306.7c1.1,1.9,1.7,3,2.4,4.2c9.8,16.3,19.4,32.7,25.1,51c2,6.3,3.1,12.8,4.4,19.3
		c0.4,2,0.1,4.2,0.1,6c-9.8-9.6-19.4-19.2-29.3-28.5c-3-2.9-6.5-5.3-10-7.7c-1.7-1.2-2.4-2.2-2.1-4.4c0.6-5,0.9-10,1.3-15.4
		c7.7,9.3,15.1,18.2,22.5,27.1c0.2-0.1,0.3-0.2,0.5-0.4c-4.7-6.4-9.1-13.1-14.3-19c-5.8-6.5-9.9-13.1-10.7-22.3
		c-1-11.6-6.3-22.1-12-32.3c-0.6-1.1-1.2-2.1-1.7-3.1c-0.1-0.2,0-0.5,0-1.1c20.8,2.7,40.3,9.8,60.2,15.5c-1.5-0.5-2.9-1.1-4.4-1.7
		c-18.7-6.7-37.3-13.6-57-17c-0.9-0.2-2-0.9-2.5-1.7c-7.6-10.7-15.2-21.4-22.9-32.5c9.1-6.8,19.3-10.4,30.2-12.1
		c8.2-1.2,16.5-2.2,24.7-3.5c3.3-0.5,6.5-1.7,9.7-2.5c1.5-0.4,3.1-0.5,5.5-0.9c-6.1,14.2-17.1,23.1-28.3,32.4
		c1.2,0.4,1.8,0.7,2.5,0.8c13.7,3.3,25.9,9.4,37.1,17.9c11.7,8.9,23.4,17.8,35.1,26.6c0.6,0.4,1.1,0.9,2.1,1.8
		C467.7,308.9,445.5,309.8,422.1,306.7z M491.5,246.1c-3-2.1-5.3-5.2-8-7.7c-1.5-1.4-1.4-2.5,0-3.9c6.9-6.9,13.8-13.7,20.7-20.7
		c1.5-1.5,2.6-1.7,4.2-0.1c2.4,2.6,5,4.9,7.3,7.5c5,5.6,6,12,3,18.8c-3,6.8-8.6,10.1-18.1,10.5C498.6,249.7,494.8,248.4,491.5,246.1
		z M525.9,281c-9.7,0-17.4-7.7-17.5-17.4c0-9.9,8.1-17.9,18.3-17.9c9.8,0,17.4,7.5,17.4,17.3C544.1,272.9,535.9,281,525.9,281z"/>
	<path class="st0" d="M216.8,168.8c1.3-0.8,2.5-2.9,2.5-4.5c-0.1-2.2-2-3.5-4.4-3c-2.2,0.4-4.4,1.1-7.1,1.7c0.7,2.9,1.3,5.2,2,7.6
		C212.4,170,214.9,169.9,216.8,168.8z"/>
	<path class="st0" d="M300.8,159.7c-1.4,3.2-2.5,5.6-3.7,8.4c2.6,0,4.7,0,7.4,0C303.3,165.2,302.2,162.9,300.8,159.7z"/>
</g>
</svg>
