<?xml version="1.0" encoding="utf-8"?>
<!-- Generator: Adobe Illustrator 25.2.1, SVG Export Plug-In . SVG Version: 6.00 Build 0)  -->
<svg version="1.1"
	 id="svg2" inkscape:version="0.91 r13725" sodipodi:docname="Disney Logo.svg" xmlns:cc="http://creativecommons.org/ns#" xmlns:dc="http://purl.org/dc/elements/1.1/" xmlns:inkscape="http://www.inkscape.org/namespaces/inkscape" xmlns:rdf="http://www.w3.org/1999/02/22-rdf-syntax-ns#" xmlns:sodipodi="http://sodipodi.sourceforge.net/DTD/sodipodi-0.dtd" xmlns:svg="http://www.w3.org/2000/svg"
	 xmlns="http://www.w3.org/2000/svg" xmlns:xlink="http://www.w3.org/1999/xlink" x="0px" y="0px" viewBox="0 0 400 400"
	 style="enable-background:new 0 0 400 400;" xml:space="preserve">
<style type="text/css">
	.st0{fill:#FFFFFF;}
</style>
<sodipodi:namedview  bordercolor="#666666" borderopacity="1.0" fit-margin-bottom="0" fit-margin-left="0" fit-margin-right="0" fit-margin-top="0" id="base" inkscape:current-layer="layer1" inkscape:cx="244.93574" inkscape:cy="-80.517075" inkscape:document-units="px" inkscape:pageopacity="0.0" inkscape:pageshadow="2" inkscape:window-height="705" inkscape:window-maximized="1" inkscape:window-width="1366" inkscape:window-x="-8" inkscape:window-y="-8" inkscape:zoom="1.1788128" pagecolor="#ffffff" showgrid="false">
	</sodipodi:namedview>
<path id="path3402" inkscape:connector-curvature="0" class="st0" d="M244.4,179.6c0,0,0.9-1.4,1.7-2.5c1.4-1.9,4-4.6,5.9-6.3
	c0.6-0.5,1.3-1.1,1.3-1.1s-1.1,0.1-1.7,0.2c-1.5,0.3-3.6,1.7-4.7,2.6c-1.8,1.5-3.7,4-2.9,6.2C244.2,179.2,244.4,179.6,244.4,179.6
	 M254.3,182.3c2.8-0.2,5.4-1,7.9-2.4c2.4-1.3,5.9-4,5.6-7.1c-0.1-1-0.8-1.8-1.6-2.1c-1.1-0.5-1.6-0.4-3,0c-1,0.3-1.4,0.5-2.4,1
	c-2.8,1.6-6.7,5-8.8,7.8c-0.5,0.6-1,1.4-1.4,1.9c-0.3,0.3-0.4,0.6-0.4,0.7C250.3,182.4,253.2,182.4,254.3,182.3 M247.1,187.5
	c-0.3,0.3-0.6,1-0.9,1.6c-0.2,0.3-0.5,0.7-0.7,0.8c-0.7,0.5-1.3,0.6-2.1-0.1c-1-0.9-1.6-2.2-1.6-3.5c0-0.6,0.1-1.2,0-1.7
	c-0.2-0.8-1-1.7-1.4-2.4c-0.5-0.9-0.9-2.5-1-3.6c-0.2-3.2,1.5-6.2,3.7-8.6c2.2-2.4,5.2-4.4,8.3-5.7c3-1.3,7.4-2.1,10.7-1
	c1.1,0.4,2.6,1.3,3.3,2.2c0.2,0.2,0.3,0.4,0.5,0.5c0.1,0.1,0.5,0.1,0.8,0.2c1.1,0.2,2.6,1,3.2,1.5c1.2,1.1,1.9,2.1,2.2,3.6
	c0.6,3-1.1,6.3-3.1,8.3c-3.4,3.4-6.7,5.9-11,7.5c-1.9,0.7-4.8,1.4-7,1.2c-0.7-0.1-1.4-0.2-2-0.3c-0.3,0-1.5-0.3-1.7-0.4
	C247.4,187.6,247.2,187.5,247.1,187.5 M144.6,196.4c1.8-0.1,2.9-0.2,4.3-0.8c0.8-0.3,1.7-1.1,1.2-2c-0.3-0.5-1.2-0.7-1.8-0.7
	c-1.9,0.1-3.2,1.5-3.9,3.3C144.5,196.3,144.5,196.4,144.6,196.4 M152.4,191.8c1,1.3,1.5,2.8,1.6,4.5c0.1,1.7-0.4,3.3-1.4,4.6
	c-1.6,2.2-4.3,3.3-7,3.5c-0.4,0-2.6,0.1-3.1-0.1c-0.1,0-0.2-0.1-0.2-0.1c-0.1,0-0.4,1.5-0.5,2.1c-0.2,1.9-0.5,3.2-0.8,4.7
	c-0.2,1.2-0.3,2.4-0.4,3.7c-0.6,7.3-0.4,10.9,0.2,18c0,0.4,0.1,0.9,0,1.2c-0.2,0.9-0.7,1.4-1.5,1.7c-2.5,0.7-4.9-1.8-6.1-3.8
	c-2.9-4.6-1.9-14.1-1.1-18.8c0.3-1.9,1.2-6.2,1.8-7.8c0.3-0.8,0.8-2.5,0.8-2.6c0-0.1-1.3-0.6-2.6-1c-0.5-0.2-2-1-2.6-1.4
	c-1.3-0.8-2.3-1.5-3.2-2.6c-0.3-0.3-1.2-1.7-1.4-2c-0.7-1.7-0.8-3.2-0.1-5c0.2-0.5,1.1-2.4,1.7-2.4c0.9,0.1,0.7,1.6,0.9,2.3
	c0.1,0.3,0.3,0.7,0.5,0.9c1.2,1.5,5.4,3.1,7.1,3.6c0.2,0.1,2.9,0.9,3.3,0.7c0.1,0,0.6-0.9,0.9-1.5c0.2-0.3,0.4-0.5,0.6-0.8
	c1.6-1.7,4-3.4,6.4-3.9c1-0.2,3.1,0,4.1,0.6C150.6,190.3,151.4,190.6,152.4,191.8 M127.3,212.4c0.1,0,0.2,0,0.3,0.1
	c1.2,0.5,1.2,2.7,0.9,3.7c-0.8,2.7-3.3,5.5-5.4,6.9c-1.2,0.8-3.7,2-5.5,2.3c-2.8,0.5-5.3-0.2-6.7-2.5c-1.3-2-1.9-4.6-2.1-6.9
	c-0.3-6.8,1.8-16.8,4.5-22.5c0.4-0.8,2.1-4.3,3.7-4.9c1.6-0.6,2.3,1.3,2.5,2.7c0.2,1.8-0.4,4.2-0.8,6.2c-0.8,3.4-2,8.8-2.3,10.3
	c-0.3,1.6-1,5.1-0.7,6.9c0.1,0.9,0.3,1.4,1,1.4c0.3,0,4.9-2.1,7.4-3.1C125.1,212.7,126.2,212.3,127.3,212.4 M93.5,209.2
	c0,0,0.5,0,1.1,0c1.7,0,4.6-0.3,4.6-0.3s-0.3-2.5-0.6-4.1c-0.2-1.1-0.3-1.7-0.5-2.6c-0.1-0.4-0.4-1.5-0.6-1.9c0-0.1-0.1-0.2-0.1-0.2
	s-1.4,2.7-2.2,4.5c-0.6,1.5-0.9,2.6-1.4,3.5c-0.1,0.2-0.2,0.5-0.2,0.7C93.4,209,93.5,209.2,93.5,209.2 M84.3,209.5
	c0,0,0.8-1.8,1.5-3.2c0.7-1.5,4.1-8.3,5.5-10.2c1.5-2.1,4.5-6.2,4.5-6.3c0.1-0.4,0.2-1.2,0.6-1.9c0.3-0.5,1.1-0.7,1.9-0.8
	c0.9-0.1,1.7,0.6,2.1,1.3c0.7,1.3,2,5.2,2.3,6.1c1.5,5.1,3.1,14.6,3.6,19.5c0.1,1.3,0.6,8,0.6,9.5c0,1.1,0,2.8-0.6,3.7
	c-0.2,0.3-0.7,0.6-1.1,0.6c-0.6,0-1.7-0.8-2.2-1.3c-1.4-1.3-2.3-2.6-2.6-4.2c-0.3-1.4-0.6-5.4-0.6-5.4l-6,0.2l-3.3,0.1
	c0,0-0.3,0.8-0.6,1.4c-0.6,1.4-1.1,2.8-1.3,3.5c-0.4,1.6-1.3,4.7-1.5,5.1c-0.4,1-0.8,1.6-1.8,1.7c-1.1,0.1-1.8,0.2-2.6-0.2
	c-1.5-0.8-2.2-2.5-2.4-4.3c-0.4-3,0.8-5.5,2-9.1c0.5-1.5-0.2-2-1.5-4c-0.2-0.3-0.3-0.5-0.4-0.7c0-0.2,0.1-0.7,0.4-0.9
	c0.1-0.1,0.1-0.1,0.3-0.1L84.3,209.5 M50.2,189.9c0,0-0.1-1.9-0.2-3c-0.1-0.9-0.3-1.6-0.7-2.3c-0.5-0.8-0.8-1.2-1.6-1.4
	c-0.9-0.1-1.4,0.5-2,1.4c-0.8,1.2-1.5,3.5-2,4.9c-0.6,2-0.9,3.3-1.3,5.6c-0.6,3.8-1.2,10.3-0.5,14.7c0.1,0.8,0.3,1.9,0.3,1.9
	s0.9-1,1.6-1.8c0.3-0.3,1.6-2.3,1.8-2.6c0.2-0.4,0.9-1.5,1-1.7c0.1-0.2,1.1-2.3,1.3-2.8c0.3-0.9,0.8-2.4,1.2-3.6
	c0.9-2.7,0.7-3.7,1.3-6.6C50.3,192.3,50.3,189.9,50.2,189.9C50.3,189.9,50.2,189.9,50.2,189.9 M43.7,218.1c0,0,0.4,0.6,0.6,1.1
	c1.6,2.6,4.1,4.2,7.2,4.3c3.1,0.2,7.2-1.7,9.5-3.3c6.6-4.6,10-12.8,11.9-20.7c2.2-9.3,2.3-19-0.3-28c-1.5-5.2-4.5-11.7-8.2-15.6
	c-1.1-1.2-2.8-2.7-3.3-3.4c-0.5-0.7-0.6-1.2,0.1-1.7c0.8-0.5,2.6,0.5,3.5,1c4.3,2.6,7.1,5.2,9.7,9c0.6,0.9,3.2,5.2,3.7,6.1
	c2.9,5.5,4.4,10.3,5.2,16.3c1,7.7,0.4,16.4-2.3,24.2c-1.2,3.4-3,6.9-4.8,9.8c-0.4,0.7-3.2,4.4-3.5,4.7c-0.9,1-3.3,3-4.3,3.9
	c-5.4,4.3-11.3,7.2-17.7,6.4c-3.5-0.4-6.4-1.6-9.3-3.9c-1.1-0.9-2.9-2.7-3.7-4.1c-0.5-0.8-1.1-1.9-1.1-1.9c-0.1,0-0.4,0.2-0.7,0.4
	c-0.3,0.2-1.6,0.8-2.2,1c-4.4,1.6-9.3,1.3-13.4-1.4c-2.9-1.9-5.4-5.5-6.5-8.8c-1.6-4.9-1.7-9.9-1.1-15.1c1.1-8.8,4.3-17.1,9-24.4
	c3-4.6,6.8-9.2,11.4-12.5c0.5-0.4,3.3-2,3.9-2.3c1-0.5,2.4-0.9,3.2-0.1c0.4,0.4,0.4,0.8,0.1,1.4c-0.5,0.9-1.7,2.1-2.4,2.9
	c-0.6,0.6-4,4.8-4.7,5.8c-0.8,1-4.2,6.2-4.7,7c-4.3,7.5-7.8,19.4-7.5,28.7c0.1,1.9,0.4,4.7,0.8,6.5c0.6,2.4,2,5.7,4.2,7.2
	c2.3,1.6,4.4,1.5,7.1,0.4c0.7-0.3,1.8-0.8,1.8-0.8s-0.8-2-1.3-3.6c-1.4-4.2-2-11-1.5-15.7c0.4-3.8,1.3-6.7,3-9.8
	c1.4-2.4,3.2-4.8,5.5-6.8c2.2-1.9,5.8-3.6,8.9-3.6c2.6-0.1,5.3,1.1,6.7,3.4c2.4,4.1,2.5,10.6,1.9,14.9c-1,6.5-4.4,12.6-9.2,16.7
	C47.1,215.6,43.7,218.1,43.7,218.1 M251,194.2c0.1,0,0.3,0.1,0.5,0.1c1.5,0.6,2.1,2,2.5,3.5c0.9,3.6,1.2,11.4,1.4,14.5
	c0.1,2.3,0.2,4.6,0.3,6.9c0.1,1.9,0.2,4.5-0.2,6.3c-0.1,0.7-0.6,1.4-1.2,1.8c-0.7,0.5-2.3,0.5-3.2,0.3c-2.2-0.5-2.9-1.9-3.2-4.1
	c-0.7-5.2-0.4-15.4,0.1-19.7c0.1-1.4,0.7-6,1.4-7.9C249.5,195.3,250,194,251,194.2 M183,202c0,0-3.3,0.2-5.5,0.5
	c-2.9,0.3-8.2,1.2-11.3,2.3c-0.9,0.3-2.8,1.1-3,2.1c-0.2,1,0.4,1.8,1.1,2.6c0.4,0.5,2.6,2.6,3.3,3.1c2.6,2.2,8,5.6,11.9,7.2
	c1.3,0.6,3.6,1.4,3.6,1.4s-0.2-6.4-0.1-12.6C182.9,205.3,183,202,183,202 M242.9,204.5c0.2,1.7-0.3,4.9-0.3,5.4
	c-0.1,1-0.9,3.2-1,3.5c-0.6,1.4-1.2,2.5-1.8,3.6c-1.1,1.9-3.6,5-5.1,6.3c-5.6,4.9-14.3,7.6-21.8,8.5c-5.1,0.6-10.9,0.5-16.3-0.5
	c-1.8-0.3-4.6-1-4.6-1s0,1.1-0.1,1.9c0,0.3-0.3,1.3-0.5,1.6c-0.4,0.8-1,1.2-2,1.4c-1.1,0.2-2.3,0.3-3.4-0.2
	c-1.7-0.7-2.3-2.3-2.6-4.2c-0.2-1.5-0.5-4-0.5-4s-1.3-0.6-2.3-1.1c-3.3-1.6-6.4-3.6-9.1-5.6c-0.8-0.6-4-3.3-4.7-3.9
	c-2-1.9-3.8-3.8-5.2-6.2c-1.1-1.9-1.4-3.6-0.6-5.6c1.1-2.8,5.1-4.9,7.9-6.1c2-0.9,8.3-2.9,10.9-3.3c1.2-0.2,3.1-0.5,3.3-0.6
	c0,0,0.1-0.1,0.1-0.1c0.1-0.1,0.2-2.9,0.1-3.9c0-1,0.7-7.5,1-8.9c0.1-0.8,0.7-3.6,1.3-4.4c0.4-0.5,1-0.5,1.6-0.1
	c3,1.9,3.9,8.3,4.1,11.6c0.1,2,0.2,5,0.2,5s3.4-0.1,5.5,0c2,0.1,4.3,0.4,6.4,0.7c2.7,0.4,8,1.6,11.1,3.1c2.5,1.3,4.8,3.4,5.6,5.7
	c0.7,2.1,0.6,3.5-0.5,5.4c-1.2,2.1-3.5,3.7-5.8,3.8c-0.7,0-3.3-0.3-4.1-0.9c-0.3-0.3-0.3-0.7-0.1-1c0.1-0.1,1.3-0.7,2-1.1
	c0.4-0.2,0.7-0.4,0.9-0.7c0.6-0.5,1.1-1.1,1.1-1.8c-0.1-0.9-1-1.4-1.9-1.8c-4.2-1.6-12.4-3-16.5-3.3c-1.6-0.1-3.8-0.2-3.8-0.2
	l0.5,22.1c0,0,1.8,0.4,3.3,0.6c0.8,0.1,4.4,0.4,5.3,0.5c7.2,0.2,15.1-0.4,21.7-3.6c2.9-1.4,5.5-3,7.5-5.3c2.6-3,4-7.2,3.7-11.5
	c-0.4-4.7-3.7-10.3-6.4-13.7c-7-9-19-16.4-29.6-20.8c-10.8-4.4-21.5-7-32.9-7.4c-3-0.1-9.4,0-12.6,0.9c-0.5,0.1-0.9,0.3-1.4,0.4
	c-0.3,0.1-0.9,0.3-1,0.4c-0.1,0.1-0.2,0.2-0.2,0.2s0.2,0.1,0.4,0.2c0.3,0.2,1.8,0.2,2.5,0.4c0.7,0.1,1.4,0.5,1.6,1
	c0.3,0.5,0.3,0.8,0,1.2c-0.7,0.9-3.5,0.7-4.7,0.6c-1.3-0.2-2.8-0.6-3.1-1.7c-0.3-1.3,0.3-2.6,0.9-3.8c1.3-2.4,3.3-3.6,6.1-4.4
	c4-1.1,9-1.9,12.8-2c8.6-0.3,16.6,1.2,24.9,3.7c4.7,1.4,11,3.8,15.5,6c3.3,1.6,8.4,4.5,11.3,6.4c0.9,0.6,6.2,4.5,7.1,5.2
	c1.7,1.4,4,3.4,5.6,5.1c3.2,3.1,7.1,7.9,9,11.7c0.5,0.9,0.8,1.8,1.4,2.9c0.2,0.4,1.1,2.5,1.2,3.2c0.1,0.6,0.4,1.5,0.4,1.6
	C242.5,201.9,242.9,203.8,242.9,204.5L242.9,204.5z M279.7,206.1c0.2,0,0.2,0,0.3,0c2.6,0.4,5.2,0.8,7.1,1.7
	c1.8,0.8,2.9,1.8,3.9,3.6c1.5,2.8,1.6,6.6,0.2,9.5c-1,2.2-3.2,4-5.2,5c-2.1,1-4.1,1.5-6.5,1.8c-4.1,0.5-8.6-0.4-12.3-2.2
	c-2.2-1.1-4.9-2.9-6.2-5.3c-1-1.7-1-4,0.2-5.7c1.9-2.6,6-3.2,9.2-3.1c2.4,0.1,6.6,0.8,8.9,1.6c0.6,0.2,2.9,1.1,3.3,1.5
	c0.3,0.3,0.5,0.7,0.3,1.1c-0.5,1.6-4.3,2.4-5.4,2.6c-3,0.5-4.5-0.7-7.8-2c-0.8-0.3-1.9-0.7-2.8-0.8c-1.5-0.1-3.4,0.3-3.6,1.9
	c-0.1,0.9,0.9,1.7,1.6,2c1.8,0.8,3.3,1.1,5,1.1c5.2,0.1,11.1-0.8,15.4-3.8c0.6-0.4,1.2-1,1.2-1.8c0-0.1-0.1-0.9-0.4-1
	c0,0-0.1,0-0.1,0c-0.1,0-0.3-0.3-0.4-0.5c-0.3-0.4-1.5-0.9-1.8-1c-2.9-1.2-8.2-1.8-11-2c-2.9-0.2-7.4-0.6-8.5-0.8
	c-1.1-0.2-2.3-0.4-3.3-0.8c-1-0.4-1.9-1.4-2.2-2.5c-0.5-2,0.1-4.4,1.2-5.9c2.9-4.1,9.6-5.7,14.6-6.3c4.8-0.6,12.7-0.6,17.4,1.9
	c0.7,0.4,1.1,0.8,1,1.5c-0.3,1.5-1.4,2.4-2.8,2.8c-1.4,0.4-4.3,0.6-5.6,0.7c-5.7,0.3-12.7,0.2-18.1,1.6c-0.4,0.1-1.2,0.3-1.4,0.6
	c-0.9,0.9,1.6,1.2,2.1,1.3c0.2,0,0.2,0,0.3,0.1L279.7,206.1 M297.6,227.6c-2.3-0.9-2.8-4.6-2.9-6.5c-0.4-6.2,1.3-14.7,3.3-20.5
	c0.6-1.6,1.4-4.3,3.3-4.2c1.3,0.1,2.2,1.1,2.9,2.1c1.8,2.6,4.2,6,5.8,8.4c1.8,2.7,3.5,5.4,5.1,7.9c0.2,0.3,0.4,0.6,0.6,0.8
	c0.3,0.2,0.6,0.3,0.7,0c0.1-0.1-0.1-3.2-0.1-3.8c-0.1-1-0.2-1.8-0.3-2.7c-0.3-2.5-1.1-6-1.7-8.4c-0.7-2.6-1.5-5.4-2.1-8
	c-0.2-0.8-0.4-1.7-0.4-2.5c0-1.1,0.7-1.8,1.9-1.4c2.4,0.8,5.5,5.9,6.4,7.7c0.3,0.6,1.5,3.6,1.8,4.5c1,2.9,1.6,5.7,1.8,8.9
	c0.3,3.1,0,7.6-1.3,10.7c-0.5,1.1-1.5,2.6-2.3,3.4c-1.3,1.2-3.9,2.1-5.6,1.1c-1.9-1.1-5.1-6.6-5.7-7.6c-1.8-3.2-5-9.5-5.5-10.2
	c-0.1-0.2-0.2-0.3-0.5-0.4c-0.2-0.1-0.3,0.3-0.3,0.6c-0.3,1.8-0.5,10.4-0.5,10.7c-0.1,1.4-0.1,5-0.5,6.7c-0.3,1.1-0.5,2.1-1.6,2.6
	C299.1,228.1,298.5,227.9,297.6,227.6 M329.5,227c-0.3-0.2-0.7-0.6-0.9-0.9c0,0-0.9-1.3-1-1.7c-0.1-0.3-0.3-0.6-0.4-0.8
	c-0.8-2-0.7-3.9-0.3-6c0.4-2,0.8-2,1.8-4.7c0.1-0.1,0.1-0.3,0.1-0.4c0-0.4-0.6-2.9-0.6-3.6c0-1.2,0.9-2.1,2.5-2.2c0.1,0,0.3,0,0.4,0
	c0.6-0.2,1-1.4,1.4-2.3c0.5-1.4,1.2-3.4,1.2-3.4s-2-0.5-3.1-0.9c-1.2-0.5-2.1-1-2.6-2.1c-0.6-1.3-0.2-2,1.1-2.4
	c0.5-0.2,4.4-0.9,5.6-1.1c1.5-0.2,3-0.4,4.4-0.6c1.3-0.2,7.1-0.8,8.9-0.8c2.8,0.1,4.6,1.2,6.3,3.6c0.9,1.3,1.5,2.8,0.2,3.6
	c-2.1,1.2-8.7,1.3-9.9,1.4c-1.9,0-4.6,0-4.6,0l-1.4,4.5c0,0,4.8-0.1,7.4-0.1c0.7,0,1.3,0,1.7,0.1c1.4,0.3,1.8,1.4,1.9,2.9
	c0.1,1.8-0.3,2.6-1.7,2.8c-0.7,0.1-8.9,0.2-10,0.3c-0.7,0.1-1.4,0.2-1.4,0.2s-0.6,1.5-1.1,3.1c-0.5,1.6-1,3.3-1,3.3s0.4,0,0.8,0
	c0.6,0,1.2-0.1,1.6-0.2c2.5-0.5,6.2-1,9.3-1.5c1.6-0.3,2.5-0.4,3.3,0.7c0.7,1,1.1,1.8,1.2,2.9c0,1.1-0.8,1.8-1.8,2.6
	c-3.2,2.5-8.7,5.1-12.8,5.6c-1.9,0.2-2.4,0-4-0.4c-0.3-0.1-1.5-0.6-1.5-0.7C330.4,227.6,329.7,227.2,329.5,227L329.5,227z
	 M381.3,204.3c-2.1,1.8-4.8,5.4-6.1,7.2c-1.7,2.5-3.4,5.3-4.9,7.5c-0.3,0.5-1.3,2.3-1.3,2.3c0.1,0.1,1.1,0.1,2.1-0.1
	c2.2-0.4,5.2-1.9,6.9-3.2c2.5-2,4.2-4.7,5-7.8c0.4-1.4,0.5-4.5-0.5-5.8C382.2,204.2,381.7,204,381.3,204.3 M364.5,230.2
	c0,0-0.7,2-1.2,3.5c-0.8,2.7-2.7,9.8-3.1,12c-0.6,3.3-2.5,11.9-2.6,12.1c-0.1,0.3-0.2,0.3-0.5,0.5c-0.8,0.4-1.1,0.3-2-0.2
	c-1.2-0.6-2.2-1.3-3.1-2.5c-1.8-2.3-1.4-6.7-1-9.3c1.2-9,2.5-13,5.9-22c0.1-0.2,0.1-0.2,0-0.3c-1.1-2.3-1.6-5-1.6-7.3
	c0-7.1,4.1-14,8.6-19.6c0.3-0.4,2.6-3.1,3.6-3c1,0,1.2,1.2,1,2.2c-0.5,3.3-2.8,6.6-4.4,9.3c-1.8,3.1-2.1,4.3-3,7.1
	c-0.1,0.4-0.5,2.5-0.5,2.8c0,0.8,0.2,1.7,0.2,1.7s2.9-4,4.8-6.5c1-1.4,1.8-2.3,2.6-3.2c0.9-1,4.2-4.5,5.2-5.4c2-1.9,2.9-2.7,5.1-3.9
	c1.7-0.9,3.3-1.1,5,0c2.7,1.8,3.9,5.5,4.2,8.5c0.4,3.6-0.4,7.7-2,10.8c-1.9,3.7-4.5,6.4-8,8.7c-3.6,2.4-7.8,4-12,3.9
	C365.2,230.2,364.5,230.2,364.5,230.2"/>
</svg>
