<?xml version="1.0" encoding="utf-8"?>
<!-- Generator: Adobe Illustrator 25.2.1, SVG Export Plug-In . SVG Version: 6.00 Build 0)  -->
<svg version="1.1" id="Layer_1" xmlns="http://www.w3.org/2000/svg" xmlns:xlink="http://www.w3.org/1999/xlink" x="0px" y="0px"
	 viewBox="0 0 800 800" style="enable-background:new 0 0 800 800;" xml:space="preserve">
<style type="text/css">
	.st0{fill:#FFFFFF;}
</style>
<g>
	<path class="st0" d="M400,0C179.1,0,0,179.1,0,400s179.1,400,400,400s400-179.1,400-400S620.9,0,400,0z M523.6,396.7h-76.1v280.5
		H332.3V398.5h-62.7v-96.8h60.8c0-28.6,0.3-54.1,0-80.6c0-76.2,58.5-98.3,111.1-98.3h88.6h0h0v95.6c-7.4,0-36.4,0-51.4,0
		c-1.9,0-33.2-1.7-33.2,28.4c0.2,12.3,0,54.7,0,54.7h84.9L523.6,396.7z"/>
</g>
</svg>
