<?xml version="1.0" encoding="utf-8"?>
<!-- Generator: Adobe Illustrator 25.2.1, SVG Export Plug-In . SVG Version: 6.00 Build 0)  -->
<svg version="1.1"
	 id="Layer_1" inkscape:version="1.1.2 (b8e25be833, 2022-02-05)" sodipodi:docname="Fox.svg" xmlns:inkscape="http://www.inkscape.org/namespaces/inkscape" xmlns:sodipodi="http://sodipodi.sourceforge.net/DTD/sodipodi-0.dtd" xmlns:svg="http://www.w3.org/2000/svg"
	 xmlns="http://www.w3.org/2000/svg" xmlns:xlink="http://www.w3.org/1999/xlink" x="0px" y="0px" viewBox="0 0 1000 1000"
	 style="enable-background:new 0 0 1000 1000;" xml:space="preserve">
<style type="text/css">
	.st0{fill:#FFFFFF;}
</style>
<sodipodi:namedview  bordercolor="#666666" borderopacity="1.0" id="namedview17" inkscape:current-layer="Layer_1" inkscape:cx="507" inkscape:cy="124" inkscape:pagecheckerboard="0" inkscape:pageopacity="0.0" inkscape:pageshadow="2" inkscape:window-height="705" inkscape:window-maximized="1" inkscape:window-width="1366" inkscape:window-x="-8" inkscape:window-y="-8" inkscape:zoom="0.5" pagecolor="#ffffff" showgrid="false">
	</sodipodi:namedview>
<g id="g830">
	<path id="path8051" class="st0" d="M0,288.8v422.4h127.8V574.9h116.2V459.3H127.8V404h142.5l-7.7-115.2H0z"/>
	<path id="path8458" class="st0" d="M475.5,288.8c-117,0-211.2,94.2-211.2,211.2s94.2,211.2,211.2,211.2S686.7,617,686.7,500
		S592.5,288.8,475.5,288.8z M475.5,375.8c19.8,0,35.7,15.9,35.7,35.7v177.1c0,19.8-15.9,35.7-35.7,35.7s-35.7-15.9-35.7-35.7V411.5
		C439.8,391.7,455.7,375.8,475.5,375.8z"/>
	<path id="path8456" class="st0" d="M623.3,288.8L743.2,500L623.3,711.2h137l51.3-90.5l51.3,90.5h137L880.2,500L1000,288.8H863
		l-51.3,90.5l-51.3-90.5H623.3z"/>
</g>
</svg>
