<?xml version="1.0" encoding="utf-8"?>
<!-- Generator: Adobe Illustrator 25.2.1, SVG Export Plug-In . SVG Version: 6.00 Build 0)  -->
<svg version="1.1" id="Layer_1" xmlns="http://www.w3.org/2000/svg" xmlns:xlink="http://www.w3.org/1999/xlink" x="0px" y="0px"
	 viewBox="0 0 800 800" style="enable-background:new 0 0 800 800;" xml:space="preserve">
<style type="text/css">
	.st0{fill:#FFFFFF;}
</style>
<path class="st0" d="M790.5,407.5c0-32.8-2.7-56.7-8.4-81.5H407.8v147.9h219.7C623,510.7,599.1,566,546,603.3l-0.7,5l118.3,91.7
	l8.2,0.8C747.1,631.2,790.5,528.8,790.5,407.5"/>
<path class="st0" d="M407.8,797.3c107.6,0,198-35.4,264-96.6L546,603.3c-33.7,23.5-78.8,39.9-138.2,39.9
	c-105.4,0-194.9-69.5-226.8-165.6l-4.7,0.4l-123,95.2l-1.6,4.5C117.2,707.8,251.9,797.3,407.8,797.3"/>
<path class="st0" d="M181,477.5c-8.4-24.8-13.3-51.4-13.3-78.8c0-27.5,4.9-54,12.8-78.8l-0.2-5.3L55.8,217.7l-4.1,1.9
	c-27,54-42.5,114.7-42.5,178.9s15.5,124.9,42.5,178.9L181,477.5"/>
<path class="st0" d="M407.8,154.1c74.9,0,125.3,32.3,154.1,59.4l112.5-109.8C605.3,39.4,515.4,0,407.8,0
	C251.9,0,117.2,89.5,51.7,219.7l128.9,100.1C212.9,223.7,302.4,154.1,407.8,154.1"/>
</svg>
