<?xml version="1.0" encoding="utf-8"?>
<!-- Generator: Adobe Illustrator 25.2.1, SVG Export Plug-In . SVG Version: 6.00 Build 0)  -->
<svg version="1.1" id="svg3196" xmlns:svg="http://www.w3.org/2000/svg"
	 xmlns="http://www.w3.org/2000/svg" xmlns:xlink="http://www.w3.org/1999/xlink" x="0px" y="0px" viewBox="0 0 214 214"
	 style="enable-background:new 0 0 214 214;" xml:space="preserve">
<style type="text/css">
	.st0{fill:#FFFFFF;}
</style>
<path id="path4051" class="st0" d="M20.3,88l4.4,13.3h0.1L20.5,88H20.3z M39.4,103.1l-0.1,0.1L28,111.5l4.3,13.4l0,0.1l0.1-0.1
	l-4.3-13.4L39.4,103.1L39.4,103.1z M19.4,117.8L8,125.9l0.1,0.1L19.4,117.8L19.4,117.8z"/>
<path id="path50" class="st0" d="M84,108.1c0,1.3-0.6,1.7-2.6,2.4c-1.7,0.6-3,0.9-3.3,0.9c-0.7,0-1-0.5-1-1.6c0-2.6,0.7-5.7,3.4-5.7
	C83,104.1,84,106.8,84,108.1 M56.9,119.3c0-0.2,0-0.3-0.1-0.5c-0.3-0.3-1.3-0.5-1.8-1c-0.4-0.4-0.6-1-0.6-2.6v-5.9
	c0-0.5,0.1-0.7,0.6-0.7h6c0.5,0,0.6,0.3,0.6,0.7v5.9c0,1.5-0.2,2.2-0.6,2.6c-0.5,0.5-1.6,0.7-1.8,1c-0.1,0.1-0.1,0.2-0.1,0.5
	c0,0.9,0.1,1.8,0.3,1.9c0.1,0.1,0.3,0.2,0.8,0.2h9.8c0.5,0,0.7,0,0.8-0.2c0.1-0.1,0.3-1,0.3-1.9c0-0.2,0-0.3-0.1-0.5
	c-0.2-0.2-1.3-0.5-1.8-1c-0.4-0.4-0.6-1.1-0.6-2.3V99.4c0-0.8,0.2-1.4,0.5-1.7c0.6-0.6,1.7-0.7,1.9-0.9c0.1-0.1,0.1-0.3,0.1-0.5
	c0-0.6-0.1-1.6-0.3-1.7c-0.1-0.1-0.3-0.2-0.8-0.2h-9.4c-0.4,0-0.5,0-0.6,0.1c-0.1,0.1-0.2,0.8-0.2,1.8c0,0.2,0,0.4,0.1,0.5
	c0.2,0.2,1,0.5,1.4,0.8c0.4,0.4,0.5,0.8,0.5,2v4.6c0,0.2-0.2,0.4-0.4,0.4h-6.2c-0.2,0-0.4-0.2-0.4-0.4v-4.6c0-1.2,0.1-1.6,0.5-2
	c0.3-0.3,1.2-0.6,1.4-0.8c0.1-0.1,0.1-0.3,0.1-0.5c0-0.9-0.1-1.7-0.2-1.8c-0.1-0.1-0.2-0.1-0.6-0.1h-9.4c-0.5,0-0.7,0-0.8,0.2
	c-0.1,0.1-0.3,1.1-0.3,1.7c0,0.2,0,0.4,0.1,0.5c0.2,0.2,1.4,0.3,1.9,0.9c0.3,0.3,0.5,0.9,0.5,1.7v16.2c0,1.2-0.2,1.9-0.6,2.3
	c-0.5,0.5-1.6,0.7-1.8,1c-0.1,0.1-0.1,0.2-0.1,0.5c0,0.9,0.1,1.8,0.3,1.9c0.1,0.1,0.3,0.2,0.8,0.2h9.8c0.5,0,0.7,0,0.8-0.2
	C56.8,121.1,56.9,120.2,56.9,119.3 M89.2,118.8c1-1,1.3-1.6,1.3-2.1c0-0.5-0.1-0.9-0.6-1.4c-0.5-0.5-0.8-0.5-1.2-0.5
	c-0.5,0-0.7,0.1-1,0.5c-1.5,1.5-3.5,2.4-5.8,2.4c-2.4,0-3.9-1.6-3.9-2.6c0-0.3,0.2-0.5,0.9-0.7c6.7-2.1,9.4-3.5,10.5-4.5
	c0.6-0.6,0.8-1.2,0.8-1.8c0-2.6-3.8-7.3-9.7-7.3c-2.4,0-4.9,1-6.7,2.8s-3,4.4-3,8c0,3.4,1.1,5.8,3,7.6s4.6,2.8,7.5,2.8
	C84.2,122,87.1,120.9,89.2,118.8 M100,101.9c0-0.5-0.2-0.6-0.6-0.6h-6.7c-0.4,0-0.5,0-0.6,0.1c-0.1,0.1-0.3,1.1-0.3,1.7
	c0,0.2,0.1,0.3,0.1,0.4c0.2,0.3,0.8,0.4,1.2,0.8c0.3,0.3,0.5,1,0.5,2v9.3c0,1.2-0.1,1.9-0.5,2.3c-0.5,0.5-1.4,0.8-1.6,1
	c-0.1,0.1-0.1,0.2-0.1,0.5c0,0.9,0.1,1.8,0.3,1.9c0.1,0.1,0.3,0.2,0.7,0.2h8.9c0.4,0,0.6-0.1,0.7-0.2c0.1-0.1,0.2-1,0.2-1.9
	c0-0.2,0-0.4-0.1-0.5c-0.2-0.2-1-0.5-1.6-1c-0.3-0.3-0.5-1.1-0.5-2.3L100,101.9L100,101.9z M96.3,93.1c-1.9,0-3.5,1.5-3.5,3.4
	c0,1.9,1.6,3.4,3.5,3.4c1.9,0,3.5-1.5,3.5-3.4C99.8,94.6,98.3,93.1,96.3,93.1 M123.2,106.6c0-3.9-2-5.9-5.2-5.9
	c-1.5,0-3.1,0.5-4.7,1.5c-0.6,0.3-0.7,0.5-0.9,0.5c-0.6,0-0.2-1.4-1.2-1.4h-6.1c-0.4,0-0.5,0-0.6,0.1c-0.2,0.2-0.3,1.1-0.3,1.7
	c0,0.2,0,0.3,0.1,0.4c0.3,0.3,0.8,0.4,1.2,0.8c0.3,0.3,0.5,1,0.5,2v9.3c0,1.2-0.1,1.9-0.5,2.3c-0.5,0.5-1.3,0.8-1.6,1
	c-0.1,0.1-0.1,0.2-0.1,0.5c0,0.9,0.1,1.8,0.2,1.9c0.1,0.1,0.3,0.2,0.7,0.2h8.8c0.4,0,0.6-0.1,0.7-0.2c0.2-0.2,0.3-1,0.3-1.9
	c0-0.2,0-0.4-0.1-0.5c-0.3-0.3-1.1-0.5-1.6-1c-0.3-0.3-0.5-1.1-0.5-2.3v-6.8c0-2.8,1.6-3.7,2.7-3.7c1.2,0,1.8,0.9,1.8,2.7v9.6
	c0,2.6,1.6,4.3,4.6,4.3c3.3,0,4.7-2.4,4.7-2.8c0-0.4-0.7-1.2-1.1-1.2c-0.5,0-1.2,0.6-1.5,0.6c-0.2,0-0.4-0.2-0.4-0.7V106.6
	L123.2,106.6z M187.6,118.8c1-1,1.2-1.6,1.2-2.1c0-0.5-0.1-0.9-0.6-1.4c-0.5-0.5-0.8-0.5-1.2-0.5c-0.5,0-0.7,0.1-1,0.5
	c-1.5,1.5-3.5,2.4-5.8,2.4c-2.4,0-3.9-1.6-3.9-2.6c0-0.3,0.2-0.5,0.9-0.7c6.7-2.1,9.4-3.5,10.5-4.5c0.6-0.6,0.8-1.2,0.8-1.8
	c0-2.6-3.8-7.3-9.7-7.3c-2.4,0-4.9,1-6.7,2.8c-1.8,1.8-3,4.4-3,8c0,3.4,1.1,5.8,3,7.6s4.6,2.8,7.5,2.8
	C182.6,122,185.5,120.9,187.6,118.8 M182.4,108.1c0,1.3-0.6,1.7-2.6,2.4c-1.7,0.6-3,0.9-3.3,0.9c-0.7,0-1-0.5-1-1.6
	c0-2.6,0.7-5.7,3.4-5.7C181.4,104.1,182.4,106.8,182.4,108.1 M144.9,118.8c1-1,1.3-1.6,1.3-2.1c0-0.5-0.1-0.9-0.6-1.4
	c-0.5-0.5-0.8-0.5-1.2-0.5c-0.5,0-0.7,0.1-1,0.5c-1.5,1.5-3.5,2.4-5.8,2.4c-2.4,0-3.9-1.6-3.9-2.6c0-0.3,0.2-0.5,0.9-0.7
	c6.7-2.1,9.4-3.5,10.5-4.5c0.6-0.6,0.8-1.2,0.8-1.8c0-2.6-3.8-7.3-9.7-7.3c-2.4,0-4.9,1-6.7,2.8s-3,4.4-3,8c0,3.4,1.1,5.8,3,7.6
	c1.9,1.9,4.6,2.8,7.5,2.8C140,122,142.8,120.9,144.9,118.8 M139.7,108.1c0,1.3-0.6,1.7-2.6,2.4c-1.7,0.6-3,0.9-3.3,0.9
	c-0.7,0-1-0.5-1-1.6c0-2.6,0.7-5.7,3.4-5.7C138.7,104.1,139.7,106.8,139.7,108.1 M209.2,106.6c0-3.9-2-5.9-5.2-5.9
	c-1.5,0-3.1,0.5-4.7,1.5c-0.6,0.3-0.7,0.5-0.9,0.5c-0.6,0-0.2-1.4-1.2-1.4h-6.1c-0.4,0-0.5,0-0.6,0.1c-0.2,0.2-0.3,1.1-0.3,1.7
	c0,0.2,0,0.3,0.1,0.4c0.3,0.3,0.8,0.4,1.2,0.8c0.3,0.3,0.5,1,0.5,2v9.3c0,1.2-0.1,1.9-0.5,2.3c-0.5,0.5-1.3,0.8-1.6,1
	c-0.1,0.1-0.1,0.2-0.1,0.5c0,0.9,0.1,1.8,0.2,1.9c0.1,0.1,0.3,0.2,0.7,0.2h8.7c0.4,0,0.6-0.1,0.7-0.2c0.2-0.2,0.3-1,0.3-1.9
	c0-0.2,0-0.4-0.1-0.5c-0.3-0.3-1.1-0.5-1.6-1c-0.3-0.3-0.5-1.1-0.5-2.3v-6.8c0-2.8,1.6-3.7,2.7-3.7c1.2,0,1.8,0.9,1.8,2.7v9.6
	c0,2.6,1.6,4.3,4.6,4.3c3.3,0,4.7-2.4,4.7-2.8c0-0.4-0.7-1.2-1.1-1.2c-0.5,0-1.2,0.6-1.5,0.6c-0.2,0-0.4-0.2-0.4-0.7L209.2,106.6
	L209.2,106.6z M154.7,93.8h-6.7c-0.4,0-0.6,0-0.7,0.2c-0.1,0.2-0.2,1-0.2,1.6c0,0.2,0,0.3,0.1,0.5c0.2,0.2,1.2,0.5,1.6,0.9
	c0.3,0.3,0.5,1,0.5,3.7v13.9c0,2.3-0.2,3.1-0.5,3.3c-0.5,0.5-1.3,0.8-1.6,1c-0.1,0.1-0.1,0.2-0.1,0.5c0,0.9,0.1,1.8,0.2,1.9
	c0.1,0.1,0.2,0.2,0.7,0.2h8.7c0.5,0,0.6-0.1,0.7-0.2c0.1-0.1,0.3-1,0.3-1.9c0-0.2,0-0.4-0.1-0.5c-0.2-0.2-1.1-0.5-1.5-1
	c-0.4-0.3-0.5-1.1-0.5-2.3v-0.8c0-0.5,0.1-0.6,0.9-1.4c0.3-0.3,0.7-0.6,0.9-0.6c0.3,0,0.6,0.2,4.4,8c0.2,0.5,0.3,0.6,1,0.6h5.7
	c0.4,0,0.6-0.1,0.7-0.2c0.1-0.1,0.3-1,0.3-1.9c0-0.2,0-0.4-0.1-0.5c-0.2-0.2-1.7-0.4-2-1c-5-8.5-5.2-8.8-5.2-9.3
	c0-0.5,2.2-2.7,4.1-4.1c1.2-0.9,1.9-0.3,1.9-1.4c0-1.3-0.2-1.7-0.4-1.7h-8.4c-0.7,0-0.8,0.4-0.8,2c0,0.5,1.5,0.6,1.5,1.3
	c0,0.6-3.5,4-4.1,4c-0.2,0-0.2-0.1-0.2-0.7V94.7C155.6,94.2,155.2,93.8,154.7,93.8"/>
<path id="path3239" class="st0" d="M19.4,88.3l4.6,14l14.8,0.1l-11.9,8.7l4.5,14l-12-8.6l-12,8.6l4.5-14L0,102.4l14.8-0.1L19.4,88.3
	z"/>
</svg>
