<?xml version="1.0" encoding="utf-8"?>
<!-- Generator: Adobe Illustrator 25.2.1, SVG Export Plug-In . SVG Version: 6.00 Build 0)  -->
<svg version="1.1" id="Layer_1" xmlns="http://www.w3.org/2000/svg" xmlns:xlink="http://www.w3.org/1999/xlink" x="0px" y="0px"
	 viewBox="0 0 800 800" style="enable-background:new 0 0 800 800;" xml:space="preserve">
<style type="text/css">
	.st0{fill:#FFFFFF;}
</style>
<g>
	<path class="st0" d="M155.6,536.8V559H0v-22.2H155.6z M398.7,536.8c-15.6,14.3-36,22.3-57.2,22.2l0,0l-163.6-0.2v-22H398.7z
		 M629.9,536.8l-7.8,22.2l-7.7-22.2H629.9z M555.6,536.8V559H444.4v-22.2H555.6z M800,536.8V559H688.9v-22.2H800z M423.8,494.4
		c-1.9,7.8-4.9,15.3-8.9,22.2l0,0H177.8v-22.2H423.8z M644.8,494.4l-7.8,22.2h-29.6l-7.8-22.2H644.8z M555.6,494.4v22.2H444.4v-22.2
		H555.6z M800,494.4v22.2H688.9v-22.2H800z M155.6,494.4v22.2H0v-22.2H155.6z M111.1,452v22.2H44.4V452H111.1z M288.9,452v22.2
		h-66.7V452H288.9z M423.3,452c2,7.2,3,14.7,3,22.2l0,0h-74.7V452H423.3z M659.7,452l-7.8,22.2h-59.4l-7.8-22.2H659.7z M555.6,452
		v22.2h-66.7V452H555.6z M755.6,452v22.2h-66.7V452H755.6z M111.1,409.5v22.2H44.4v-22.2H111.1z M555.6,409.5v22.2h-66.7v-22.2
		H555.6z M755.6,409.5v22.2h-66.7v-22.2H755.6z M396.3,409.5c7.4,6.3,13.7,13.8,18.5,22.2l0,0H222.2v-22.2H396.3z M674.6,409.5
		l-7.8,22.2h-89.2l-7.8-22.2H674.6z M616,367.1l6.2,18l6.2-18h127.1v22.2h-66.7v-20.4l-7.2,20.4h-119l-7.2-20.4v20.4h-66.7v-22.2
		H616z M222.2,367.1l192.6,0c-4.9,8.4-11.1,15.9-18.5,22.2l0,0H222.2V367.1z M111.1,367.1v22.2H44.4v-22.2H111.1z M111.1,324.7v22.2
		H44.4v-22.2H111.1z M288.9,324.7v22.2h-66.7v-22.2H288.9z M426.3,324.7c0,7.5-1,15-3,22.2l0,0h-71.8v-22.2H426.3z M601.2,324.7
		l7.7,22.2H488.9v-22.2H601.2z M755.6,324.7v22.2H635.5l7.7-22.2H755.6z M155.6,282.3v22.2H0v-22.2H155.6z M414.9,282.3
		c4,6.9,7,14.4,8.9,22.2l0,0h-246v-22.2H414.9z M800,282.3v22.2H650.2l7.7-22.2H800z M586.5,282.3l7.7,22.2H444.4v-22.2H586.5z
		 M155.6,239.8v22.2H0v-22.2H155.6z M341.4,239.8c21.2,0,41.6,7.9,57.2,22.2l0,0H177.8v-22.2H341.4z M800,239.8v22.2H665l7.7-22.2
		H800z M571.7,239.8l7.7,22.2h-135v-22.2H571.7z"/>
</g>
</svg>
