<?xml version="1.0" encoding="utf-8"?>
<!-- Generator: Adobe Illustrator 25.2.1, SVG Export Plug-In . SVG Version: 6.00 Build 0)  -->
<svg version="1.1" id="Layer_2_1_" xmlns="http://www.w3.org/2000/svg" xmlns:xlink="http://www.w3.org/1999/xlink" x="0px" y="0px"
	 viewBox="0 0 800 800" style="enable-background:new 0 0 800 800;" xml:space="preserve">
<style type="text/css">
	.st0{fill:#FFFFFF;}
</style>
<g>
	<g>
		<g>
			<path class="st0" d="M503.8,605.6c14.2-1.8,113.1-13.8,182.9-48.7c75.6-37.8,112-98.9,112-153.1c0-117.1-164-207.6-398.9-207.6
				S1.3,286,1.3,403.8c0,54.9,36,116.7,112,153.1c70.2,33.8,169.8,46.2,184.7,48.7l101.8-297.8L503.8,605.6L503.8,605.6z
				 M399.8,261.3c0,0-154.9,206.4-169.8,225.1c-57.1-5.1-156-42.9-156-107.6C74,296.7,218,220,399.8,220
				c190.9,0,325.8,76.7,325.8,158.9c0,65.1-98.9,102.2-156,106.9C554,466,399.8,261.3,399.8,261.3"/>
		</g>
	</g>
</g>
</svg>
