<?xml version="1.0" encoding="utf-8"?>
<!-- Generator: Adobe Illustrator 25.2.1, SVG Export Plug-In . SVG Version: 6.00 Build 0)  -->
<svg version="1.1" id="Layer_1" xmlns="http://www.w3.org/2000/svg" xmlns:xlink="http://www.w3.org/1999/xlink" x="0px" y="0px"
	 viewBox="0 0 800 800" style="enable-background:new 0 0 800 800;" xml:space="preserve">
<style type="text/css">
	.st0{fill:#FFFFFF;}
</style>
<path class="st0" d="M266.7,400c0-73.6,59.7-133.3,133.3-133.3S533.3,326.4,533.3,400S473.6,533.3,400,533.3S266.7,473.6,266.7,400
	 M194.6,400c0,113.4,92,205.4,205.4,205.4s205.4-92,205.4-205.4s-92-205.4-205.4-205.4S194.6,286.6,194.6,400 M565.5,186.5
	c0,26.5,21.5,48,48,48c26.5,0,48-21.5,48-48s-21.5-48-48-48h0C587,138.5,565.5,160,565.5,186.5 M238.4,725.6
	c-39-1.8-60.2-8.3-74.3-13.8c-18.7-7.3-32-15.9-46-29.9c-14-14-22.7-27.3-29.9-46c-5.5-14.1-12-35.3-13.8-74.3
	c-1.9-42.2-2.3-54.8-2.3-161.6s0.4-119.4,2.3-161.6c1.8-39,8.3-60.2,13.8-74.3c7.3-18.7,15.9-32,29.9-46s27.3-22.7,46-29.9
	c14.1-5.5,35.3-12,74.3-13.8c42.2-1.9,54.8-2.3,161.6-2.3s119.4,0.4,161.6,2.3c39,1.8,60.2,8.3,74.3,13.8c18.7,7.2,32,15.9,46,29.9
	c14,14,22.6,27.3,29.9,46c5.5,14.1,12,35.3,13.8,74.3c1.9,42.2,2.3,54.8,2.3,161.6s-0.4,119.4-2.3,161.6c-1.8,39-8.3,60.2-13.8,74.3
	c-7.3,18.7-15.9,32-29.9,46c-14,14-27.3,22.6-46,29.9c-14.1,5.5-35.3,12-74.3,13.8c-42.2,1.9-54.8,2.3-161.6,2.3
	S280.6,727.5,238.4,725.6 M235.1,2.4C192.5,4.4,163.4,11.1,138,21c-26.3,10.2-48.6,23.9-70.9,46.1S31.2,111.7,21,138
	c-9.9,25.4-16.6,54.5-18.6,97.1C0.5,277.7,0,291.4,0,400s0.5,122.3,2.4,164.9c1.9,42.6,8.7,71.7,18.6,97.1
	c10.2,26.3,23.9,48.6,46.1,70.9s44.5,35.9,70.9,46.1c25.5,9.9,54.5,16.6,97.1,18.6c42.7,1.9,56.3,2.4,164.9,2.4s122.3-0.5,164.9-2.4
	c42.6-1.9,71.7-8.7,97.1-18.6c26.3-10.2,48.6-23.9,70.9-46.1s35.9-44.6,46.1-70.9c9.9-25.4,16.7-54.5,18.6-97.1
	c1.9-42.7,2.4-56.3,2.4-164.9s-0.5-122.3-2.4-164.9c-1.9-42.6-8.7-71.7-18.6-97.1c-10.2-26.3-23.9-48.6-46.1-70.9S688.3,31.2,662,21
	c-25.5-9.9-54.5-16.7-97.1-18.6C522.3,0.5,508.7,0,400,0S277.8,0.5,235.1,2.4"/>
<path class="st0" d="M266.7,400c0-73.6,59.7-133.3,133.3-133.3S533.3,326.4,533.3,400S473.6,533.3,400,533.3S266.7,473.6,266.7,400
	 M194.6,400c0,113.4,92,205.4,205.4,205.4s205.4-92,205.4-205.4s-92-205.4-205.4-205.4S194.6,286.6,194.6,400 M565.5,186.5
	c0,26.5,21.5,48,48,48c26.5,0,48-21.5,48-48s-21.5-48-48-48h0C587,138.5,565.5,160,565.5,186.5 M238.4,725.6
	c-39-1.8-60.2-8.3-74.3-13.8c-18.7-7.3-32-15.9-46-29.9c-14-14-22.7-27.3-29.9-46c-5.5-14.1-12-35.3-13.8-74.3
	c-1.9-42.2-2.3-54.8-2.3-161.6s0.4-119.4,2.3-161.6c1.8-39,8.3-60.2,13.8-74.3c7.3-18.7,15.9-32,29.9-46s27.3-22.7,46-29.9
	c14.1-5.5,35.3-12,74.3-13.8c42.2-1.9,54.8-2.3,161.6-2.3s119.4,0.4,161.6,2.3c39,1.8,60.2,8.3,74.3,13.8c18.7,7.2,32,15.9,46,29.9
	c14,14,22.6,27.3,29.9,46c5.5,14.1,12,35.3,13.8,74.3c1.9,42.2,2.3,54.8,2.3,161.6s-0.4,119.4-2.3,161.6c-1.8,39-8.3,60.2-13.8,74.3
	c-7.3,18.7-15.9,32-29.9,46c-14,14-27.3,22.6-46,29.9c-14.1,5.5-35.3,12-74.3,13.8c-42.2,1.9-54.8,2.3-161.6,2.3
	S280.6,727.5,238.4,725.6 M235.1,2.4C192.5,4.4,163.4,11.1,138,21c-26.3,10.2-48.6,23.9-70.9,46.1S31.2,111.7,21,138
	c-9.9,25.4-16.6,54.5-18.6,97.1C0.5,277.7,0,291.4,0,400s0.5,122.3,2.4,164.9c1.9,42.6,8.7,71.7,18.6,97.1
	c10.2,26.3,23.9,48.6,46.1,70.9s44.5,35.9,70.9,46.1c25.5,9.9,54.5,16.6,97.1,18.6c42.7,1.9,56.3,2.4,164.9,2.4s122.3-0.5,164.9-2.4
	c42.6-1.9,71.7-8.7,97.1-18.6c26.3-10.2,48.6-23.9,70.9-46.1s35.9-44.6,46.1-70.9c9.9-25.4,16.7-54.5,18.6-97.1
	c1.9-42.7,2.4-56.3,2.4-164.9s-0.5-122.3-2.4-164.9c-1.9-42.6-8.7-71.7-18.6-97.1c-10.2-26.3-23.9-48.6-46.1-70.9S688.3,31.2,662,21
	c-25.5-9.9-54.5-16.7-97.1-18.6C522.3,0.5,508.7,0,400,0S277.8,0.5,235.1,2.4"/>
</svg>
