<?xml version="1.0" encoding="utf-8"?>
<!-- Generator: Adobe Illustrator 25.2.1, SVG Export Plug-In . SVG Version: 6.00 Build 0)  -->
<svg version="1.1" id="Layer_1" xmlns="http://www.w3.org/2000/svg" xmlns:xlink="http://www.w3.org/1999/xlink" x="0px" y="0px"
	 viewBox="0 0 800 800" style="enable-background:new 0 0 800 800;" xml:space="preserve">
<style type="text/css">
	.st0{fill:#FFFFFF;}
</style>
<path class="st0" d="M235.7,360v129.2h-41.1V326.8l84.9,0.1c36,0,48.3,25.5,48.3,48.5v113.8h-41V375.6c0-9.7-5-15.6-17.1-15.6H235.7
	z M515.3,358.1c-14.1,0-24.9,7.2-29.5,17c-2.6,5.6-3.9,11.6-3.9,17.7h63.3C544.4,375.1,536.4,358.1,515.3,358.1z M481.9,420.7
	c0,21,13.1,36.5,36.5,36.5c18.1,0,27.2-5,37.7-15.5l25.4,24.3c-16.2,16-33.4,25.8-63.4,25.8c-39.3,0-77-21.4-77-84
	c0-53.5,32.8-83.7,76-83.7c43.8,0,69.2,35.4,69.2,81.8v14.8L481.9,420.7L481.9,420.7L481.9,420.7z M406.3,489
	c-33.5,0-47.7-23.3-47.7-46.4v-160h41.1v44.2h30.9V360h-31v80c0,9.5,4.5,14.7,14.3,14.7h16.7v34.2L406.3,489L406.3,489z M158,304.4
	h-41.4V265H158V304.4z M158.1,490.9c-31-2.9-41.5-21.7-41.5-43.5V326.9H158V491L158.1,490.9z M651.6,487.4
	c-31-3-41.4-21.7-41.4-43.4V259.5h41.4V487.4L651.6,487.4L651.6,487.4z M796.5,286.1C759,103,403.4,91.4,174.3,230.9v15.4
	c228.8-117.6,553.5-116.9,583,51.7c9.9,55.8-21.5,113.9-77.6,147.4v43.7C747.2,464.3,816.6,384.2,796.5,286.1L796.5,286.1z
	 M379.9,606.5C221.9,621.1,57.1,598.1,34,474.6C22.8,413.7,50.6,349.1,87.3,309v-21.4C21.1,345.7-14.9,419.2,5.8,506.1
	c26.4,111.5,167.8,174.6,383.6,153.6c85.4-8.3,197.2-35.8,274.9-78.5v-60.5C593.8,562.8,477.1,597.5,379.9,606.5L379.9,606.5z"/>
</svg>
