<?xml version="1.0" encoding="utf-8"?>
<!-- Generator: Adobe Illustrator 25.2.1, SVG Export Plug-In . SVG Version: 6.00 Build 0)  -->
<svg version="1.1"
	 id="svg2" xmlns:cc="http://creativecommons.org/ns#" xmlns:dc="http://purl.org/dc/elements/1.1/" xmlns:rdf="http://www.w3.org/1999/02/22-rdf-syntax-ns#" xmlns:svg="http://www.w3.org/2000/svg"
	 xmlns="http://www.w3.org/2000/svg" xmlns:xlink="http://www.w3.org/1999/xlink" x="0px" y="0px" viewBox="0 0 560 560"
	 style="enable-background:new 0 0 560 560;" xml:space="preserve">
<style type="text/css">
	.st0{fill:#FFFFFF;}
</style>
<g id="layer2" transform="matrix(0.89669045,0,0,0.89669045,-56.367701,-79.22765)">
	<path id="path3033" class="st0" d="M196.9,362.3c-4.9,0-9,1.7-12.3,5c-3.3,3.3-4.9,7.6-4.9,12.8c0,4.8,1.6,8.8,4.7,11.9
		c3.2,3.1,7.1,4.7,11.8,4.7c5.5,0,9.8-1.7,12.9-5.1c3.1-3.4,4.7-7.5,4.7-12.5s-1.6-9-5-12.2C205.6,363.9,201.6,362.3,196.9,362.3z
		 M196.3,363.8c8.1-0.1,14.2,9.2,14.2,16.6c0,9.9-5.9,14.4-12.7,14.7c-7.8,0.3-14.5-6.9-14.8-16.1
		C182.8,371.3,186.6,363.9,196.3,363.8z"/>
	<path id="text3006" class="st0" d="M333.4,391.1c-0.5,0-0.9,0.7-1.3,1c-0.3,0.4-0.9,0.7-0.9,1.2s0.5,1,0.9,1.3
		c0.4,0.3,0.9,0.9,1.4,0.9s0.9-0.6,1.2-0.9c0.4-0.4,1-0.8,1-1.3s-0.6-0.9-1-1.3C334.4,391.8,333.9,391.1,333.4,391.1L333.4,391.1z"
		/>
	<rect id="rect3081" x="184.4" y="408.6" class="st0" width="400.8" height="1.8"/>
	<path id="path3083" class="st0" d="M68.4,433.3c0,0,6.8-0.3,9,0.4c2.9,0.8,3.7,2.7,3.8,5.1c0,3.6-3.1,4.7-5.7,4.8
		c-1,0.1-1.5,0-1.9-0.2c0.7-0.1,1.1-0.1,2.1-0.4c2.7-0.8,4.3-2.1,4-4.6c-0.3-2.4-2.4-3.3-3.8-3.4c-1.4-0.1-3.6,0.1-3.6,0.1V450
		c0,0,0.9,0.8,1.6,1.1c0.7,0.3,1,0.6,1,0.9c0,0.2-1.7-0.1-3.2,0c-1.5,0-3.2,0.3-3.2,0c0-0.4,0.4-0.6,0.8-0.9c0.4-0.2,1-0.5,1.2-0.9
		v-15C70.3,434.5,68.6,434.1,68.4,433.3L68.4,433.3z"/>
	<path id="path3083-7" class="st0" d="M92.1,433.3c-2.5,0-5.2-0.1-5.2-0.1c0.1,0.8,1.9,1.2,2.1,1.7v15c-0.1,0.4-0.7,0.7-1.2,0.9
		c-0.4,0.2-0.9,0.5-0.8,0.9c0,0.2,1.7,0,3.2,0c1.5,0,3.1,0.2,3.2,0c0-0.3-0.3-0.6-1-0.9s-1.7-1.1-1.7-1.1v-7
		c0.8,0.1,1.8,0.1,2.3,0.1c0.3,0,0.6,0,0.9-0.1c0.1,0.2,5.7,8.1,6.2,8.7c0.6,0.5,1.1,0.4,1.1,0.4h2c0,0-0.2-0.7-0.8-0.8
		c-1.6-0.3-1.6-0.9-3.2-3.2c-1.5-2-3.2-4.9-3.5-5.5c1.8-0.5,3.4-1.5,3.4-3.9s-0.7-4.3-3.2-5C95,433.4,93.6,433.3,92.1,433.3z
		 M93.1,434.8c0.4,0,0.8,0,1.2,0c1.5,0.1,2.9,1,3.3,3.3c0.3,2.2-1.3,3.5-4,3.8c-1.2,0.2-2.2,0.1-2.8,0.1v-7.2
		C90.7,434.9,91.9,434.8,93.1,434.8L93.1,434.8z"/>
	<path id="path3083-9" class="st0" d="M108.4,433.3c0.1,0.8,1.6,1.2,1.8,1.7v15c-0.1,0.4-0.4,0.7-0.9,0.9c-0.4,0.2-0.8,0.5-0.8,0.9
		c0,0.2,1.3,0.2,2.8,0.2c0.8,0.1,0.6-0.4,0.6-0.6v-18C110.7,433.4,109.6,433.2,108.4,433.3z"/>
	<path id="path3129" class="st0" d="M111.7,442h6.2c0,0,0.4-1,0.5-1.1s0.5-0.9,0.6-0.5c0.1,0.3-0.1,1.2-0.1,2.2s0.2,2,0.1,2.2
		c-0.3,0.3-0.4-0.2-0.6-0.5c-0.1-0.2-0.5-1.3-0.5-1.3h-6.3L111.7,442z"/>
	<path id="path3131" class="st0" d="M121.5,448.8c-0.1,0-0.1,0-0.2,0.1c-0.2,0.2-1.8,2-3,2.1c-0.5,0-5.5,0.1-5.9,0s-0.7-0.6-0.7-0.6
		l-1.2,1.4c0.1,0,0.2,0,0.3,0.1c0.3,0,0.5,0,0.8,0.1h8c0.4,0,1.8-1.8,1.9-2.5C121.7,449,121.7,448.7,121.5,448.8L121.5,448.8z"/>
	<path id="path3138" class="st0" d="M110.8,433.6c0,0,0-0.2,1.2-0.3h8.1c0,0,0.4,1.2,0.6,2c0.2,0.7,0.3,1.7,0.1,1.6
		c-0.2,0-0.9-1.7-1.7-2.2c-0.3-0.2-0.7-0.4-1-0.4H113c-0.7,0-1.2,0.4-1.4,0.8L110.8,433.6z"/>
	<path id="path3083-9-3" class="st0" d="M146.4,433.4c0.1,0.8,1.6,1.1,1.8,1.6v15c-0.1,0.4-0.4,0.7-0.8,0.9
		c-0.4,0.2-0.8,0.5-0.8,0.9c0,0.2,0.9,0.2,2.1,0.2c0.3,0,0.5,0,0.8,0c0.1,0,0.2,0,0.2,0c1.2,0,2.1,0,2.1-0.2c0-0.4-0.4-0.7-0.8-0.9
		c-0.4-0.2-0.8-0.5-0.9-0.9v-15c0.2-0.5,1.7-0.8,1.8-1.6c-1.1-0.1-1.8,0.1-2.8,0C148.2,433.4,147.2,433.3,146.4,433.4z"/>
	<path id="path3083-9-4" class="st0" d="M181.4,433.3c0.1,0.8,1.6,1.2,1.8,1.7v15c-0.1,0.4-0.4,0.7-0.9,0.9
		c-0.4,0.2-0.8,0.5-0.8,0.9c0,0.2,1.3,0.2,2.8,0.2c0.8,0.1,0.6-0.4,0.6-0.6v-18C183.7,433.4,182.7,433.2,181.4,433.3z"/>
	<path id="path3129-3" class="st0" d="M184.8,442h6.2c0,0,0.4-1,0.5-1.1s0.5-0.9,0.6-0.5c0.1,0.3-0.1,1.2-0.1,2.2s0.2,2,0.1,2.2
		c-0.3,0.3-0.4-0.2-0.6-0.5c-0.1-0.2-0.5-1.3-0.5-1.3h-6.3L184.8,442z"/>
	<path id="path3131-6" class="st0" d="M194.6,448.8c-0.1,0-0.1,0-0.2,0.1c-0.2,0.2-1.8,2-3,2.1c-0.5,0-5.5,0.1-5.9,0
		s-0.7-0.6-0.7-0.6l-1.2,1.4c0.1,0,0.2,0,0.3,0.1c0.3,0,0.5,0,0.8,0.1h8c0.4,0,1.8-1.8,1.9-2.5C194.7,449,194.8,448.7,194.6,448.8
		L194.6,448.8z"/>
	<path id="path3138-1" class="st0" d="M183.8,433.6c0,0,0-0.2,1.2-0.3h8.1c0,0,0.4,1.2,0.6,2c0.2,0.7,0.3,1.7,0.1,1.6
		c-0.2,0-0.9-1.7-1.7-2.2c-0.3-0.2-0.7-0.4-1-0.4H186c-0.7,0-1.2,0.4-1.4,0.8L183.8,433.6z"/>
	<path id="path3083-9-4-4" class="st0" d="M617.1,433.3c0.1,0.8,1.6,1.2,1.8,1.7v15c-0.1,0.4-0.4,0.7-0.9,0.9
		c-0.4,0.2-0.8,0.5-0.8,0.9c0,0.2,1.3,0.2,2.8,0.2c0.8,0.1,0.6-0.4,0.6-0.6v-18C619.4,433.4,618.3,433.2,617.1,433.3z"/>
	<path id="path3129-3-9" class="st0" d="M620.4,442h6.2c0,0,0.4-1,0.5-1.1s0.5-0.9,0.6-0.5c0.1,0.3-0.1,1.2-0.1,2.2s0.2,2,0.1,2.2
		c-0.3,0.3-0.4-0.2-0.6-0.5c-0.1-0.2-0.5-1.3-0.5-1.3h-6.3L620.4,442z"/>
	<path id="path3131-6-4" class="st0" d="M630.2,448.8c-0.1,0-0.1,0-0.2,0.1c-0.2,0.2-1.8,2-3,2.1c-0.5,0-5.5,0.1-5.9,0
		s-0.7-0.6-0.7-0.6l-1.2,1.4c0.1,0,0.2,0,0.3,0.1c0.3,0,0.5,0,0.8,0.1h8c0.4,0,1.8-1.8,1.9-2.5C630.3,449,630.4,448.7,630.2,448.8
		L630.2,448.8z"/>
	<path id="path3138-1-0" class="st0" d="M619.4,433.6c0,0,0-0.2,1.2-0.3h8.1c0,0,0.4,1.2,0.6,2c0.2,0.7,0.3,1.7,0.1,1.6
		c-0.2,0-0.9-1.7-1.7-2.2c-0.3-0.2-0.7-0.4-1-0.4h-5.1c-0.7,0-1.2,0.4-1.4,0.8L619.4,433.6z"/>
	<path id="path3083-7-3" class="st0" d="M415.9,433.3c-2.5,0-5.2-0.1-5.2-0.1c0.1,0.8,1.9,1.2,2.1,1.7v15c-0.1,0.4-0.7,0.7-1.2,0.9
		c-0.4,0.2-0.9,0.5-0.8,0.9c0,0.2,1.7,0,3.2,0s3.1,0.2,3.2,0c0-0.3-0.3-0.6-1-0.9c-0.7-0.3-1.7-1.1-1.7-1.1v-7
		c0.8,0.1,1.8,0.1,2.3,0.1c0.3,0,0.6,0,0.9-0.1c0.1,0.2,5.7,8.1,6.2,8.7c0.6,0.5,1.1,0.4,1.1,0.4h2c0,0-0.2-0.7-0.8-0.8
		c-1.6-0.3-1.6-0.9-3.2-3.2c-1.5-2-3.2-4.9-3.5-5.5c1.8-0.5,3.4-1.5,3.4-3.9s-0.7-4.3-3.2-5C418.9,433.4,417.4,433.3,415.9,433.3z
		 M417,434.8c0.4,0,0.8,0,1.2,0c1.5,0.1,2.9,1,3.3,3.3c0.3,2.2-1.3,3.5-4,3.8c-1.2,0.2-2.2,0.1-2.8,0.1v-7.2
		C414.5,434.9,415.7,434.8,417,434.8L417,434.8z"/>
	<path id="path3083-7-3-4" class="st0" d="M369.3,433.3c-2.5,0-5.2-0.1-5.2-0.1c0.1,0.8,1.9,1.2,2.1,1.7v15
		c-0.1,0.4-0.7,0.7-1.2,0.9c-0.4,0.2-0.9,0.5-0.8,0.9c0,0.2,1.7,0,3.2,0s3.1,0.2,3.2,0c0-0.3-0.3-0.6-1-0.9s-1.7-1.1-1.7-1.1v-7
		c0.8,0.1,1.8,0.1,2.3,0.1c0.3,0,0.6,0,0.9-0.1c0.1,0.2,5.7,8.1,6.2,8.7c0.6,0.5,1.1,0.4,1.1,0.4h2c0,0-0.2-0.7-0.8-0.8
		c-1.6-0.3-1.6-0.9-3.2-3.2c-1.5-2-3.2-4.9-3.5-5.5c1.8-0.5,3.4-1.5,3.4-3.9s-0.7-4.3-3.2-5C372.3,433.4,370.8,433.3,369.3,433.3z
		 M370.4,434.8c0.4,0,0.8,0,1.2,0c1.5,0.1,2.9,1,3.3,3.3c0.3,2.2-1.3,3.5-4,3.8c-1.2,0.2-2.2,0.1-2.8,0.1v-7.2
		C367.9,434.9,369.1,434.8,370.4,434.8L370.4,434.8z"/>
	<path id="path3083-9-3-5" class="st0" d="M246.8,433.4c0.1,0.8,1.6,1.1,1.8,1.6v15c-0.1,0.4-0.4,0.7-0.8,0.9
		c-0.4,0.2-0.8,0.5-0.8,0.9c0,0.2,0.9,0.2,2.1,0.2c0.3,0,0.5,0,0.8,0c0.1,0,0.2,0,0.2,0c1.2,0,2.1,0,2.1-0.2c0-0.4-0.4-0.7-0.8-0.9
		c-0.4-0.2-0.8-0.5-0.9-0.9v-15c0.2-0.5,1.7-0.8,1.8-1.6c-1.1-0.1-1.8,0.1-2.8,0C248.6,433.4,247.6,433.3,246.8,433.4z"/>
	<path id="path3083-9-3-0" class="st0" d="M332.4,433.4c0.1,0.8,1.6,1.1,1.8,1.6v15c-0.1,0.4-0.4,0.7-0.8,0.9
		c-0.4,0.2-0.8,0.5-0.8,0.9c0,0.2,0.9,0.2,2.1,0.2c0.3,0,0.5,0,0.8,0c0.1,0,0.2,0,0.2,0c1.2,0,2.1,0,2.1-0.2c0-0.4-0.4-0.7-0.8-0.9
		c-0.4-0.2-0.8-0.5-0.9-0.9v-15c0.2-0.5,1.7-0.8,1.8-1.6c-1.1-0.1-1.8,0.1-2.8,0C334.2,433.4,333.2,433.3,332.4,433.4z"/>
	<path id="path3083-9-5" class="st0" d="M159.1,433.3c0.1,0.8,1.6,1.2,1.8,1.7v15c-0.1,0.4-0.4,0.7-0.9,0.9
		c-0.4,0.2-0.8,0.5-0.8,0.9c0,0.2,1.3,0.2,2.8,0.2c0.8,0.1,0.6-0.4,0.6-0.6v-18C161.4,433.4,160.3,433.2,159.1,433.3z"/>
	<path id="path3324" class="st0" d="M162,433.4c0,0,3.3-0.1,4.9,0c0.8,0,3.2,0.1,5.9,2.5c4.5,3.9,3.4,11,0.7,13.6
		c-1.7,1.6-3.9,2.4-6.4,2.5c-2.3,0-5.8,0-5.8,0l1-2c0,0,0.6,0.7,1.4,0.9c1.8,0.5,7.1,0.7,9.1-2.1c2-2.8,2.5-8.5-0.7-11.8
		c-2.5-2.5-5.2-2.4-7.6-2.4c-1.1,0-2.5,0.8-2.5,0.8L162,433.4z"/>
	<path id="path3083-9-5-7" class="st0" d="M513.4,433.3c0.1,0.8,1.6,1.2,1.8,1.7v15c-0.1,0.4-0.4,0.7-0.9,0.9
		c-0.4,0.2-0.8,0.5-0.8,0.9c0,0.2,1.3,0.2,2.8,0.2c0.8,0.1,0.6-0.4,0.6-0.6v-18C515.7,433.4,514.6,433.2,513.4,433.3z"/>
	<path id="path3324-5" class="st0" d="M516.3,433.4c0,0,3.3-0.1,4.9,0c0.8,0,3.2,0.1,5.9,2.5c4.5,3.9,3.4,11,0.7,13.6
		c-1.7,1.6-3.9,2.4-6.4,2.5c-2.3,0-5.8,0-5.8,0l1-2c0,0,0.6,0.7,1.4,0.9c1.8,0.5,7.1,0.7,9.1-2.1c2-2.8,2.5-8.5-0.7-11.8
		c-2.5-2.5-5.2-2.4-7.6-2.4c-1.1,0-2.5,0.8-2.5,0.8L516.3,433.4z"/>
	<path id="path3083-9-3-5-3" class="st0" d="M283.7,433.4c0.1,0.8,1.6,1.1,1.8,1.6v15c-0.1,0.4-0.4,0.7-0.8,0.9
		c-0.4,0.2-0.8,0.5-0.8,0.9c0,0.2,0.9,0.2,2.1,0.2c0.3,0,0.5,0,0.8,0c0.1,0,0.2,0,0.2,0c1.2,0,2.1,0,2.1-0.2c0-0.4-0.4-0.7-0.8-0.9
		c-0.4-0.2-0.8-0.5-0.9-0.9v-15c0.2-0.5,1.7-0.8,1.8-1.6c-1.1-0.1-1.8,0.1-2.8,0C285.5,433.4,284.5,433.3,283.7,433.4z"/>
	<path id="path3131-6-5" class="st0" d="M296.6,448.8c-0.1,0-0.1,0-0.2,0.1c-0.2,0.2-1.8,2-3,2.1c-0.5,0-5.5,0.1-5.9,0
		s-0.7-0.6-0.7-0.6l-1.2,1.4c0.1,0,0.2,0,0.3,0.1c0.3,0,0.5,0,0.8,0.1h8c0.4,0,1.8-1.8,1.9-2.5C296.7,449,296.8,448.7,296.6,448.8
		L296.6,448.8z"/>
	<path id="path3083-9-3-5-3-4" class="st0" d="M313.2,433.4c0.1,0.8,1.6,1.1,1.8,1.6v15c-0.1,0.4-0.4,0.7-0.8,0.9
		c-0.4,0.2-0.8,0.5-0.8,0.9c0,0.2,0.9,0.2,2.1,0.2c0.3,0,0.5,0,0.8,0c0.1,0,0.2,0,0.2,0c1.2,0,2.1,0,2.1-0.2c0-0.4-0.4-0.7-0.8-0.9
		c-0.4-0.2-0.8-0.5-0.9-0.9v-15c0.2-0.5,1.7-0.8,1.8-1.6c-1.1-0.1-1.8,0.1-2.8,0C315,433.4,314,433.3,313.2,433.4z"/>
	<path id="path3131-6-5-3" class="st0" d="M326.1,448.8c-0.1,0-0.1,0-0.2,0.1c-0.2,0.2-1.8,2-3,2.1c-0.5,0-5.5,0.1-5.9,0
		s-0.7-0.6-0.7-0.6l-1.2,1.4c0.1,0,0.2,0,0.3,0.1c0.3,0,0.5,0,0.8,0.1h8c0.4,0,1.8-1.8,1.9-2.5C326.2,449,326.3,448.7,326.1,448.8
		L326.1,448.8z"/>
	<path id="path3404" class="st0" d="M139.1,437.7c0.1-0.6,0.1-1.8-0.1-3.4c0,0-2.1-1.1-5.8-1.1c-3.2-0.1-5.8,2.4-4.7,6.4
		c1.3,5,9.7,3.6,10.1,7.3c0.4,3.7-4.4,5-7,4.2c-3-0.9-4.3-4.4-4.3-4.4c-0.8-0.2-0.4,2.4-0.1,3.6c0,0,1.3,1.3,4.3,1.7
		c1.8,0.2,8.7,0.5,8.5-5.4c-0.2-5.8-8.4-4.4-10-7.8c-1.6-3.3,0.6-4.8,3.1-4.9C138.2,433.8,138.1,437.4,139.1,437.7L139.1,437.7
		L139.1,437.7z"/>
	<path id="path3404-8" class="st0" d="M609.9,437.7c0.1-0.6,0.1-1.8-0.1-3.4c0,0-2.1-1.1-5.8-1.1c-3.2-0.1-5.8,2.4-4.7,6.4
		c1.3,5,9.7,3.6,10.1,7.3c0.4,3.7-4.4,5-7,4.2c-3-0.9-4.3-4.4-4.3-4.4c-0.8-0.2-0.4,2.4-0.1,3.6c0,0,1.3,1.3,4.3,1.7
		c1.8,0.2,8.7,0.5,8.5-5.4c-0.2-5.8-8.4-4.4-10-7.8c-1.6-3.3,0.6-4.8,3.1-4.9C609.1,433.8,608.9,437.4,609.9,437.7L609.9,437.7z"/>
	<path id="path3083-9-3-5-1" class="st0" d="M224.9,433.6c0,0-0.4,1.2-0.6,2c-0.2,0.7-0.3,1.7-0.1,1.7s0.9-1.7,1.7-2.2
		c0.3-0.2,0.7-0.4,1-0.4h3.8c0.4,0.3,0.9,0.5,1,0.8V450c-0.1,0.4-0.4,0.7-0.8,0.9c-0.4,0.2-0.8,0.5-0.8,0.9c0,0.2,0.9,0.2,2.1,0.2
		c0.3,0,0.5,0,0.8,0c0.1,0,0.2,0,0.2,0c1.2,0,2.1,0,2.1-0.2c0-0.4-0.4-0.7-0.8-0.9c-0.4-0.2-0.8-0.5-0.9-0.9v-14.7
		c0.1-0.3,0.6-0.5,1-0.8h3.6c0.3,0,0.7,0.2,1,0.4c0.8,0.5,1.5,2.2,1.7,2.2c0.2,0,0.1-0.9-0.1-1.7c-0.2-0.7-0.6-2-0.6-2h-7.9h-7.4
		V433.6z"/>
	<path id="path3083-9-3-5-18" class="st0" d="M213,433.4c0.1,0.8,2.6,1.1,2.8,1.6v15c-0.2,1.6,0.5,1.7,1.3,2v-17
		c0.2-0.5,1.7-0.8,1.8-1.6c-1.1-0.1-1.8,0.1-2.8,0C215.2,433.4,213.8,433.3,213,433.4z"/>
	<path id="path3083-9-3-5-2" class="st0" d="M199.1,433.4c0.7,0.8,2.4,1.5,2.9,1.6v15c-0.1,0.4-0.7,0.7-1.2,0.9
		c-0.4,0.2-0.8,0.5-0.8,0.9c0,0.2,0.9,0.2,2.1,0.2c0.3,0,0.5,0,0.8,0c0.1,0,0.2,0,0.2,0c1.2,0,2.1,0,2.1-0.2c0-0.4-0.4-0.7-0.8-0.9
		c-0.4-0.2-1-0.5-1.1-0.9v-15c-1.1-0.9-1.6-1.3-2.2-1.6C200.3,433.3,200,433.3,199.1,433.4L199.1,433.4z"/>
	<path id="path3517" class="st0" d="M202.1,433.3c1.1,0.6,12.4,14.9,13.8,15.1l1,3.6c-1.5,0.5-15.2-16.6-15.7-17.2
		c-0.7-0.9-2.2-1.3-2.2-1.3C199.8,433.3,200.7,433.3,202.1,433.3L202.1,433.3z"/>
	<path id="path3083-9-3-5-18-4" class="st0" d="M501,433.4c0.1,0.8,2.6,1.1,2.8,1.6v15c-0.2,1.6,0.5,1.7,1.3,2v-17
		c0.2-0.5,1.7-0.8,1.8-1.6c-1.1-0.1-1.8,0.1-2.8,0C503.2,433.4,501.9,433.3,501,433.4z"/>
	<path id="path3083-9-3-5-2-5" class="st0" d="M487.2,433.4c0.7,0.8,2.4,1.5,2.9,1.6v15c-0.1,0.4-0.7,0.7-1.2,0.9
		c-0.4,0.2-0.8,0.5-0.8,0.9c0,0.2,0.9,0.2,2.1,0.2c0.3,0,0.5,0,0.8,0c0.1,0,0.2,0,0.2,0c1.2,0,2.1,0,2.1-0.2c0-0.4-0.4-0.7-0.8-0.9
		c-0.4-0.2-1-0.5-1.1-0.9v-15c-1.1-0.9-1.6-1.3-2.2-1.6C488.3,433.3,488,433.3,487.2,433.4L487.2,433.4z"/>
	<path id="path3517-8" class="st0" d="M490.2,433.3c1.1,0.6,12.4,14.9,13.8,15.1l1,3.6c-1.5,0.5-15.2-16.6-15.7-17.2
		c-0.7-0.9-2.2-1.3-2.2-1.3C487.9,433.3,488.8,433.3,490.2,433.3L490.2,433.3z"/>
	<path id="path3083-4" class="st0" d="M268.5,433.1l-0.8,1.7L274,450v0.8c-0.2,0-0.9,0.1-1.1,0.2c-0.5,0.2-0.6,0.4-0.6,0.8
		c0,0.2,1.7,0,3.2,0s3.1,0.2,3.2,0c0-0.3-0.2-0.5-0.9-0.7c-1.7-0.5-1.9-1.2-1.9-1.2l-7-16.3C268.8,433.4,268.7,433.2,268.5,433.1z"
		/>
	<path id="path3083-9-3-5-9" class="st0" d="M268.4,433.3l-8.1,16.7c-0.3,0.5-0.4,0.7-0.8,0.9c-0.4,0.2-0.8,0.5-0.8,0.9
		c0,0.2,0.9,0.2,2.1,0.2c0.3,0,0.5,0,0.8,0c0.1,0,0.2,0,0.2,0c1.2,0,2.1,0,2.1-0.2c0-0.4-0.3-0.7-0.8-0.9c-0.5-0.2-0.9,0-1-0.5
		c-0.1-0.4,0-1.1,0-1.4l6.8-14.6C268.6,433.9,268.6,433.7,268.4,433.3L268.4,433.3z"/>
	<path id="path3658" class="st0" d="M263.5,444.9h9l-1.2-2.3c-0.2,0.4,0.2,1.2-0.5,1.3h-5.7c-0.6-0.3-0.3-0.8-0.5-1.2L263.5,444.9z"
		/>
	<path id="path3083-4-8" class="st0" d="M395.5,433.1l-0.8,1.7L401,450v0.8c-0.2,0-0.9,0.1-1.1,0.2c-0.5,0.2-0.6,0.4-0.6,0.8
		c0,0.2,1.7,0,3.2,0s3.1,0.2,3.2,0c0-0.3-0.2-0.5-0.9-0.7c-1.7-0.5-1.9-1.2-1.9-1.2l-7-16.3C395.8,433.4,395.7,433.2,395.5,433.1z"
		/>
	<path id="path3083-9-3-5-9-4" class="st0" d="M395.4,433.3l-8.1,16.7c-0.3,0.5-0.4,0.7-0.8,0.9c-0.4,0.2-0.8,0.5-0.8,0.9
		c0,0.2,0.9,0.2,2.1,0.2c0.3,0,0.5,0,0.8,0c0.1,0,0.2,0,0.2,0c1.2,0,2.1,0,2.1-0.2c0-0.4-0.3-0.7-0.8-0.9c-0.5-0.2-0.9,0-1-0.5
		c-0.1-0.4,0-1.1,0-1.4l6.8-14.6C395.6,433.9,395.6,433.7,395.4,433.3L395.4,433.3z"/>
	<path id="path3658-5" class="st0" d="M390.5,444.9h9l-1.2-2.3c-0.2,0.4,0.2,1.2-0.5,1.3h-5.7c-0.6-0.3-0.3-0.8-0.5-1.2L390.5,444.9
		z"/>
	<path id="path3083-4-8-7" class="st0" d="M473,433.1l-0.8,1.7l6.3,15.2v0.8c-0.2,0-0.9,0.1-1.1,0.2c-0.5,0.2-0.6,0.4-0.6,0.8
		c0,0.2,1.7,0,3.2,0c1.5,0,3.1,0.2,3.2,0c0-0.3-0.2-0.5-0.9-0.7c-1.7-0.5-1.9-1.2-1.9-1.2l-7-16.3
		C473.3,433.4,473.2,433.2,473,433.1z"/>
	<path id="path3083-9-3-5-9-4-6" class="st0" d="M472.9,433.3l-8.1,16.7c-0.3,0.5-0.4,0.7-0.8,0.9c-0.4,0.2-0.8,0.5-0.8,0.9
		c0,0.2,0.9,0.2,2.1,0.2c0.3,0,0.5,0,0.8,0c0.1,0,0.2,0,0.2,0c1.2,0,2.1,0,2.1-0.2c0-0.4-0.3-0.7-0.8-0.9c-0.5-0.2-0.9,0-1-0.5
		c-0.1-0.4,0-1.1,0-1.4l6.8-14.6C473.2,433.9,473.1,433.7,472.9,433.3L472.9,433.3z"/>
	<path id="path3658-5-0" class="st0" d="M468,444.9h9l-1.2-2.3c-0.2,0.4,0.2,1.2-0.5,1.3h-5.7c-0.6-0.3-0.3-0.8-0.5-1.2L468,444.9z"
		/>
	<path id="path3083-41" class="st0" d="M345,433.3c0,0,6.2-0.3,8.4,0.3c2.9,0.8,3.6,2.5,3.6,4.8c0,3.6-5.8,3.7-8.1,3.7
		c-1,0-1.4-0.1-1.1-0.5c-0.2-0.8,1.4-0.3,2.4-0.3c2.9,0.1,5.7-0.7,5.4-3.2c-0.3-2.4-2.3-3.1-3.8-3.2c-1.5-0.1-3,0.2-3,0.2V450
		c0.9,1.6,1.8,0.8,2.6,1.9c0,0.2-1.7-0.1-3.2,0c-1.5,0-3.2,0.3-3.2,0c0-0.4,0.4-0.6,0.8-0.9c0.4-0.2,1-0.5,1.2-0.9v-15
		C346.9,434.5,345.1,434.1,345,433.3L345,433.3z"/>
	<path id="path3726" class="st0" d="M348.6,442.6c0,0,0.4-0.5,1.9-0.5c2.6,0.1,6.6,0.1,6.8,4.6c0.3,5.6-6.8,4.2-7.9,4.2
		s-1.6-0.7-1.6-0.7l1.6,1.4c2.4,0.3,9.3,0.9,9.5-5.1c0.1-3.4-2.7-5.3-5.8-5.1l-4.8,0.6L348.6,442.6z"/>
	<path id="path3083-9-3-0-3" class="st0" d="M440.5,441.7l-0.8,0.7l-1-0.6v8.3c-0.1,0.4-0.4,0.7-0.8,0.9c-0.4,0.2-0.8,0.5-0.8,0.9
		c0,0.2,0.9,0.2,2.1,0.2c0.3,0,0.5,0,0.8,0c0.1,0,0.2,0,0.2,0c1.2,0,2.1,0,2.1-0.2c0-0.4-0.4-0.7-0.8-0.9c-0.4-0.2-0.8-0.5-0.9-0.9
		v-8.4H440.5z"/>
	<path id="path3083-9-3-0-3-2" class="st0" d="M431.7,433.3c0.1,0.8,1.6,1.1,1.8,1.7l5.7,8.5h1v-1.1h0.2l-5-7.4
		c0.2-0.5,1.4-0.8,1.6-1.6c-1.1-0.1-1.6,0-2.5,0C433.5,433.4,432.5,433.3,431.7,433.3z"/>
	<path id="path3083-9-3-0-3-2-7" class="st0" d="M442.6,433.4c0.1,0.8,1.6,0.6,1.6,1.8l-4.9,7.3l1.2-0.2l4.9-7.3
		c0.2-0.5,1.3-0.8,1.5-1.6c-1.1-0.1-1.5,0-2.4,0C443.6,433.4,443.4,433.3,442.6,433.4L442.6,433.4z"/>
	<path id="path3083-9-3-5-2-5-8" class="st0" d="M546,433.3c0.7,0.8,1.5,1.6,2,1.7v15c-0.1,0.4-0.7,0.7-1.2,0.9
		c-0.4,0.2-0.8,0.5-0.8,0.9c0,0.2,0.9,0.2,2.1,0.2c0.3,0,0.5,0,0.8,0c0.1,0,0.2,0,0.2,0c1.2,0,2.1,0,2.1-0.2c0-0.4-0.4-0.7-0.8-0.9
		c-0.4-0.2-1-0.5-1.1-0.9v-15c-1.1-0.9-0.9-1.3-1.5-1.7C546.9,433.3,546.9,433.2,546,433.3L546,433.3z"/>
	<path id="path3083-9-3-5-2-5-8-9" class="st0" d="M564.7,433.3c0,0.3-0.1,0.7-0.6,1.7v15c-0.1,0.4-0.7,0.7-1.2,0.9
		c-0.4,0.2-0.8,0.5-0.8,0.9c0,0.2,0.9,0.2,2.1,0.2c0.3,0,0.5,0,0.8,0c0.1,0,0.2,0,0.2,0c1.2,0,2.1,0,2.1-0.2c0-0.4-0.4-0.7-0.8-0.9
		c-0.4-0.2-1-0.5-1.1-0.9v-15c0.6-1.1,1.1-1.4,0.5-1.8L564.7,433.3z"/>
	<path id="path3517-8-3" class="st0" d="M547.6,433.2c-0.5,0-1,0.1-1.3,0.1c0,0,0.3,0.4,1.2,1.6c2.5,3.9,7.2,15.1,8.9,16.5
		c0,0,7.7-14.8,8.9-16.2c1.2-1.5,2.4-1.9,2.4-1.9s-2.4-0.2-2.9,0c-0.5,0.2-7.9,14.4-8.2,15c-0.7-0.8-6.2-13-7.4-15
		C548.7,433.2,548.1,433.2,547.6,433.2L547.6,433.2z"/>
	<path id="path3083-9-3-5-2-5-8-1" class="st0" d="M660.1,433.3c0.7,0.8,1.5,1.6,2,1.7v15c-0.1,0.4-0.7,0.7-1.2,0.9
		c-0.4,0.2-0.8,0.5-0.8,0.9c0,0.2,0.9,0.2,2.1,0.2c0.3,0,0.5,0,0.8,0c0.1,0,0.2,0,0.2,0c1.2,0,2.1,0,2.1-0.2c0-0.4-0.4-0.7-0.8-0.9
		c-0.4-0.2-1-0.5-1.1-0.9v-15c-1.1-0.9-0.9-1.3-1.5-1.7C661.1,433.3,661,433.2,660.1,433.3L660.1,433.3z"/>
	<path id="path3083-9-3-5-2-5-8-9-4" class="st0" d="M678.9,433.3c0,0.3-0.1,0.7-0.6,1.7v15c-0.1,0.4-0.7,0.7-1.2,0.9
		c-0.4,0.2-0.8,0.5-0.8,0.9c0,0.2,0.9,0.2,2.1,0.2c0.3,0,0.5,0,0.8,0c0.1,0,0.2,0,0.2,0c1.2,0,2.1,0,2.1-0.2c0-0.4-0.4-0.7-0.8-0.9
		c-0.4-0.2-1-0.5-1.1-0.9v-15c0.6-1.1,1.1-1.4,0.5-1.8L678.9,433.3z"/>
	<path id="path3517-8-3-5" class="st0" d="M661.7,433.2c-0.5,0-1,0.1-1.3,0.1c0,0,0.3,0.4,1.2,1.6c2.5,3.9,7.2,15.1,8.9,16.5
		c0,0,7.7-14.8,8.9-16.2c1.2-1.5,2.4-1.9,2.4-1.9s-2.4-0.2-2.9,0c-0.5,0.2-7.9,14.4-8.2,15c-0.7-0.8-6.2-13-7.4-15
		C662.8,433.2,662.3,433.2,661.7,433.2L661.7,433.2z"/>
	<path id="path3083-9-3-0-1" class="st0" d="M574.1,433.3c-0.4,0-0.6,0.1-0.6,0.2c0,0.4,0.4,0.7,0.8,0.9c0.3,0.2,0.5,0.4,0.7,0.6v11
		c0,7.9,15.7,8.7,15.7,0v-10.8v-0.1c0.2-0.5,1.8-0.9,1.9-1.7c-1.1-0.1-1.7,0-2.7,0c-0.4,0-0.9,0-1.3-0.1s-0.9,0-1.3,0
		c0.1,0.8,2.2,1.2,2.4,1.7v0.1V446c0,6.8-12.7,6.6-12.7,0v-10.9c0.2-0.3,0.6-0.5,0.9-0.7c0.4-0.2,0.8-0.5,0.8-0.9
		c0-0.2-0.9-0.2-2.1-0.2c-0.1,0-0.2,0-0.2,0c-0.3,0-0.5,0-0.8,0C575,433.3,574.5,433.3,574.1,433.3L574.1,433.3z"/>
	<path id="path3083-9-3-0-1-7" class="st0" d="M636.3,433.4c-0.4,0-0.6,0.1-0.6,0.2c0,0.4,0.4,0.7,0.8,0.9c0.3,0.2,0.5,0.4,0.7,0.6
		v11c0,7.9,15.7,8.7,15.7,0v-10.8v-0.1c0.2-0.5,1.8-0.9,1.9-1.7c-1.1-0.1-1.7,0-2.7,0c-0.4,0-0.9,0-1.3-0.1s-0.9,0-1.3,0
		c0.1,0.8,2.2,1.2,2.4,1.7v0.1V446c0,6.8-12.7,6.6-12.7,0v-10.9c0.2-0.3,0.6-0.5,0.9-0.7c0.4-0.2,0.8-0.5,0.8-0.9
		c0-0.2-0.9-0.2-2.1-0.2c-0.1,0-0.2,0-0.2,0c-0.3,0-0.5,0-0.8,0C637.2,433.4,636.6,433.4,636.3,433.4L636.3,433.4z"/>
	<path id="path4087" class="st0" d="M370.7,370.9l18.4-16.7c0.5-0.5,0.3-1.5-0.1-2.1c-0.7-1.2-2.3-0.8-3.3-1.7
		c-0.3-0.3-0.6-0.8-0.4-1.1c0.4-0.6,4.9-0.2,8.1-0.2c3.6,0,6.9-0.5,7.4,0.1s-0.3,1.5-1,1.7c-1.4,0.5-4.4,1-5.4,1.8l-20.1,18
		l22.2,23.2c0.5,0.5,3.9,0.7,4.4,1.1c0.3,0.2,0.7,0.9,0.3,1c-0.6,0.2-2.7,0-4.9,0c-2.1,0-4.1,0.2-4.3,0l-21.3-22
		c-0.2-0.2-1.4-0.2-1.4-0.1v16.8c0,1.4,0.8,1.8,1.9,2.5c0.9,0.6,2.7,0.8,3.7,1.3c0.6,0.3,1.4,0.7,1,1.2c-0.4,0.6-5.1,0.1-8.5,0.1
		s-7.2,0.6-7.4,0c-0.2-0.6,0.4-0.9,0.9-1.3c0.9-0.8,1.9-0.5,2.7-1.3c0.6-0.6,1.4-1.4,1.4-2.2l-0.2-37.5c0-1.2-1.1-1.4-2.2-1.9
		c-0.8-0.3-2-0.7-2.7-0.9c-0.7-0.2-1-0.9-0.8-1.5s4.4,0.1,7.5,0.1s6.5-0.6,7.1-0.2c0.6,0.4-0.3,1.6-1.1,1.8
		c-1.6,0.4-3.3,1.5-3.3,3.1v17C369.4,371.3,370.4,371.2,370.7,370.9z"/>
	<path id="path4087-9" class="st0" d="M306.1,349c-0.5,0-0.8,0.1-0.8,0.2c-0.2,0.7,0.2,1.3,0.8,1.5c0.7,0.2,1.9,0.6,2.7,0.9
		c1.1,0.5,2.2,0.7,2.2,1.9l0.2,37.5c0,0.8-0.9,1.7-1.4,2.2c-0.8,0.9-1.8,0.6-2.7,1.3c-0.5,0.4-1,0.7-0.9,1.3c0.2,0.7,4,0,7.4,0
		s8.1,0.6,8.5-0.1c0.3-0.6-0.5-0.9-1-1.2c-0.9-0.6-2.7-0.7-3.7-1.3c-1.1-0.7-1.9-1.2-1.9-2.5l0.1-36.9c0-0.6,0.2-1,0.6-1.5
		c0.5-0.3,1.1-0.6,2-0.8c1.5-0.3,6.6-0.4,9.6-0.3c1.6,0.1,3.3,0.5,4.7,1.2c1.1,0.6,1.5,0.7,1.9,1.8c0.4,0.9,0.2,2.2,0.5,3.2
		c0.2,0.5,0.8,1.9,0.9,1.3c0.7-2.6,1.3-9.6,0.3-9.7c-3.3-0.1-4.9,0.1-9.3,0.1c-4.9,0-10.1,0-14.4-0.1
		C310.1,349,307.5,348.9,306.1,349L306.1,349z"/>
	<path id="path4087-9-4" class="st0" d="M173.7,348.9c-1.6,0.1-4,0.3-6.4,0.3c-3.1,0-8.1-0.6-8.2,0c-0.2,0.7,1.1,1.3,1.7,1.5
		c0.7,0.2,1.9,0.6,2.7,0.9c1.1,0.5,2.2,0.7,2.2,1.9l0.4,37.5c0.1,9.7-1.3,15.4-6.2,14.5c-1.7-0.3-2.2-2.3-3-2.2
		c-1.6,0-2.5,6,0.9,5.6c10.7-1.3,12.4-11.4,12.4-19.3l0.1-35.7c0-1.5,1.6-2.6,3.3-3.1c0.7-0.2,1.7-1.3,1.1-1.8
		C174.4,349,174.1,348.9,173.7,348.9z"/>
	<path id="path4154" class="st0" d="M315.5,369.7c0,0,0.4,1.4,1.2,1.4h11c1.5,0,2.5-0.8,3.2-1.9c0.9-1.4,0.7-3.1,1.4-3.3
		c0.4-0.1,0.6,0.2,0.8,0.6c0.4,0.6-0.1,4.1-0.1,6.3c0,2.2,0.4,5.5,0.1,6.2c-0.2,0.4-0.3,0.7-0.7,0.5c-0.7-0.3-0.7-2-1-3
		c-0.4-1.4-1.2-2.7-3.7-2.7h-11.1c-0.7,0-1.1,1.2-1.1,1.2L315.5,369.7z"/>
	<path id="path4087-9-6" class="st0" d="M406.8,363c-0.8,0-1.5,0-2,0c-0.3,0-0.5,0.1-0.6,0.2c-0.1,0.5,0.1,0.9,0.6,1
		c0.5,0.2,1.3,0.4,1.9,0.7c0.8,0.3,1.6,0.5,1.6,1.3l0.1,26.4c0,0.6-0.6,1.2-1,1.6c-0.6,0.6-1.3,0.4-1.9,0.9
		c-0.3,0.3-0.7,0.5-0.6,0.9c0.1,0.5,2.8,0,5.2,0c0.4,0,1.2-0.1,1.6-0.1c0-1.2-0.3-1.9-0.3-3.5l0.1-25.9c0-0.4,0.1-0.7,0.4-1
		c0.3-0.2,0.8-0.4,1.4-0.6c1.1-0.2,4.6-0.3,6.8-0.2c1.1,0,2.3,0.3,3.3,0.9c0.8,0.4,1,0.5,1.4,1.3c0.3,0.6,0.1,1.6,0.3,2.2
		c0.1,0.4,0.6,1.3,0.7,0.9c0.5-1.8,1-6.8,0.2-6.8c-2.4-0.1-3.4,0.1-6.6,0.1c-3.5,0-7.1,0-10.1-0.1C408.4,363,407.5,363,406.8,363
		L406.8,363z"/>
	<path id="path4154-1" class="st0" d="M411.4,377.6c0,0,0.3,1,0.8,1h7.8c1,0,1.7-0.5,2.3-1.3c0.7-1,0.5-2.2,1-2.3
		c0.3-0.1,0.4,0.1,0.6,0.4c0.2,0.4-0.1,2.9-0.1,4.4s0.2,3.9,0,4.4c-0.1,0.3-0.2,0.5-0.5,0.4c-0.5-0.2-0.5-1.4-0.7-2.1
		c-0.3-1-0.9-1.9-2.6-1.9h-7.8c-0.5,0-0.8,0.8-0.8,0.8L411.4,377.6z"/>
	<path id="path4202" class="st0" d="M411.3,391.7c0,0,0.1,2,1,2.5s7,0.5,9.5,0c2.4-0.6,4.7-2.2,5.1-2.6c0.4-0.4,1.4-1.6,1.6-1.6
		c0.7,0,0.4,0.8,0.1,1.3s-0.6,1.3-1.6,2.8c-0.7,1.2-1.6,2-1.9,2.1c-1,0.1-5.5,0-7.7,0c-2.2,0-9.3,0.1-9.3,0.1L411.3,391.7z"/>
	<path id="path4087-9-6-1" class="st0" d="M508.8,363c-0.8,0-1.5,0-2,0c-0.3,0-0.5,0.1-0.6,0.2c-0.1,0.5,0.1,0.9,0.6,1
		c0.5,0.2,1.3,0.4,1.9,0.7c0.8,0.3,1.6,0.5,1.6,1.3l0.1,26.4c0,0.6-0.6,1.2-1,1.6c-0.6,0.6-1.3,0.4-1.9,0.9
		c-0.3,0.3-0.7,0.5-0.6,0.9c0.1,0.5,2.8,0,5.2,0c0.4,0,1.2-0.1,1.6-0.1c0-1.2-0.3-1.9-0.3-3.5l0.1-25.9c0-0.4,0.1-0.7,0.4-1
		c0.3-0.2,0.8-0.4,1.4-0.6c1.1-0.2,4.6-0.3,6.8-0.2c1.1,0,2.3,0.3,3.3,0.9c0.8,0.4,1,0.5,1.4,1.3c0.3,0.6,0.1,1.6,0.3,2.2
		c0.1,0.4,0.6,1.3,0.7,0.9c0.5-1.8,1-6.8,0.2-6.8c-2.4-0.1-3.4,0.1-6.6,0.1c-3.5,0-7.1,0-10.1-0.1C510.5,363,509.6,363,508.8,363
		L508.8,363z"/>
	<path id="path4154-1-3" class="st0" d="M513.4,377.6c0,0,0.3,1,0.8,1h7.8c1,0,1.7-0.5,2.3-1.3c0.7-1,0.5-2.2,1-2.3
		c0.3-0.1,0.4,0.1,0.6,0.4c0.2,0.4-0.1,2.9-0.1,4.4s0.2,3.9,0,4.4c-0.1,0.3-0.2,0.5-0.5,0.4c-0.5-0.2-0.5-1.4-0.7-2.1
		c-0.3-1-0.9-1.9-2.6-1.9h-7.8c-0.5,0-0.8,0.8-0.8,0.8V377.6z"/>
	<path id="path4202-6" class="st0" d="M513.4,391.7c0,0,0.1,2,1,2.5s7,0.5,9.5,0c2.4-0.6,4.7-2.2,5.1-2.6c0.4-0.4,1.4-1.6,1.6-1.6
		c0.7,0,0.4,0.8,0.1,1.3c-0.3,0.5-0.6,1.3-1.6,2.8c-0.7,1.2-1.6,2-1.9,2.1c-1,0.1-5.5,0-7.7,0s-9.2,0.1-9.2,0.1L513.4,391.7z"/>
	<path id="path4087-9-2-1" class="st0" d="M227,362.9c-1,0-2.7,0.2-4.4,0.2c-2.2,0-5.2-0.4-5.3,0c-0.1,0.5,0.1,0.9,0.6,1.1
		c0.5,0.2,1.4,0.4,1.9,0.6c0.8,0.3,1.6,0.5,1.6,1.3l0.1,26.4c0,0.6-0.6,1.2-1,1.6c-0.6,0.6-1.3,0.4-1.9,0.9
		c-0.3,0.3-0.7,0.5-0.6,0.9c0.1,0.5,2.8,0,5.2,0s5.7,0.4,6,0c0.2-0.4-0.3-0.6-0.7-0.9c-0.7-0.4-1.9-0.5-2.6-0.9
		c-0.8-0.5-1.4-0.8-1.4-1.8v-26c0-1.1,1.2-1.9,2.3-2.2c0.5-0.1,1.2-0.9,0.7-1.2C227.6,362.9,227.4,362.9,227,362.9L227,362.9z"/>
	<path id="path4087-9-2-4" class="st0" d="M249.7,362.9c-1,0-2.7,0.2-4.4,0.2c-2.2,0-5.2-0.4-5.3,0c-0.1,0.5,0.1,0.9,0.6,1.1
		c0.5,0.2,1.4,0.4,1.9,0.6c0.8,0.3,1.8,0.5,1.8,1.3l0.1,26.4c0,0.6-0.8,1.2-1.2,1.6c-0.6,0.6-1.3,0.4-1.9,0.9
		c-0.3,0.3-0.7,0.5-0.6,0.9c0.1,0.5,2.8,0,5.2,0s5.7,0.4,6,0c0.2-0.4-0.3-0.6-0.7-0.9c-0.7-0.4-1.9-0.5-2.6-0.9
		c-0.8-0.5-1.8-0.8-1.8-1.8v-26c0-1.1,1.6-1.9,2.7-2.2c0.5-0.1,1.2-0.9,0.7-1.2C250.2,362.9,250,362.9,249.7,362.9L249.7,362.9z"/>
	<path id="path4253" class="st0" d="M223.8,378.2H245v1.4h-21.1L223.8,378.2z"/>
	<path id="path4087-9-2-1-0" class="st0" d="M577.6,375l0.1,17.5c0,0.6-0.6,1.2-1,1.6c-0.6,0.6-1.3,0.4-1.9,0.9
		c-0.3,0.3-0.7,0.5-0.6,0.9c0.1,0.5,2.8,0,5.3,0c2.4,0,5.7,0.4,6-0.1c0.2-0.4-0.3-0.6-0.7-0.8c-0.7-0.4-1.9-0.5-2.6-0.9
		c-0.8-0.5-1.3-0.8-1.3-1.8l-0.1-13.1L577.6,375z"/>
	<path id="path4294" class="st0" d="M578.3,381.6l-10-15.7c-0.4-0.7-1.1-1.3-1.8-1.8c-0.5-0.3-1.3-0.2-1.5-0.4s0.2-0.8,0.5-0.8
		c1.4-0.2,2.4,0,4.3,0.1c1.6,0,4.6-0.3,5,0c0.2,0.2,0.4,0.5,0.2,0.7c-0.2,0.3-1.4,0.3-1.9,0.6c-0.5,0.3-1.2,0.8-0.7,1.5l8,13
		L578.3,381.6z"/>
	<path id="path4314" class="st0" d="M579.6,378.3l7.4-10.6c0.3-0.4,0.2-2,0-2.5c-0.3-0.7-0.8-0.8-1.6-1c-0.7-0.1-1.6,0-1.7-0.5
		c-0.1-0.2,0-0.6,0.3-0.7c0.4-0.1,3,0,4.5,0c1.2,0,3.3-0.2,3.6,0c0.2,0.1,0.4,0.4,0.3,0.7c-0.1,0.2-1.4,0.4-1.8,0.9l-10.5,15.6
		L579.6,378.3z"/>
	<path id="path4087-9-2-1-4" class="st0" d="M543.1,362.9c-1,0-2.7,0.2-4.4,0.2c-2.2,0-5.2-0.4-5.3,0c-0.1,0.5,0.1,0.9,0.6,1.1
		c0.5,0.2,1.4,0.4,1.9,0.6c0.8,0.3,1.6,0.5,1.6,1.3l0.1,26.4c0,0.6-0.6,1.2-1,1.6c-0.6,0.6-1.3,0.4-1.9,0.9
		c-0.3,0.3-0.7,0.5-0.6,0.9c0.1,0.5,2.8,0,5.2,0s5.7,0.4,6,0c0.2-0.4-0.3-0.6-0.7-0.9c-0.7-0.4-1.9-0.5-2.6-0.9
		c-0.8-0.5-1.4-0.8-1.4-1.8v-26c0-1.1,1.2-1.9,2.3-2.2c0.5-0.1,1.2-0.9,0.7-1.2C543.7,362.9,543.4,362.9,543.1,362.9L543.1,362.9z"
		/>
	<path id="path4087-9-2-1-4-8" class="st0" d="M255.2,362.9c-0.3,0-0.5,0.1-0.6,0.2c-0.1,0.5,0.1,0.9,0.6,1.1
		c0.5,0.2,1.3,0.4,1.9,0.6c0.8,0.3,1.6,0.5,1.6,1.3l0.2,26.4c0,0.6-0.6,1.2-1,1.6c-0.6,0.6-1.3,0.4-1.9,0.9
		c-0.3,0.3-0.7,0.5-0.6,0.9c0.1,0.5,2.8,0,5.2,0c2.4,0,5.7,0.4,6-0.1c0.2-0.4-0.3-0.6-0.7-0.8c-0.7-0.4-1.9-0.5-2.6-0.9
		c-0.8-0.5-1.3-0.8-1.3-1.8v-26c0-0.4,0.2-0.8,0.5-1.2l-1.8-2.2c-0.2,0-0.4,0-0.7,0C258.2,363.1,256.2,362.9,255.2,362.9
		L255.2,362.9z"/>
	<path id="path4352" class="st0" d="M541.7,363c0,0,6.4-0.6,10.4,0.3c3.5,0.8,12.9,3.7,13,15.5c0.1,12.6-7.8,16.4-12.9,17.2
		c-5.6,0.9-11.7-0.1-11.7-0.1l1-1.6c0.4,0.5,6.6,1.3,10.3,0.8c7.6-1,10.4-8.7,10.1-15.9c-0.5-9.3-6.3-13.2-10.2-14.4
		c-5.4-1.6-10.3-0.3-10.3-0.3L541.7,363z"/>
	<path id="path4087-9-2-4-3" class="st0" d="M285.1,363c-1.8,0-6-0.3-6.1,0.1c-0.1,0.5,1.1,0.7,1.5,0.9c0.4,0.2,2,0.7,2.5,0.9
		c0.6,0.3,1.3,0.8,1.3,1.7l0.1,26c0,0.6-0.2-1.5-0.5-1c0.1,1.2,1.5,5.4,1.9,5.5c0.3,0,0.6-0.6,0.6-1v-29.6c0-1.1,1.1-2,1.9-2.3
		c0.4-0.2,1-0.8,0.6-1.1c-0.1-0.1-0.3-0.1-0.8-0.1C287.6,362.9,286.5,363,285.1,363L285.1,363z"/>
	<path id="path4375" class="st0" d="M260.6,363.2l24.7,28.2l0.3,5.5l-26.3-29.4L260.6,363.2z"/>
	<path id="path4087-9-2-1-4-8-4" class="st0" d="M430.5,362.9c-0.3,0-0.5,0.1-0.6,0.2c-0.1,0.5,0.1,0.9,0.6,1.1
		c0.5,0.2,1.3,0.4,1.9,0.6c0.8,0.3,1.6,0.5,1.6,1.3l0.2,26.4c0,0.6-0.6,1.2-1,1.6c-0.6,0.6-1.3,0.4-1.9,0.9
		c-0.3,0.3-0.7,0.5-0.6,0.9c0.1,0.5,2.8,0,5.2,0c2.4,0,5.7,0.4,6-0.1c0.2-0.4-0.3-0.6-0.7-0.8c-0.7-0.4-1.9-0.5-2.6-0.9
		c-0.8-0.5-1.3-0.8-1.3-1.8v-26c0-0.4,0.2-0.8,0.5-1.2l-1.8-2.2c-0.2,0-0.4,0-0.7,0C433.5,363.1,431.4,362.9,430.5,362.9
		L430.5,362.9z"/>
	<path id="path4087-9-2-4-3-1" class="st0" d="M460.4,363c-1.8,0-6-0.3-6.1,0.1c-0.1,0.5,1.1,0.7,1.5,0.9c0.4,0.2,2,0.7,2.5,0.9
		c0.6,0.3,1.3,0.8,1.3,1.7l0.1,26c0,0.6-0.2-1.5-0.5-1c0.1,1.2,1.5,5.4,1.9,5.5c0.3,0,0.6-0.6,0.6-1v-29.6c0-1.1,1.1-2,1.9-2.3
		c0.4-0.2,1-0.8,0.6-1.1c-0.1-0.1-0.3-0.1-0.8-0.1C462.9,362.9,461.7,363,460.4,363L460.4,363z"/>
	<path id="path4375-2" class="st0" d="M435.9,363.2l24.7,28.2l0.3,5.5l-26.3-29.4L435.9,363.2z"/>
	<path id="path4087-9-2-1-4-8-4-3" class="st0" d="M468,362.9c-0.3,0-0.5,0.1-0.6,0.2c-0.1,0.5,0.1,0.9,0.6,1.1
		c0.5,0.2,1.3,0.4,1.9,0.6c0.8,0.3,1.6,0.5,1.6,1.3l0.2,26.4c0,0.6-0.6,1.2-1,1.6c-0.6,0.6-1.3,0.4-1.9,0.9
		c-0.3,0.3-0.7,0.5-0.6,0.9c0.1,0.5,2.8,0,5.2,0c2.4,0,5.7,0.4,6-0.1c0.2-0.4-0.3-0.6-0.7-0.8c-0.7-0.4-1.9-0.5-2.6-0.9
		c-0.8-0.5-1.3-0.8-1.3-1.8v-26c0-0.4,0.2-0.8,0.5-1.2l-1.8-2.2c-0.2,0-0.4,0-0.7,0C471.1,363.1,469,362.9,468,362.9L468,362.9z"/>
	<path id="path4087-9-2-4-3-1-1" class="st0" d="M498,363c-1.8,0-6-0.3-6.1,0.1c-0.1,0.5,1.1,0.7,1.5,0.9c0.4,0.2,2,0.7,2.5,0.9
		c0.6,0.3,1.3,0.8,1.3,1.7l0.1,26c0,0.6-0.2-1.5-0.5-1c0.1,1.2,1.5,5.4,1.9,5.5c0.3,0,0.6-0.6,0.6-1v-29.6c0-1.1,1.1-2,1.9-2.3
		c0.4-0.2,1-0.8,0.6-1.1c-0.1-0.1-0.3-0.1-0.8-0.1C500.5,362.9,499.3,363,498,363L498,363z"/>
	<path id="path4375-2-3" class="st0" d="M473.5,363.2l24.7,28.2l0.3,5.5l-26.3-29.4L473.5,363.2z"/>
</g>
</svg>
