<?xml version="1.0" encoding="utf-8"?>
<!-- Generator: Adobe Illustrator 25.2.1, SVG Export Plug-In . SVG Version: 6.00 Build 0)  -->
<svg version="1.1" id="Layer_1" xmlns="http://www.w3.org/2000/svg" xmlns:xlink="http://www.w3.org/1999/xlink" x="0px" y="0px"
	 viewBox="0 0 612 612" style="enable-background:new 0 0 612 612;" xml:space="preserve">
<style type="text/css">
	.st0{fill:#FFFFFF;}
</style>
<path class="st0" d="M139.65,260.46c-6.91,36.96-24.71,65.12-57.58,83.04c0.29,0.43,0.46,0.98,0.79,1.12
	c19.05,7.91,29.61,22.75,33.54,42.39c1.98,9.91,2.49,20.11,3.7,30.17c0.42,3.48-1.06,4.73-4.52,4.68
	c-9.83-0.14-19.66-0.18-29.48,0.02c-3.84,0.08-4.66-1.64-4.94-5.04c-0.92-11.26-1.31-22.67-3.6-33.67
	c-1.44-6.91-5.5-13.42-9.15-19.67c-2.14-3.66-5.92-6.18-11.32-6.19c0,3.21,0,6.17,0,9.12c0,16.66-0.11,33.32,0.08,49.97
	c0.05,4.1-1.19,5.6-5.37,5.48c-8.49-0.25-16.99-0.23-25.48-0.01c-3.92,0.1-5.21-1.33-5.25-5.19c-0.2-19.99-0.63-39.97-0.94-59.96
	c-0.47-30.15-0.78-60.3-1.48-90.44c-0.12-5.26,1.55-6.55,6.47-6.36c8.82,0.35,17.66,0.32,26.48,0.01c4.52-0.16,5.62,1.52,5.58,5.78
	c-0.18,22.82-0.08,45.64-0.07,68.46c0,0.82,0.11,1.64,0.27,3.7c2.96-2.43,5.5-4.17,7.61-6.32c17.56-17.9,27.86-39.57,32.86-63.93
	c1.71-8.31,0.08-7.47,8.93-7.53c8.83-0.06,17.66-0.03,26.49,0C135.05,260.11,136.84,260.3,139.65,260.46z"/>
<path class="st0" d="M291.44,357.41c-7.73,0-15.03-0.16-22.32,0.18c-1.04,0.05-2.79,2.51-2.82,3.89
	c-0.24,10.66-0.32,21.33-0.06,31.99c0.1,4.3-1.08,5.99-5.6,5.74c-6.15-0.35-12.35-0.37-18.49,0.01c-4.39,0.27-5.81-1.41-6.05-5.57
	c-0.93-15.8-2.11-31.58-3.19-47.37c-1.86-27.09-3.63-54.19-5.69-81.26c-0.33-4.34,0.92-5.51,5.07-5.41
	c9.83,0.23,19.67,0.26,29.49-0.01c4.11-0.11,5.11,1.51,5.06,5.24c-0.25,22-0.22,44-0.6,65.99c-0.08,4.74,1.13,6.49,6.05,6.17
	c6.46-0.41,12.96-0.1,20-0.1c0.13-2.31,0.33-4.24,0.32-6.16c-0.18-21.66-0.26-43.33-0.69-64.99c-0.1-4.84,1.36-6.42,6.18-6.16
	c6.98,0.37,14.01,0.37,20.99,0c4.71-0.25,5.91,1.48,5.9,5.97c-0.08,40,0.05,80,0.11,119.99c0.02,13.59,0.02,13.59-13.55,13.59
	c-4.83,0-9.68-0.24-14.49,0.07c-4.29,0.28-5.38-1.47-5.3-5.5c0.22-10.83,0.08-21.66,0.06-32.5
	C291.82,360.21,291.63,359.23,291.44,357.41z"/>
<path class="st0" d="M559.12,390.31c-0.45-9.14-1.03-18.29-1.3-27.44c-0.12-4.28-1.82-5.77-6.12-5.54
	c-6.48,0.34-12.99,0.09-19.48,0.09c-7.74,0-7.87,0-8.07,8.02c-0.4,16.81-0.84,33.62-0.83,50.44c0,4.66-1.37,6.08-5.89,5.92
	c-8.15-0.29-16.32-0.17-24.48-0.05c-3.25,0.05-4.88-0.85-4.81-4.5c0.82-40.19,5.11-79.75,20.83-117.28
	c5.76-13.74,12.95-26.66,23.05-37.76c4.99-5.49,5.12-5.51,10.78-0.99c16.51,13.18,27.07,30.5,34.41,49.98
	c8.88,23.57,12.82,48.2,14.85,73.16c0.86,10.61,1,21.29,1.7,31.92c0.27,4.12-1.1,5.63-5.3,5.51c-8.49-0.25-16.99-0.16-25.48-0.05
	c-3.23,0.04-4.32-1.18-4.25-4.43c0.19-8.99,0.06-17.99,0.06-26.98C558.9,390.32,559.01,390.32,559.12,390.31z M553.65,336.6
	c-2.62-17.04-7.34-32.62-14.62-47.77c-5.32,8.8-13.33,40.38-12.17,47.77C535.56,336.6,544.29,336.6,553.65,336.6z"/>
<path class="st0" d="M498.6,259.93c-0.88,7.52-1.65,14.58-2.53,21.63c-2.94,23.63-5.74,47.29-8.97,70.88
	c-1.77,12.97-6.46,24.82-16.11,34.18c-17.99,17.45-46.88,14.57-60.97-6.14c-6.72-9.87-9.89-21.05-11.14-32.79
	c-2.93-27.49-5.67-55.01-8.68-82.49c-0.45-4.07,0.21-5.74,4.72-5.63c10.33,0.27,20.67,0.26,31,0c4.19-0.11,5.39,1.3,5.33,5.41
	c-0.43,29.83-0.77,59.66-0.83,89.49c-0.01,4.89,1.02,9.95,2.53,14.62c1.67,5.14,5.67,8.09,11.46,7.91c5.6-0.17,9.16-3.36,10.67-8.3
	c1.29-4.23,1.97-8.79,2.05-13.21c0.49-29.66,0.74-59.33,1.08-88.99c0.08-6.83,0.1-6.83,6.88-6.84c9.17-0.01,18.33-0.01,27.5,0.01
	C494.37,259.68,496.16,259.82,498.6,259.93z"/>
<path class="st0" d="M190.95,378.3c0-5.5-0.08-11,0.03-16.49c0.06-3.01-1.24-4.12-4.17-4.11c-8.16,0.01-16.33-0.04-24.49-0.27
	c-3.29-0.09-3.88,1.44-3.75,4.28c0.49,10.65,0.64,21.32,1.31,31.96c0.26,4.19-0.93,5.59-5.16,5.48c-9.33-0.25-18.66-0.14-27.99-0.04
	c-2.81,0.03-4.31-0.55-4.15-3.86c1.96-40.1,9.44-78.75,30.81-113.49c4.76-7.73,11.2-14.43,16.86-21.61
	c2.09-2.66,4.13-2.48,6.75-0.47c12.14,9.34,21.22,21.1,27.8,34.84c13.8,28.81,20.37,59.41,22.37,91.12c0.07,1.16,0.1,2.33,0.16,3.5
	c0.53,9.94,0.53,9.94-9.68,9.94c-7.5,0-15-0.1-22.5,0.04c-3.18,0.06-4.49-0.98-4.35-4.32c0.22-5.49,0.06-10.99,0.06-16.49
	C190.89,378.3,190.92,378.3,190.95,378.3z M160.02,336.54c9.67,0,18.55,0,27.89,0c-2.09-17.01-7.37-32.51-15.15-48.5
	C166.47,304.28,161.51,319.61,160.02,336.54z"/>
<path class="st0" d="M335.85,259.97c11.91,0,23.48,0,35.81,0c-1.7,39.01-3.39,77.69-5.12,117.34c6.24,0,12.09,0.69,17.73-0.14
	c11.44-1.69,18.23,2.49,20.63,13.89c0.53,2.51,1.77,4.87,2.83,7.71c-1.95,0.16-3.24,0.36-4.54,0.36
	c-19.82,0.02-39.65-0.02-59.47,0.05c-3.07,0.01-4.93-0.41-5.02-4.24c-0.98-44.13-2.09-88.26-3.16-132.38
	C335.52,261.91,335.69,261.26,335.85,259.97z"/>
<path class="st0" d="M437.16,249.3c-4.66-1.9-9.48-3.5-13.92-5.82c-2.53-1.32-2.35-3.64,0.7-4.62
	c10.41-3.34,18.02-10.18,24.87-18.46c6.14-7.43,14.25-12.47,23.38-15.68c4.87-1.71,6.94-0.26,6.89,4.96
	c-0.03,2.63-0.45,5.33-1.16,7.86C473.23,234.4,455.04,248.15,437.16,249.3z"/>
<path class="st0" d="M415.33,229.5c0.79-3.41,1.1-5.91,1.93-8.22c5.7-15.86,27.13-30.47,43.84-29.26c3.95,0.29,7.79,3,11.51,4.93
	c0.82,0.43,1.49,2.52,1.14,3.43c-0.32,0.85-2.1,1.66-3.22,1.63c-13.94-0.42-23.35,6.65-30.99,17.58c-3.67,5.25-8.35,9.9-13.07,14.28
	c-1.82,1.69-5.75,3.25-7.44,2.39C417.01,235.2,416.33,231.5,415.33,229.5z"/>
</svg>
