<?xml version="1.0" encoding="utf-8"?>
<!-- Generator: Adobe Illustrator 25.2.1, SVG Export Plug-In . SVG Version: 6.00 Build 0)  -->
<svg version="1.1" id="Layer_1" xmlns:v="https://vecta.io/nano"
	 xmlns="http://www.w3.org/2000/svg" xmlns:xlink="http://www.w3.org/1999/xlink" x="0px" y="0px" viewBox="0 0 1280 1280"
	 style="enable-background:new 0 0 1280 1280;" xml:space="preserve">
<style type="text/css">
	.st0{fill:#FFFFFF;}
</style>
<path class="st0" d="M742.6,756c0,2.4,0.8,3.8,2.2,3.8c1.2,0,2.2-0.6,3.1-1.3l398.9-258.9c6.7-4.7,14.8-7.1,23-6.9h87.7
	c13.4,0,22.5,9,22.5,22.4v167.4c0,20.2-4.5,32-22.4,42.7l-106.4,64c-1.1,0.7-2.3,1.3-3.6,1.3s-2.6-1-2.6-4.7V590.5
	c0-2.3-0.6-3.8-2.2-3.8c-1.1,0-2.2,0.6-3.1,1.3L848.3,777.4c-6.7,4.5-14.5,6.9-22.4,6.8H632.6c-13.6,0-22.5-9-22.5-22.5V520.4
	c0-1.8-0.8-3.5-2.3-3.5c-1.1,0-2.2,0.6-3.1,1.3L412.4,633.7c-1.9,1.3-2.4,2.2-2.4,3.1c0,0.8,0.4,1.5,1.7,2.9L549.1,777
	c1.8,1.8,3.1,3.2,3.1,4.7c0,1.3-2,2.3-4.5,2.3H423.5c-9.7,0-17.3-1.4-22.5-6.7l-83.3-83.2c-0.6-0.8-1.6-1.3-2.6-1.3
	c-0.9,0-1.8,0.3-2.6,0.8l-139.2,83.7c-8.4,5.1-14.2,6.5-22.5,6.5H22.7C9,784.1,0,775,0,761.5V597.3c0-20.3,4.5-32,22.5-42.7
	l107-64.2c0.8-0.6,1.8-0.9,2.8-0.9c1.7,0,2.6,1.7,2.6,5.4v219.9c0,2.3,0.5,3.3,2.2,3.3c1.1,0,2.2-0.6,3.2-1.3l361.4-217.5
	c6.9-4.7,15.4-7,23.8-6.7h194.5c13.4,0,22.5,9,22.5,22.4l-0.1,241H742.6z"/>
</svg>
