<?xml version="1.0" encoding="utf-8"?>
<!-- Generator: Adobe Illustrator 25.2.1, SVG Export Plug-In . SVG Version: 6.00 Build 0)  -->
<svg version="1.1"
	 id="svg2" sodipodi:docname="Land Rover logo.svg" xmlns:cc="http://creativecommons.org/ns#" xmlns:dc="http://purl.org/dc/elements/1.1/" xmlns:inkscape="http://www.inkscape.org/namespaces/inkscape" xmlns:rdf="http://www.w3.org/1999/02/22-rdf-syntax-ns#" xmlns:sodipodi="http://sodipodi.sourceforge.net/DTD/sodipodi-0.dtd" xmlns:svg="http://www.w3.org/2000/svg"
	 xmlns="http://www.w3.org/2000/svg" xmlns:xlink="http://www.w3.org/1999/xlink" x="0px" y="0px" viewBox="0 0 594.4 450"
	 style="enable-background:new 0 0 594.4 594.4;" xml:space="preserve">
<style type="text/css">
	.st0{fill:#FFFFFF;}
</style>
<sodipodi:namedview  bordercolor="#666666" borderopacity="1" gridtolerance="10" guidetolerance="10" id="namedview4" inkscape:current-layer="g10" inkscape:cx="1343.4445" inkscape:cy="1457.4121" inkscape:pageopacity="0" inkscape:pageshadow="2" inkscape:window-height="1920" inkscape:window-maximized="1" inkscape:window-width="1920" inkscape:window-x="-8" inkscape:window-y="-8" inkscape:zoom="0.1767767" objecttolerance="10" pagecolor="#ffffff" showgrid="false">
	</sodipodi:namedview>
<g id="g10" transform="matrix(1.3333333,0,0,-1.3333333,-670.62132,1084.724)" inkscape:groupmode="layer" inkscape:label="Jaguar Land Rover Annual Report FY2021">
	<g id="g86" transform="matrix(6.9702248,0,0,6.9702248,760.80856,694.11517)">
		<path id="path88" class="st0" d="M0,0l-2.8-5.5h-0.1L-3,0h-2.3l-0.1-0.2l0.2-0.1C-5-0.5-5-0.6-4.9-1l0.3-6.6H-2L2.2,0H0z
			 M-8.3-3.9c-0.3-0.7-0.5-1.2-0.8-1.5c-0.2-0.2-0.6-0.4-1.3-0.4c-0.6,0-0.9,0.2-0.9,0.7c0,0.3,0.1,0.7,0.4,1.6
			c0.3,0.7,0.5,1.2,0.8,1.5c0.2,0.3,0.6,0.4,1.3,0.4c0.6,0,0.9-0.2,0.9-0.7C-7.9-2.7-8-3.1-8.3-3.9 M-8.4,0.1h-0.2
			c-1.4,0-2.3-0.4-2.9-1.1c-0.8-0.9-1.6-3.3-1.6-4.5c0-1.3,0.9-2.2,2.6-2.2h0.3c1.4,0,2.3,0.4,2.9,1.1c0.8,0.9,1.6,3.3,1.6,4.5
			C-5.8-0.8-6.7,0.1-8.4,0.1 M-15.5-2.8c-0.1-0.3-0.3-0.4-0.5-0.5c-0.1,0-0.4-0.1-0.7-0.1h-1l0.5,1.6h1.2c0.4,0,0.5-0.2,0.5-0.4
			C-15.3-2.3-15.4-2.5-15.5-2.8 M-15.6,0h-3.3L-19-0.2l0.1-0.1c0.1-0.1,0.1-0.3,0-0.7l-2.3-6.6h2.1l0.9,2.6l0.7,0l0.8-2.6h2.1
			l-1,2.7c0.6,0.1,0.9,0.3,1.2,0.5c0.4,0.4,0.7,0.9,0.9,1.6c0.3,1.1,0.1,1.7-0.1,2C-13.9-0.3-14.5,0-15.6,0 M6.4-4.6L7-3H4.3
			l0.4,1.2h2.9L8.2,0H2.8L2.7-0.2l0.1-0.1C3-0.5,3-0.6,2.8-1L0.6-7.6h5.1l0.6,1.8h-3l0.4,1.3H6.4z M12.5-2.8
			c-0.1-0.3-0.3-0.4-0.5-0.5c-0.1,0-0.4-0.1-0.7-0.1h-1L11-1.7h1.2c0.4,0,0.5-0.2,0.5-0.4C12.7-2.3,12.6-2.5,12.5-2.8 M12.3,0H9.1
			L9-0.2l0.1-0.1c0.1-0.1,0.1-0.3,0-0.7L6.8-7.6h2.1L9.8-5h0.7l0.8-2.6h2.1l-1,2.7c0.6,0.1,0.9,0.3,1.2,0.5C14-4,14.3-3.5,14.5-2.8
			c0.3,1.1,0.1,1.7-0.1,2C14.1-0.3,13.5,0,12.3,0 M16.7-10.2c-5.8-3-13.5-4.6-21.7-4.6c-8.2,0-15.9,1.6-21.7,4.6
			c-5.5,2.9-8.6,6.6-8.6,10.5c0,3.9,3.1,7.7,8.6,10.5c5.8,3,13.5,4.6,21.7,4.6c8.2,0,15.9-1.6,21.7-4.6c5.6-2.9,8.6-6.6,8.6-10.5
			C25.3-3.6,22.2-7.4,16.7-10.2 M17.4,12.3c-6,3.1-14,4.8-22.5,4.8s-16.4-1.7-22.5-4.8C-31,10.5-37,6.5-37,0.3c0-6.2,6-10.2,9.5-12
			c6-3.1,14-4.8,22.5-4.8c8.5,0,16.4,1.7,22.5,4.8C21-9.9,27-5.9,27,0.3C27,6.5,21,10.5,17.4,12.3 M15.9-8.7
			C9.6-11.9,1.9-13.1-5-13.1c-6.9,0-14.7,1.2-20.9,4.4c-3.3,1.7-7.7,4.8-7.7,9c0,4.1,4.4,7.3,7.7,9c6.2,3.2,13.9,4.4,20.9,4.4
			c6.9,0,14.7-1.2,20.9-4.4c3.3-1.7,7.7-4.8,7.7-9C23.5-3.8,19.1-7,15.9-8.7 M16.2,9.9C9.9,13.1,2,14.4-5,14.4
			c-7,0-14.9-1.2-21.2-4.5c-3.5-1.8-8-5.1-8-9.6c0-4.4,4.5-7.7,8-9.6c6.3-3.3,14.2-4.5,21.2-4.5c7,0,14.9,1.2,21.2,4.5
			c3.5,1.8,8,5.1,8,9.6C24.2,4.7,19.7,8,16.2,9.9 M-20.9-1l-5.7-1.9l-0.7-1.9h5.1l0.7,1.8h-3.5l4,1.4L-20.9-1z M2,7.5h0.8
			c0.6,0,0.9-0.2,0.9-0.6c0-0.3-0.1-0.7-0.4-1.5C3.1,4.6,2.8,4.1,2.6,3.8C2.3,3.6,2,3.5,1.3,3.5H0.6L2,7.5z M0.1,8.3l-2.3-6.6h3.4
			c1.4,0,2.3,0.3,2.9,1C5,3.6,5.7,5.9,5.7,7.1c0,1.3-0.9,2.1-2.6,2.1h-3L0,9.1l0.1-0.1C0.3,8.8,0.3,8.6,0.1,8.3 M12.8,6.5H7.7
			L7.1,4.7h3.5l-4-1.4L6.3,2.7l5.7,1.9L12.8,6.5z M-9.9,1.7h1.9l1.7,4.9l1-4.9h1.9l2.6,7.6l-2,0l-1.4-4.1L-5,9.3h-2.7l-0.1-0.2
			l0.1-0.1c0.1-0.1,0.1-0.3,0-0.7L-9.9,1.7z M-23.6,1.6l5.2,0l0.6,1.8h-3l2,5.8h-2.6l-0.1-0.2l0.1-0.1c0.1-0.1,0.1-0.3,0-0.7
			L-23.6,1.6z M-12.5,7.2L-12.5,7.2l0.1-2.3h-1.4L-12.5,7.2z M-17.8,1.7h2.2l1,1.7h2.3l0-1.7h2l-0.4,7.6h-3l-0.1-0.2l0.1-0.1
			c0.2-0.2,0.1-0.4-0.5-1.3L-17.8,1.7z"/>
	</g>
</g>
</svg>
