<?xml version="1.0" encoding="utf-8"?>
<!-- Generator: Adobe Illustrator 25.2.1, SVG Export Plug-In . SVG Version: 6.00 Build 0)  -->
<svg version="1.1" id="Layer_1" xmlns="http://www.w3.org/2000/svg" xmlns:xlink="http://www.w3.org/1999/xlink" x="0px" y="0px"
	 viewBox="0 0 800 800" style="enable-background:new 0 0 800 800;" xml:space="preserve">
<style type="text/css">
	.st0{fill:#FFFFFF;}
</style>
<g>
	<path class="st0" d="M682.9,494.7c11.1,1.1,22.3,2.2,33.4,3.4l24.5-60.6l23.3,66.2c12,1.5,23.9,3.1,35.8,4.7l-40.9-116l40.9-101
		h-34.6L765,292l-22.1,54.5l-19.4-55h-34.2l35.3,100.2L682.9,494.7L682.9,494.7z M657,492.4V291.5h-34.2v198
		C634.3,490.4,645.7,491.4,657,492.4 M400.3,481.1c9.2,0,18.4,0.1,27.6,0.1v-73.8H469V376h-41.1V323h47.3v-31.5h-81.6v189.7
		C395.9,481.1,398.1,481.1,400.3,481.1 M294.2,483c11.4-0.4,22.8-0.7,34.2-1V323h31.9v-31.5h-98.1V323h32L294.2,483L294.2,483z
		 M32.8,504.2V384.6l40.5,114.8c12.4-1.4,24.9-2.7,37.4-4V291.5H77.9v124l-43.7-124H0v217h0.2C11,507,21.9,505.6,32.8,504.2
		 M229.3,323v-31.5h-81.6V492c27.2-2.3,54.3-4.3,81.5-5.9v-31.5c-15.8,0.9-31.5,2-47.2,3.1v-50.3H223V376H182V323H229.3z M543,453.1
		V291.5h-34.3v191.7c27.3,1,54.5,2.4,81.6,4.2v-31.5C574.5,454.8,558.8,453.9,543,453.1"/>
</g>
</svg>
