<?xml version="1.0" encoding="utf-8"?>
<!-- Generator: Adobe Illustrator 25.2.1, SVG Export Plug-In . SVG Version: 6.00 Build 0)  -->
<svg version="1.1"
	 id="Layer_1" xmlns:cc="http://creativecommons.org/ns#" xmlns:dc="http://purl.org/dc/elements/1.1/" xmlns:rdf="http://www.w3.org/1999/02/22-rdf-syntax-ns#"
	 xmlns="http://www.w3.org/2000/svg" xmlns:xlink="http://www.w3.org/1999/xlink" x="0px" y="0px" viewBox="0 0 246 246"
	 style="enable-background:new 0 0 246 246;" xml:space="preserve">
<style type="text/css">
	.st0{fill:#FFFFFF;}
	.st1{fill:#D50A0A;}
</style>
<path class="st0" d="M206.5,28.25l-0.2-0.2c-7.5,5.6-22.4,13-41,8.4c-32.9-8-42.2-36.3-42.2-36.3s-9.4,28.2-42.2,36.3
	c-18.9,4.7-33.5-2.9-41.3-8.4h-6v152.2c0,4,0.9,11.5,7.2,19.3c7.7,9.3,20.8,15.3,38.8,17.9c14.6,2.1,25.2,6.6,32.6,13.9
	c5.6,5.3,10.9,14.5,10.9,14.5s5.4-9.4,10.7-14.5c7.5-7.2,18.2-11.7,32.6-13.9c18.1-2.6,31.1-8.7,38.8-18c6.2-7.6,7.2-15.2,7.2-19
	V28.25H206.5z M207,180.25c-0.3,4.9-2.2,26-41.6,31.7c-15.4,2.2-27.1,7.2-35.4,15.3c-3,2.9-5.3,5.8-7,8.5c-1.7-2.7-4-5.6-7-8.5
	c-8.2-8-19.8-13-35.4-15.3c-39.5-5.6-41.6-26.7-41.6-31.7V33.95c0,0,18,14,42.9,7.8c29.6-7.3,41-29.4,41-29.4s11.6,22,41,29.4
	c25.3,6.3,43.2-7.6,43.2-7.6l0.1-0.1v146.2H207z"/>
<path class="st0" d="M197,103.75H48.8v76.7c0,0.8-1,16.8,32.9,22c29.7,4.6,41,18.7,41,18.7h0.3c0,0,11.4-14.1,41-18.7
	c34.2-5.2,32.9-21.2,32.9-22v-76.7H197z M104.5,120.95l-4.3,2.6v74.2l-11.1-3.3L73,146.95v31.4l5.1,3.9v9.7l-22.3-5.7v-8.2l5.1-2
	v-52.5l-5.2-2.6v-9.4h16.9l15.7,48.3v-36.2l-4.6-2.6v-9.4h20.8V120.95z M147.7,130.65h-8.4l-2.6-7.9h-9.8v22.2h7.3l2.9-4.2h5.9v19.8
	h-5.9l-2.8-4h-7.5v36.6l4.4,5.3v9.4l-22.1-8.3v-8l4.9-2v-66.2l-4.8-2.5v-9.6h38.5V130.65z M190.4,186.35l-39.1,10.4l0.1-0.3v-9.4
	l5.5-4.5v-59l-4.7-2.5v-9.6h22.1v9.6l-4.3,2.5v55.6l9.5-2.6l1.8-14.5h9.1V186.35z"/>
<path class="st1" d="M88.3,159.85v-0.2V159.85z"/>
<polygon class="st1" points="126.9,193.15 126.9,193.15 126.8,193.05 "/>
<polygon class="st0" points="52.7,88.15 50.2,96.05 56.9,91.35 63.6,96.05 61.1,88.15 67.8,83.05 59.6,83.05 56.9,75.25 54.2,83.05 
	46,83.05 52.7,88.05 "/>
<polygon class="st0" points="81.7,88.15 79.2,96.05 85.9,91.35 92.6,96.05 90.1,88.15 96.8,83.05 88.6,83.05 85.9,75.25 83.2,83.05 
	75,83.05 81.7,88.05 "/>
<polygon class="st0" points="52.7,62.05 50.2,69.95 56.9,65.25 63.6,69.95 61.1,62.05 67.8,56.95 59.6,56.95 56.9,49.25 54.2,56.95 
	46,56.95 "/>
<polygon class="st0" points="81.7,62.05 79.2,69.95 85.9,65.25 92.6,69.95 90.1,62.05 96.8,56.95 88.6,56.95 85.9,49.25 83.2,56.95 
	75,56.95 "/>
<polygon class="st0" points="189.1,75.15 186.3,82.95 178.1,82.95 184.9,87.95 182.4,95.85 189.1,91.15 195.7,95.85 193.3,87.95 
	200,82.95 191.8,82.95 "/>
<path class="st0" d="M195.7,95.85L195.7,95.85L195.7,95.85z"/>
<polygon class="st0" points="153.2,95.85 159.9,91.15 166.5,95.85 164.1,87.95 170.8,82.95 162.6,82.95 159.9,75.15 157.1,82.95 
	148.9,82.95 155.7,87.95 "/>
<path class="st0" d="M166.5,95.85L166.5,95.85L166.5,95.85z"/>
<polygon class="st0" points="189.1,49.05 186.3,56.85 178.1,56.85 184.9,61.85 182.4,69.75 189.1,65.05 195.7,69.75 193.3,61.85 
	200,56.85 191.8,56.85 "/>
<path class="st0" d="M195.7,69.75L195.7,69.75L195.7,69.75z"/>
<path class="st0" d="M166.5,69.75L166.5,69.75L166.5,69.75z"/>
<polygon class="st0" points="153.2,69.75 159.9,65.05 166.5,69.75 164.1,61.85 170.8,56.85 162.6,56.85 159.9,49.05 157.1,56.85 
	148.9,56.85 155.7,61.85 "/>
<path class="st0" d="M103.8,94.15c0.5-4.6,2.2-14.7,7.3-25.6c-1.8-0.6-3.2-0.9-3.2-0.9c0.5-1.1,1.2-2.5,1.2-2.5
	c3.8,0.7,7.1,2.3,10,4.6c-0.7,1.1-1.2,1.9-1.5,2.4c-1-0.8-2-1.5-3.2-2.1c-5.7,10-8.4,19.5-9.5,24.4c0.1,0.3,0.7,0.5,1.2,0.4
	c23.6-3.1,34.5-15.1,37.9-28.1c2.2-8.5,1.5-17.5-1.5-24.8c-0.2-0.5-0.6-1.4-1.3-1.3l0,0c0,0-3.5,1.8-8.3,6.6c1.1,0.6,2.3,1.5,3,2.1
	c-0.7,0.6-1.5,1.4-2.2,2c-3.2-2.6-6.4-3.9-9-4.5c0.8-0.6,1.7-1.2,2.6-1.8c1.4,0.3,2.7,0.9,2.7,0.9c5.5-4.2,10.2-6,10.2-6
	s-0.5-0.3-2-0.2c-21.5,0.3-41.3,16.3-37.6,43.8C101.2,86.45,102.4,91.85,103.8,94.15z M121.9,49.15c4.4,1.1,7.4,3.1,9.5,4.8
	c-0.7,0.7-1.4,1.5-2.1,2.2l0,0c-3-2.5-6.3-4-9.9-4.8C120.3,50.45,121.1,49.75,121.9,49.15z M116.7,53.95c3,0.5,6.8,2.1,10.2,4.9
	c-0.7,0.8-1.3,1.7-1.9,2.4l0,0c-2.8-2.4-6.3-4.2-10.2-5C115.3,55.55,116,54.75,116.7,53.95z M112.6,59.25c4.3,0.9,7.8,2.9,10.2,4.9
	c-0.6,0.9-1.2,1.8-1.8,2.5l0,0c-3.1-2.6-6.6-4.1-10.2-4.8C110.9,61.95,112,60.15,112.6,59.25z"/>
</svg>
