<?xml version="1.0" encoding="utf-8"?>
<!-- Generator: Adobe Illustrator 25.2.1, SVG Export Plug-In . SVG Version: 6.00 Build 0)  -->
<svg version="1.1"
	 id="Layer_1" xmlns:cc="http://creativecommons.org/ns#" xmlns:dc="http://purl.org/dc/elements/1.1/" xmlns:rdf="http://www.w3.org/1999/02/22-rdf-syntax-ns#"
	 xmlns="http://www.w3.org/2000/svg" xmlns:xlink="http://www.w3.org/1999/xlink" x="0px" y="0px" viewBox="0 0 246 246"
	 style="enable-background:new 0 0 246 246;" xml:space="preserve">
<style type="text/css">
	.st0{fill:#FFFFFF;}
	.st1{fill:#D50A0A;}
</style>
<path class="st0" d="M172.9,28.5l-0.2-0.2c-7.5,5.6-22.4,13-41,8.4C98.8,28.7,89.5,0.4,89.5,0.4s-9.4,28.2-42.2,36.3
	c-18.9,4.7-33.5-2.9-41.3-8.4H0v152.2c0,4,0.9,11.5,7.2,19.3c7.7,9.3,20.8,15.3,38.8,17.9c14.6,2.1,25.2,6.6,32.6,13.9
	c5.6,5.3,10.9,14.5,10.9,14.5s5.4-9.4,10.7-14.5c7.5-7.2,18.2-11.7,32.6-13.9c18.1-2.6,31.1-8.7,38.8-18c6.2-7.6,7.2-15.2,7.2-19
	V28.5H172.9z M173.4,180.5c-0.3,4.9-2.2,26-41.6,31.7c-15.4,2.2-27.1,7.2-35.4,15.3c-3,2.9-5.3,5.8-7,8.5c-1.7-2.7-4-5.6-7-8.5
	c-8.2-8-19.8-13-35.4-15.3c-39.5-5.6-41.6-26.7-41.6-31.7V34.2c0,0,18,14,42.9,7.8c29.6-7.3,41-29.4,41-29.4s11.6,22,41,29.4
	c25.3,6.3,43.2-7.6,43.2-7.6l0.1-0.1V180.5z"/>
<path class="st0" d="M163.4,104H15.2v76.7c0,0.8-1,16.8,32.9,22c29.7,4.6,41,18.7,41,18.7h0.3c0,0,11.4-14.1,41-18.7
	c34.2-5.2,32.9-21.2,32.9-22V104z M70.9,121.2l-4.3,2.6V198l-11.1-3.3l-16.1-47.5l0,31.4l5.1,3.9v9.7l-22.3-5.7v-8.2l5.1-2v-52.5
	l-5.2-2.6v-9.4h16.9l15.7,48.3l0-36.2l-4.6-2.6v-9.4h20.8V121.2z M114.1,130.9h-8.4l-2.6-7.9h-9.8v22.2h7.3l2.9-4.2h5.9v19.8h-5.9
	l-2.8-4h-7.5v36.6l4.4,5.3v9.4l-22.1-8.3v-8l4.9-2v-66.2l-4.8-2.5v-9.6h38.5V130.9z M156.8,186.6L117.7,197l0.1-0.3v-9.4l5.5-4.5
	v-59l-4.7-2.5v-9.6h22.1v9.6l-4.3,2.5v55.6l9.5-2.6l1.8-14.5h9.1V186.6z"/>
<polygon class="st1" points="54.7,160.1 54.7,159.9 54.7,160.1 "/>
<polygon class="st1" points="93.3,193.4 93.3,193.4 93.2,193.3 "/>
<polygon class="st0" points="19.1,88.4 16.6,96.3 23.3,91.6 30,96.3 27.5,88.4 34.2,83.3 26,83.3 23.3,75.5 20.6,83.3 12.4,83.3 
	19.1,88.3 "/>
<polygon class="st0" points="48.1,88.4 45.6,96.3 52.3,91.6 59,96.3 56.5,88.4 63.2,83.3 55,83.3 52.3,75.5 49.6,83.3 41.4,83.3 
	48.1,88.3 "/>
<polygon class="st0" points="19.1,62.3 16.6,70.2 23.3,65.5 30,70.2 27.5,62.3 34.2,57.2 26,57.2 23.3,49.5 20.6,57.2 12.4,57.2 
	19.1,62.3 "/>
<polygon class="st0" points="48.1,62.3 45.6,70.2 52.3,65.5 59,70.2 56.5,62.3 63.2,57.2 55,57.2 52.3,49.5 49.6,57.2 41.4,57.2 
	48.1,62.3 "/>
<polygon class="st0" points="155.5,75.4 152.7,83.2 144.5,83.2 151.3,88.2 148.8,96.1 155.5,91.4 162.1,96.1 159.7,88.2 166.4,83.2 
	158.2,83.2 "/>
<polygon class="st0" points="162.1,96.1 162.1,96.1 162.1,96.1 "/>
<polygon class="st0" points="119.6,96.1 126.3,91.4 132.9,96.1 130.5,88.2 137.2,83.2 129,83.2 126.3,75.4 123.5,83.2 115.3,83.2 
	122.1,88.2 "/>
<polygon class="st0" points="132.9,96.1 132.9,96.1 132.9,96.1 "/>
<polygon class="st0" points="155.5,49.3 152.7,57.1 144.5,57.1 151.3,62.1 148.8,70 155.5,65.3 162.1,70 159.7,62.1 166.4,57.1 
	158.2,57.1 "/>
<polygon class="st0" points="162.1,70 162.1,70 162.1,70 "/>
<polygon class="st0" points="132.9,70 132.9,70 132.9,70 "/>
<polygon class="st0" points="119.6,70 126.3,65.3 132.9,70 130.5,62.1 137.2,57.1 129,57.1 126.3,49.3 123.5,57.1 115.3,57.1 
	122.1,62.1 "/>
<path class="st0" d="M70.2,94.4c0.5-4.6,2.2-14.7,7.3-25.6c-1.8-0.6-3.2-0.9-3.2-0.9c0.5-1.1,1.2-2.5,1.2-2.5
	c3.8,0.7,7.1,2.3,10,4.6c-0.7,1.1-1.2,1.9-1.5,2.4c-1-0.8-2-1.5-3.2-2.1c-5.7,10-8.4,19.5-9.5,24.4c0.1,0.3,0.7,0.5,1.2,0.4
	c23.6-3.1,34.5-15.1,37.9-28.1c2.2-8.5,1.5-17.5-1.5-24.8c-0.2-0.5-0.6-1.4-1.3-1.3l0,0c0,0-3.5,1.8-8.3,6.6c1.1,0.6,2.3,1.5,3,2.1
	c-0.7,0.6-1.5,1.4-2.2,2c-3.2-2.6-6.4-3.9-9-4.5c0.8-0.6,1.7-1.2,2.6-1.8c1.4,0.3,2.7,0.9,2.7,0.9c5.5-4.2,10.2-6,10.2-6
	s-0.5-0.3-2-0.2c-21.5,0.3-41.3,16.3-37.6,43.8C67.6,86.7,68.8,92.1,70.2,94.4z M88.3,49.4c4.4,1.1,7.4,3.1,9.5,4.8
	c-0.7,0.7-1.4,1.5-2.1,2.2l0,0c-3-2.5-6.3-4-9.9-4.8C86.7,50.7,87.5,50,88.3,49.4z M83.1,54.2c3,0.5,6.8,2.1,10.2,4.9
	c-0.7,0.8-1.3,1.7-1.9,2.4l0,0c-2.8-2.4-6.3-4.2-10.2-5C81.7,55.8,82.4,55,83.1,54.2z M79,59.5c4.3,0.9,7.8,2.9,10.2,4.9
	c-0.6,0.9-1.2,1.8-1.8,2.5v0c-3.1-2.6-6.6-4.1-10.2-4.8C77.3,62.2,78.4,60.4,79,59.5z"/>
</svg>
