<?xml version="1.0" encoding="utf-8"?>
<!-- Generator: Adobe Illustrator 25.2.1, SVG Export Plug-In . SVG Version: 6.00 Build 0)  -->
<svg version="1.1"
	 id="Layer_1" xmlns:cc="http://creativecommons.org/ns#" xmlns:dc="http://purl.org/dc/elements/1.1/" xmlns:rdf="http://www.w3.org/1999/02/22-rdf-syntax-ns#"
	 xmlns="http://www.w3.org/2000/svg" xmlns:xlink="http://www.w3.org/1999/xlink" x="0px" y="0px" viewBox="0 0 179 246"
	 style="enable-background:new 0 0 179 246;" xml:space="preserve">
<style type="text/css">
	.st0{fill:#FFFFFF;}
</style>
<path class="st0" d="M95.7,56.3c0.7-0.7,1.4-1.5,2.1-2.2c-2.1-1.7-5-3.7-9.5-4.8c-0.8,0.6-1.7,1.3-2.5,2.2
	C89.3,52.3,92.7,53.9,95.7,56.3L95.7,56.3z"/>
<path class="st0" d="M173.3,34.3c0,0-17.9,13.9-43.2,7.6c-29.4-7.4-41-29.4-41-29.4s-11.4,22.1-41,29.4c-24.9,6.2-42.9-7.8-42.9-7.8
	v146.3c0,5,2.1,26.1,41.6,31.7c15.6,2.3,27.2,7.2,35.4,15.3c3,2.9,5.3,5.8,7,8.5c1.7-2.7,4-5.6,7-8.5c8.4-8,20-13,35.4-15.3
	c39.5-5.7,41.3-26.8,41.6-31.7V34.2L173.3,34.3z M123.5,57.1l2.7-7.8l2.7,7.8h8.2l-6.7,5.1l2.5,7.9l0,0h0l0,0l-6.6-4.7l-6.7,4.7
	l2.5-7.9l-6.7-5.1H123.5z M123.5,83.2l2.7-7.8l2.7,7.8h8.2l-6.7,5.1l2.5,7.9l0,0h0l0,0l-6.6-4.7l-6.7,4.7l2.5-7.9l-6.7-5.1H123.5z
	 M104.8,40c1.5,0,2,0.2,2,0.2s-4.8,1.8-10.2,6c0,0-1.3-0.5-2.7-0.9c-0.9,0.6-1.8,1.2-2.6,1.8c2.5,0.6,5.8,1.9,9,4.5
	c0.7-0.7,1.4-1.4,2.2-2c-0.7-0.6-1.9-1.5-3-2.1c4.8-4.8,8.3-6.6,8.3-6.6l0,0c0.7-0.1,1.1,0.8,1.3,1.3c3,7.3,3.7,16.2,1.5,24.8
	c-3.4,13-14.3,25.1-37.9,28.1c-0.5,0.1-1.1-0.1-1.2-0.4c1.1-4.9,3.7-14.4,9.5-24.4C82,71,83,71.7,84,72.5c0.3-0.6,0.8-1.3,1.5-2.4
	c-2.9-2.3-6.2-3.9-10-4.6c0,0-0.7,1.4-1.2,2.5c0,0,1.5,0.3,3.2,0.9c-5.1,10.9-6.8,21-7.3,25.6c-1.4-2.3-2.6-7.6-3-10.6
	C63.5,56.4,83.3,40.3,104.8,40z M49.6,57.2l2.7-7.8l2.7,7.8h8.2l-6.7,5.1l2.5,7.9l-6.7-4.7l-6.7,4.7l2.5-7.9l0,0l-6.7-5H49.6z
	 M49.6,83.3l2.7-7.8l2.7,7.8h8.2l-6.7,5.1l2.5,7.9l-6.7-4.7l-6.7,4.7l2.5-7.9l0,0l-6.7-5H49.6z M20.6,57.2l2.7-7.8l2.7,7.8h8.2
	l-6.7,5.1l2.5,7.9l-6.7-4.7l-6.7,4.7l2.5-7.9l0,0l-6.7-5H20.6z M12.4,83.3h8.2l2.7-7.8l2.7,7.8h8.2l-6.7,5.1l2.5,7.9l-6.7-4.7
	l-6.7,4.7l2.5-7.9l0,0L12.4,83.3z M130.5,202.7c-29.6,4.6-41,18.7-41,18.7h-0.3c0,0-11.3-14.1-41-18.7c-33.9-5.2-32.9-21.2-32.9-22
	V104h148.2v76.7C163.4,181.5,164.6,197.5,130.5,202.7z M159.7,88.2l2.5,7.9l0,0h0l0,0l-6.6-4.7l-6.7,4.7l2.5-7.9l-6.7-5.1h8.2
	l2.7-7.8l2.7,7.8h8.2L159.7,88.2z M159.7,62.1l2.5,7.9l0,0h0l0,0l-6.6-4.7l-6.7,4.7l2.5-7.9l-6.7-5.1h8.2l2.7-7.8l2.7,7.8h8.2
	L159.7,62.1z"/>
<path class="st0" d="M87.5,67c0.5-0.8,1.1-1.6,1.8-2.5c-2.5-2.1-5.9-4.1-10.2-4.9c-0.6,0.9-1.7,2.7-1.7,2.7
	C80.8,62.8,84.4,64.4,87.5,67L87.5,67z"/>
<path class="st0" d="M91.4,61.5c0.6-0.8,1.2-1.6,1.9-2.4c-3.4-2.8-7.2-4.3-10.2-4.9c-0.7,0.8-1.4,1.6-2,2.4
	C85,57.4,88.5,59.1,91.4,61.5L91.4,61.5z"/>
<polygon class="st0" points="54.7,160.1 54.7,159.9 54.7,160.1 "/>
<polygon class="st0" points="50.1,121.2 54.7,123.8 54.7,159.9 54.7,160.1 54.7,160.1 54.7,159.9 38.9,111.6 22,111.6 22,121.1 
	27.3,123.7 27.3,176.2 22.2,178.2 22.2,186.4 44.5,192.1 44.5,182.4 39.4,178.5 39.4,147.1 55.5,194.7 66.6,198 66.6,123.8 
	70.9,121.2 70.9,111.8 50.1,111.8 "/>
<polygon class="st0" points="93.3,193.4 93.3,193.4 93.2,193.3 "/>
<polygon class="st0" points="75.5,121.2 80.4,123.7 80.4,189.8 75.5,191.8 75.5,199.9 97.7,208.1 97.7,198.7 93.3,193.4 93.3,193.4 
	93.2,193.3 93.3,193.4 93.3,156.8 100.7,156.8 103.5,160.8 109.4,160.8 109.4,141 103.5,141 100.6,145.2 93.3,145.2 93.3,123 
	103.1,123 105.6,130.9 114.1,130.9 114.1,111.7 75.5,111.7 "/>
<polygon class="st0" points="145.9,176.8 136.3,179.4 136.3,123.8 140.7,121.3 140.7,111.8 118.5,111.8 118.5,121.3 123.2,123.8 
	123.2,182.8 117.7,187.3 117.7,196.8 117.7,197 156.8,186.6 156.8,162.3 147.7,162.3 "/>
<polygon class="st0" points="162.1,96.1 162.1,96.1 162.1,96.1 "/>
<polygon class="st0" points="132.9,96.1 132.9,96.1 132.9,96.1 "/>
<polygon class="st0" points="162.1,70 162.1,70 162.1,70 "/>
<polygon class="st0" points="132.9,70 132.9,70 132.9,70 "/>
</svg>
