<?xml version="1.0" encoding="utf-8"?>
<!-- Generator: Adobe Illustrator 25.2.1, SVG Export Plug-In . SVG Version: 6.00 Build 0)  -->
<svg version="1.1" id="Layer_1" xmlns="http://www.w3.org/2000/svg" xmlns:xlink="http://www.w3.org/1999/xlink" x="0px" y="0px"
	 viewBox="0 0 800 800" style="enable-background:new 0 0 800 800;" xml:space="preserve">
<style type="text/css">
	.st0{fill:#FFFFFF;}
</style>
<path class="st0" d="M685.9,498.5l-0.3,0.9C644,620.9,529.4,702.3,400.2,702.3s-244-81.6-285.4-203l-0.3-1H23.7v11l37.8,4.4
	c23.3,2.7,28.2,13,34.6,26l1.6,3.2c54.6,116.5,173.5,191.7,302.7,191.7c129.2,0,248.1-75.2,302.7-191.6l1.6-3.2
	c6.3-13,11.3-23.3,34.6-26l37.8-4.5v-10.9L685.9,498.5z M114.8,300.4C156.3,179,271,97.4,400.2,97.4s244,81.6,285.4,203l0.3,0.9
	h90.9v-10.9L739,286c-23.3-2.7-28.2-13-34.6-26l-1.6-3.2C648.3,140.6,529.3,65.3,400.2,65.3c-129.4,0-248.1,75.2-302.7,191.7
	l-1.6,3.2c-6.3,13-11.3,23.3-34.6,26l-37.8,4.4v11h90.8L114.8,300.4z M576.8,353.3l-58.1,93.2h25.1l10.3-16.7h67.8l10.3,16.7h24.9
	L599,353.3H576.8z M611.3,412.1h-46.5l23.3-37.5L611.3,412.1z M704.9,376.6l69,69.8h26v-93.2h-20.5v69.5l-68.7-69.5h-26.5v93.2h20.6
	L704.9,376.6z M0,446.4h20.6v-69.8l69.2,69.8h26v-93.2H95.2v69.5l-68.7-69.5H0V446.4z M161.4,353.3h20.6v93.2h-20.7L161.4,353.3z
	 M311,426.7c-0.7,0.2-3.2,0.2-4.1,0.2h-82.1V446h83.3c0.6,0,5.6,0,6.5-0.2c17-1.6,24.8-15.7,24.8-28.1c0-12.7-8.1-26.3-23.5-27.8
	c-3-0.3-5.5-0.3-6.7-0.3h-54.4c-2,0.1-4-0.1-6-0.5c-4.3-1.1-5.9-4.9-5.9-8.1c0-2.9,1.6-6.7,6-7.9c1.9-0.4,3.8-0.6,5.7-0.5h78.6
	v-18.7h-79.8c-3.3,0-5.9,0.1-7.9,0.5c-13.5,1.7-23.5,13.3-23.2,26.8c0,11.4,7.1,24.8,22.8,27c2.9,0.3,6.8,0.3,8.6,0.3h53
	c1,0,3.3,0,3.8,0.2c6,0.8,8.1,5.2,8.1,9.2C318.7,422.3,315.4,426.2,311,426.7L311,426.7z M466.2,426.7c-0.7,0.2-3.2,0.2-4.3,0.2H380
	V446h83.3c0.6,0,5.6,0,6.5-0.2c17-1.6,24.8-15.7,24.8-28.1c0-12.7-8.1-26.3-23.5-27.8c-3-0.3-5.5-0.3-6.7-0.3H410
	c-2,0.1-4-0.1-6-0.5c-4.3-1.1-5.9-4.9-5.9-8.1c0-2.9,1.6-6.7,6-7.9c1.9-0.4,3.8-0.6,5.7-0.5h78.6v-18.7h-79.8
	c-3.3,0-5.9,0.1-7.9,0.5c-13.5,1.7-23.5,13.3-23.2,26.8c0,11.4,7.1,24.8,22.9,27c2.8,0.3,6.8,0.3,8.6,0.3h53c1,0,3.3,0,3.8,0.2
	c6,0.8,8.1,5.2,8.1,9.2C473.8,422.3,470.6,426.1,466.2,426.7L466.2,426.7z"/>
</svg>
