<?xml version="1.0" encoding="utf-8"?>
<!-- Generator: Adobe Illustrator 25.2.1, SVG Export Plug-In . SVG Version: 6.00 Build 0)  -->
<svg version="1.1" id="Layer_1" xmlns="http://www.w3.org/2000/svg" xmlns:xlink="http://www.w3.org/1999/xlink" x="0px" y="0px"
	 viewBox="0 0 612 612" style="enable-background:new 0 0 612 612;" xml:space="preserve">
<style type="text/css">
	.st0{fill:#FFFFFF;}
</style>
<path class="st0" d="M75.9,340.67c6.61-2.03,2.44-5.65,1.96-8.49c0.35-0.39,0.52-0.76,0.73-0.79c10.23-1.44,9.07-5.94,4.26-12.3
	c-3.98-5.27-7.33-10.58-5.53-17.6c0.11-0.41-0.05-0.92,0.13-1.28c6-12.12,0.32-23.04-4-33.78c-5.31-13.2-14.44-23.19-28.18-28.19
	c-3.63-1.32-2.5-2.91-0.67-4.65c6.3-6.02,13.98-9.83,22.42-10.89c7.24-0.91,14.77-0.46,22.08,0.3c5.44,0.56,7.14,0.09,6.14-5.29
	c-0.99-5.31-2.92-10.5-4.95-15.53c-1.42-3.52,0.85-5.21,2.73-6.89c2.14-1.91,4.45-0.79,5.21,1.6c1.31,4.13,2.12,8.42,2.98,12.68
	c0.79,3.94,1.37,7.92,2.12,12.33c9.73-3.38,17.39-0.08,25.39,4.8c5.23,3.19,12.03,3.91,18.2,5.42c5.87,1.44,11.39,3.31,15.29,8.24
	c-0.25,0.42-0.41,0.88-0.52,0.86c-10.21-1.4-14.12,7.22-19.69,12.76c-9.36,9.31-14.64,20.36-10.97,34c0.62,2.31,2.25,4.32,3.12,6.58
	c1.7,4.41,3.86,8.8,4.46,13.38c0.28,2.16-2.13,5.3-4.14,7.02c-5.9,5.04-6.06,5.84-0.46,11.03c1.19,1.11,2.87,3.02,2.6,4.15
	c-1.1,4.63,1.39,7.28,3.84,10.67c3.4,4.71,5.59,10.29,8.25,15.53c0.23,0.45,0.24,1.16,0.06,1.64c-4.78,12.55-12.04,23.98-27.65,19.3
	c-10.12-3.04-19.57-2.26-29.32,1.48c-11.49,4.41-22.69-1.37-29.97-14.34c2.05,0,3.68,0.02,5.31,0c5.79-0.1,7.63-2.03,7.28-7.67
	c-0.1-1.59-0.59-3.18-0.52-4.76c0.06-1.32,0.34-3.48,1.11-3.79C79.33,346.49,78.48,343.99,75.9,340.67z"/>
<path class="st0" d="M205.61,262.11c0,11.49,0.01,22.98,0,34.47c0,6.34-0.01,6.34-6.23,6.35c-3.21,0-6.44-0.2-9.63,0.05
	c-3.78,0.3-4.99-1.47-4.78-4.9c0.08-1.31,0.01-2.63,0.01-3.94c0-21.17,0.07-42.34-0.07-63.52c-0.03-3.98,1.05-5.52,5.34-5.88
	c8.57-0.72,15.08,0.69,20.2,8.93c6.19,9.98,14.09,18.9,21.27,28.27c0.76,0.99,1.62,1.91,2.91,3.43c0-12.26,0.18-23.76-0.09-35.24
	c-0.1-4.14,1.47-5.49,5.29-5.35c3.79,0.14,7.59,0.1,11.39,0.1c2.87,0,4.24,1.3,4.23,4.27c-0.04,23.22-0.03,46.43-0.02,69.65
	c0,2.88-1.24,4.4-4.25,4.14c-0.14-0.01-0.29,0-0.44,0c-12.65,0.34-12.63,0.32-20.32-9.78c-7.93-10.42-15.89-20.81-23.84-31.21
	C206.24,261.99,205.93,262.05,205.61,262.11z"/>
<path class="st0" d="M267.09,264.03c-1.03-20.74,16.77-40.55,41.26-40.59c23.36-0.04,41.6,17.69,41.63,40.42
	c0.02,22.25-18.85,40.95-41.69,40.65C282.14,304.17,266.21,284.44,267.09,264.03z M288.7,263.96c-1.02,12.27,10.13,21.1,19.84,20.85
	c11.05-0.29,19.85-9.19,19.89-20.68c0.04-11.98-8.77-20.74-20.5-20.95C298.56,243,287.73,251.16,288.7,263.96z"/>
<path class="st0" d="M496.68,263.98c0-11.54,0.09-23.08-0.06-34.61c-0.04-3.15,0.84-4.44,4.17-4.39
	c10.95,0.19,21.97-0.65,32.83,0.34c26.15,2.39,39.63,26.08,34.36,47.65c-4.39,17.95-19.69,29.86-38.21,29.94
	c-9.35,0.04-18.7-0.19-28.04,0.11c-4.18,0.13-5.2-1.38-5.13-5.3C496.82,286.47,496.68,275.23,496.68,263.98z M517.5,263.95
	c0,3.21,0,6.42,0,9.63c0,10.47,0,10.47,10.44,10.23c11.62-0.27,19.52-8.18,19.56-19.59c0.05-11.95-7.53-19.76-19.49-20.04
	c-2.33-0.05-4.67,0.08-7-0.05c-2.68-0.15-3.61,1.02-3.55,3.63C517.59,253.15,517.51,258.55,517.5,263.95z"/>
<path class="st0" d="M396.24,253.29c7.91-8.55,15.46-16.98,23.36-25.07c1.71-1.75,4.57-3.03,7.03-3.27c4.91-0.48,9.91-0.2,14.86,0
	c1.3,0.05,2.56,0.94,3.84,1.44c-0.59,1.24-0.91,2.72-1.81,3.67c-8.1,8.59-16.22,17.15-24.52,25.55c-2.18,2.2-2.35,3.68-0.44,6.2
	c8.87,11.72,17.57,23.58,26.22,35.47c0.92,1.26,1.1,3.06,1.63,4.61c-1.48,0.35-2.95,0.95-4.44,0.99c-4.67,0.13-9.35-0.16-14,0.12
	c-3.05,0.19-4.86-1.08-6.5-3.38c-6.27-8.73-12.62-17.4-19.1-26.31c-4.05,3.02-6.9,5.87-6.22,11.26c0.58,4.6,0.06,9.32,0.11,13.99
	c0.03,3.01-1.01,4.59-4.37,4.41c-4.07-0.22-8.18-0.22-12.25,0c-3.32,0.18-4.46-1.36-4.43-4.38c0.03-3.06-0.01-6.13-0.01-9.19
	c0-19.41-0.01-38.82,0-58.22c0.01-5.93,0.34-6.29,6.06-6.37c3.5-0.05,7.01,0.25,10.5,0.09c3.56-0.17,4.55,1.6,4.52,4.77
	C396.19,237.38,396.24,245.11,396.24,253.29z"/>
<path class="st0" d="M331.87,347.34c0,8.98-0.12,17.12,0.06,25.26c0.08,3.57-1.12,5.01-4.79,4.89
	c-11.68-0.38-11.37,2.07-11.37-11.27c0-13.58-0.03-27.16,0.02-40.75c0.02-6.12,0.55-6.2,6.39-6.7c5.57-0.48,9.24,1.4,12.42,6
	c5.21,7.52,11.02,14.63,17.44,23.04c0-7.5,0-13.78,0-20.07c0-8.88,0-8.88,8.72-8.87c7.16,0.01,7.26,0.09,7.27,7.37
	c0.02,14.9,0.03,29.79,0,44.69c-0.01,6.28-0.29,6.2-6.28,6.6c-5.06,0.34-8.29-1.37-11.23-5.61
	C344.82,363.7,338.45,355.93,331.87,347.34z"/>
<path class="st0" d="M422.95,341.76c2.92,0,5.84,0.1,8.75-0.03c3.39-0.14,4.75,1.47,4.71,4.73c-0.06,6.27,0.09,12.55-0.11,18.82
	c-0.05,1.58-0.67,3.65-1.79,4.61c-13.44,11.54-35.56,11.62-46.9-1.93c-8.12-9.69-9.36-23.76-3.04-34.71
	c6.24-10.8,19.47-17.39,31.58-14.76c5.53,1.2,10.72,4.08,15.94,6.45c2.5,1.13,2.77,3.19,0.94,5.36c-0.56,0.67-1.07,1.38-1.64,2.05
	c-5.62,6.52-5.62,6.51-13.25,2.85c-6.39-3.07-13.15-1.75-17.41,3.4c-4.22,5.11-4.44,13.6-0.48,18.71c4.11,5.3,11.62,7.3,17.72,4.44
	c1.05-0.49,1.58-2.08,2.35-3.16c-1.05-0.71-2.05-1.96-3.16-2.06c-9.69-0.88-9.65-0.84-9.01-10.43c0.19-2.86,1.39-4.33,4.29-4.33
	c3.5,0,7,0,10.51,0C422.95,341.77,422.95,341.76,422.95,341.76z"/>
<path class="st0" d="M489.33,357.13c3.38,4.95,6.65,9.54,9.68,14.29c0.85,1.33,1.58,3.25,1.25,4.63c-0.18,0.75-2.69,1.29-4.16,1.34
	c-11.96,0.39-11.96,0.35-18.72-9.75c-1.3-1.93-2.34-4.15-4-5.69c-1.19-1.11-3.22-1.72-4.87-1.72c-0.62,0-1.66,2.31-1.77,3.64
	c-0.27,3.19-0.1,6.41-0.11,9.62c-0.01,2.7-1.33,3.97-4.06,3.95c-14.55-0.08-12.28,1.52-12.37-11.29c-0.1-14,0.09-28.01-0.09-42.01
	c-0.05-4.06,1.51-5.47,5.41-5.3c9.01,0.39,18.05,0.29,27.04,0.93c8.26,0.59,14.16,5.39,16.03,13.25c1.95,8.21,1,16.35-6.67,22.04
	C491.22,355.58,490.56,356.15,489.33,357.13z M473.32,345.37c2-0.26,4.25-0.04,5.92-0.92c1.5-0.79,3.26-2.78,3.27-4.25
	c0.01-1.73-1.47-4.7-2.77-4.98c-3.74-0.8-7.71-0.59-11.59-0.57c-0.48,0-1.22,1.13-1.4,1.85
	C465.1,343.13,466.67,345.16,473.32,345.37z"/>
<path class="st0" d="M235.4,348.1c0,8.17-0.12,16.35,0.06,24.52c0.08,3.63-1.32,4.92-4.88,4.86c-12.85-0.2-11.54,1.39-11.57-11.42
	c-0.03-10.56-0.01-10.56-10.5-10.56c-6.47,0-6.46,0-6.47,6.28c0,3.8-0.05,7.59,0,11.39c0.03,2.9-1.26,4.29-4.22,4.28
	c-14.48-0.09-12.14,1.48-12.24-11.43c-0.11-13.87,0.11-27.74-0.1-41.6c-0.06-4.24,1.43-5.65,5.59-5.59
	c11.95,0.19,10.98-0.84,10.98,10.81c0,10.51,0,10.51,10.67,10.49c6.28-0.01,6.28-0.01,6.29-6.1c0-3.5-0.09-7.01,0.04-10.51
	c0.16-4.57,0.73-4.7,10.93-4.66c3.38,0.01,5.61,0.53,5.5,4.73C235.25,331.74,235.4,339.92,235.4,348.1z"/>
<path class="st0" d="M300.83,339.92c0,6.27,0.81,12.68-0.16,18.79c-2.23,13.97-15.7,22.13-30.37,19.17
	c-13.58-2.74-19.91-10.73-20.37-26.33c-0.27-9.19,0-18.4-0.07-27.6c-0.03-3.72,1.56-5.2,5.31-5.12c11.82,0.24,11.28-1.49,11.3,10.92
	c0.02,8.17-0.13,16.36,0.31,24.52c0.33,6.1,3.97,8.82,9.93,8.39c4.82-0.35,7.88-3.21,7.98-8.09c0.19-9.93,0.1-19.86,0.16-29.79
	c0.03-5.23,0.66-5.89,5.76-5.9c12.46-0.04,10.37-0.69,10.53,10.52c0.05,3.5,0.01,7.01,0.01,10.51
	C301.03,339.92,300.93,339.92,300.83,339.92z"/>
<path class="st0" d="M479.7,264.08c0,11.08,0.02,22.16-0.01,33.24c-0.01,5.37-0.27,5.58-5.77,5.6c-3.35,0.01-6.73-0.25-10.05,0.07
	c-4.16,0.39-5.38-1.5-5.35-5.3c0.09-11.23,0.01-22.45,0.01-33.68c0-11.23,0.13-22.45-0.04-33.68c-0.06-4.19,1.56-5.79,5.66-5.55
	c3.48,0.2,6.99,0.11,10.49,0.01c3.64-0.1,5.19,1.31,5.13,5.17C479.58,241.34,479.7,252.71,479.7,264.08z"/>
<path class="st0" d="M532.97,338.43c3.27-5.36,6.36-10.08,9.08-15c1.83-3.3,4.1-5.04,8.01-4.61c2.45,0.27,4.96-0.03,7.44,0.08
	c4.1,0.19,4.97,1.72,2.77,5.24c-5.24,8.4-10.48,16.81-16.04,25.01c-2.33,3.44-3.42,6.87-3.18,10.99c0.25,4.36,0.29,8.77,0,13.13
	c-0.48,7.08-6.08,3.55-9.47,4.02c-2.82,0.39-7.62,1.3-6.72-3.96c2.65-15.52-4.57-27.48-13.03-39.19c-2.47-3.42-4.58-7.1-6.89-10.63
	c-1.8-2.75-0.52-4.31,2.17-4.5c4.06-0.29,8.2-0.38,12.23,0.11c1.49,0.18,3.11,2.01,4.06,3.48
	C526.62,327.59,529.56,332.74,532.97,338.43z"/>
</svg>
