<?xml version="1.0" encoding="utf-8"?>
<!-- Generator: Adobe Illustrator 25.2.1, SVG Export Plug-In . SVG Version: 6.00 Build 0)  -->
<svg version="1.1" id="Layer_1" xmlns="http://www.w3.org/2000/svg" xmlns:xlink="http://www.w3.org/1999/xlink" x="0px" y="0px"
	 viewBox="0 0 368 291" style="enable-background:new 0 0 368 291;" xml:space="preserve">
<style type="text/css">
	.st0{fill:#FFFFFF;}
</style>
<g transform="translate(0.000000,291.000000) scale(0.100000,-0.100000)">
	<path class="st0" d="M3553,2900c-23-5-51-14-63-20c-14-8-31-8-58,0c-20,5-56,10-79,10h-43v-120v-120h43h44l6-107c4-58,7-141,7-185
		v-78h-115h-115v48c0,27-3,110-7,185l-6,137h45h45l-5,118c-2,64-6,119-8,121s-39-4-81-13c-65-15-89-16-143-7c-36,6-68,11-72,11
		c-5,0-8-54-8-120v-120h43h44l6-122c9-160,9-248,0-248c-5,0-19-9-32-19l-24-19l31-16c37-19,41-39,44-234l3-132h-42h-43v-82
		c0-46,3-100,6-120c8-44,18-46,103-24c45,11,61,12,95,1c23-7,59-16,80-19l39-5l-7,91c-3,50-6,104-6,120c0,26-3,28-40,28
		c-24,0-42,5-45,13c-2,6-5,83-7,170l-3,157h113c81,0,114-3,116-12c3-7,7-84,10-170l6-158h-46h-47l6-67c4-38,7-92,7-120v-53l38,1
		c20,0,55,6,77,13c32,9,48,9,77-1c21-7,55-16,78-19l40-7v116c0,126-1,127-60,137l-35,5l-3,175l-3,175l28,23c23,19,25,24,13,32
		c-48,28-48,27-55,223l-7,187h41h41v125c0,94-3,125-12,124C3601,2908,3576,2904,3553,2900z"/>
	<path class="st0" d="M2710,2855c-30-8-83-10-157-7c-89,4-121,2-155-11s-51-15-78-7c-19,6-55,10-79,10h-44l6-142c4-79,7-182,7-230
		v-88h44c75,0,75,0,69,98c-5,79-3,90,17,115c17,21,30,27,59,27h38l7-182c6-146,5-183-6-189c-7-4-22-14-32-22c-19-14-19-15,11-30
		c37-19,43-53,43-228v-119h-42h-43l3-110l3-110h27c15,0,47,5,72,11c35,8,63,7,128-7c45-9,83-15,85-13c1,2,1,55-1,117l-3,112h-45h-44
		v68c0,37-3,111-7,164l-6,97l31,18c39,22,40,27,3,42c-27,12-29,17-35,88c-3,42-6,127-6,190v113h25c32,0,73-19,80-38c3-9,9-58,12-109
		l6-93h55h55l-6,158c-4,86-7,194-7,240C2800,2881,2800,2881,2710,2855z"/>
	<path class="st0" d="M1940,2815c-32-10-55-12-85-5c-22,5-58,10-79,10h-39l7-77c3-42,6-92,6-111v-35l41,6c26,3,42,1,44-6s6-85,9-174
		l5-163l-29-15c-38-19-38-29-1-45l29-12l7-122c6-103,5-128-9-154c-24-46-67-65-134-60c-88,8-97,24-105,194c-5,89-4,140,3,142
		c5,2,20,12,32,21l22,18l-30,16c-31,16-31,16-37,123c-4,59-7,136-7,171v63h40h40v108v109l-56-9c-31-5-65-13-76-19c-13-7-35-7-69,0
		c-28,6-66,11-86,11c-32,0-35-2-29-22c3-13,6-60,6-105v-83h44h43l6-82c4-46,7-122,7-170v-87l-32-17l-32-17l35-18l36-18l6-183
		c7-201,15-242,55-289c42-51,103-72,202-72c137,0,217,33,253,103c15,31,16,56,10,241l-6,207l33,17c36,19,35,20-17,51
		c-16,10-18,29-21,183l-4,171h41h41v73c0,39-3,89-6,110c-6,34-9,37-38,36C1999,2829,1965,2822,1940,2815z"/>
	<path class="st0" d="M840,2775c-72-21-123-55-143-98c-14-29-17-70-17-236v-201l-32-20l-32-19l35-15l36-15l6-163c4-90,11-179,17-199
		c17-60,52-102,105-129c44-22,63-25,155-25c113,1,159,15,207,67c38,40,43,72,43,269v189l30,18l30,19l-35,16c-33,16-35,19-36,69
		c-1,162-17,346-32,373c-17,34-61,77-96,95C1043,2790,903,2792,840,2775z M1030,2553c30-28,30-28,36-168l6-140l-32-19l-33-19l36-19
		l37-18v-129c0-108-3-132-17-150c-38-47-158-44-204,5c-22,24-24,35-27,153l-4,127l34,16l33,16l-37,18l-38,18v136c0,93,4,141,13,153
		c21,28,70,47,119,47C990,2580,1006,2574,1030,2553z"/>
	<path class="st0" d="M440,2738c-14-5-92-11-175-12c-130-1-154-4-184-21c-51-30-72-80-73-169c0-100,37-181,123-271
		c53-56,59-66,49-84c-10-20-8-21,30-21c36,0,46-6,101-61c116-116,119-199,10-229c-50-13-109,0-137,31c-13,14-21,41-24,83l-5,61
		l-57,3l-58,3v-88c0-48,3-132,7-187l6-98l56,7c75,9,75,9,166-5c137-21,222,6,265,83c18,32,23,55,22,114c-1,101-39,183-121,262
		c-56,54-59,59-43,74c15,16,13,17-28,17c-73,0-151,70-186,167c-24,70-17,106,27,128c91,47,159-16,159-146v-62l57,7c31,4,59,9,61,11
		c7,7-10,415-17,414C468,2749,454,2744,440,2738z"/>
	<path class="st0" d="M120,1452c0-16,3-63,6-105l7-77h42h42l7-92c3-50,6-122,6-159v-67l-37-13l-37-12l36-18c31-16,36-24,42-65
		c3-26,6-93,6-150V590h-45h-45V489V388l98,3c66,2,122-3,175-15c43-10,80-16,82-14c3,2,2,50-2,106l-6,102h-29c-66,0-68,5-68,169v148
		l138,5c111,4,146,8,184,26c62,27,88,69,88,140c0,53,0,54,40,69l41,16l-38,21c-37,21-38,24-45,88c-3,36-12,76-18,89
		c-52,102-195,145-397,120c-75-9-108-9-179,4c-48,8-88,15-90,15S120,1467,120,1452z M562,1250c47-13,75-49,84-107c9-63-9-119-46-138
		s-199-21-205-2c-2,6-5,67-7,135l-4,122h70C493,1260,542,1255,562,1250z"/>
	<path class="st0" d="M1133,1399c4-30,7-80,7-111v-58h45c29,0,45-4,45-12c0-7-17-81-37-165l-37-153l-38-12c-21-6-38-14-38-17
		c0-4,14-15,30-24c25-15,29-22,23-45c-3-15-20-83-37-152l-31-125l-43,3l-43,2l3-107l3-108l95-1c58,0,117-7,150-17c72-22,104-22,96-1
		c-3,9-6,58-6,110v94h-34c-19,0-37,4-40,8c-10,16,27,204,41,209c7,3,51,2,96-2l83-6l23-95c13-51,25-104,28-115c6-21,3-22-35-16
		l-42,5l1-86c1-48,4-98,8-112c7-24,9-25,94-22c63,1,107-4,159-18c40-11,76-20,80-20c5,0,8,52,8,115v115h-44c-25,0-47,4-50,8
		c-8,13-86,300-86,317c0,9,11,21,25,27c34,15,32,22-15,43c-22,10-42,25-44,34c-15,49-86,320-86,325c0,3,20,6,45,6h45v110v110h-58
		c-32,0-84-5-116-11c-41-7-67-7-88,0c-17,6-66,14-111,17l-80,7L1133,1399z M1405,924c20-64,34-118,31-121c-10-11-136,9-136,21
		c0,6,11,52,25,101c32,111,33,115,39,115C1367,1040,1385,988,1405,924z"/>
	<path class="st0" d="M1920,1377c0-30,3-81,6-114l7-61l48-6l49-7v-173V842l-30-12c-39-16-38-23,5-49l35-20V597V432l-45,6l-45,5V325
		V207l91,5c71,4,103,2,150-13c34-11,74-19,90-19h29v78c0,42-3,94-6,115c-6,33-10,37-38,37c-58,0-59,3-64,186l-5,167l74-7
		c41-4,92-15,114-26c68-33,74-54,84-267c6-156,11-196,29-235c26-60,73-85,178-96l77-8l-6,114c-7,125-10,132-64,132c-18,0-33,1-34,3
		c0,1-4,67-8,147c-9,158-24,207-77,249l-27,21l26,24c35,33,55,74,63,135c6,47,10,54,42,70l36,18l-40,23c-39,22-39,23-40,85
		c-1,89-39,166-100,201c-79,47-159,67-264,66c-52,0-108-5-125-10c-20-5-44-4-70,3c-22,7-64,16-92,20l-53,7V1377z M2365,1161
		c36-12,56-26,73-51c21-31,23-44,20-123c-3-83-5-90-31-113c-27-23-35-25-130-22l-102,3l-6,160c-3,88-3,163-2,167
		C2193,1193,2308,1180,2365,1161z"/>
	<path class="st0" d="M2849,1386c-2-2-3-56-1-120l3-116h45c27,0,46-5,48-12c3-7,7-95,10-194l5-182l-40-17l-39-18l38-23l39-23l6-122
		c4-67,7-144,7-172v-49l-52,7l-51,7l6-92c4-51,7-106,7-121c0-35,36-45,113-30c48,9,63,7,123-14c118-42,114-45,114,95v119l-49,7
		l-49,6l-7,202c-4,111-6,209-4,219c4,15,289-420,289-442c0-4-21-6-47-3l-46,5l7-118c4-65,10-123,13-128c3-6,38-7,85-4
		c63,5,92,3,137-12c31-10,70-21,86-24l30-6l-5,127l-5,127l-27,3c-23,3-47,36-174,240c-81,130-154,247-161,258c-13,20-4,32,134,180
		c133,143,151,159,180,159c38,0,38,0,27,163c-7,91-7,92-34,92c-15,0-52-5-83-11c-47-10-67-9-115,5c-32,9-73,16-92,16h-33l6-67
		c4-38,7-94,7-125v-58h53h52l-45-43c-25-23-88-82-140-131l-95-88l-8,38c-4,21-6,84-5,138l3,100l47-3l48-3l-6,124c-4,68-9,125-11,127
		c-2,3-41-1-87-7c-70-10-94-10-147,3C2895,1390,2857,1394,2849,1386z"/>
</g>
</svg>
