<?xml version="1.0" encoding="utf-8"?>
<!-- Generator: Adobe Illustrator 25.2.1, SVG Export Plug-In . SVG Version: 6.00 Build 0)  -->
<svg version="1.1" id="Layer_1" xmlns="http://www.w3.org/2000/svg" xmlns:xlink="http://www.w3.org/1999/xlink" x="0px" y="0px"
	 viewBox="0 0 800 800" style="enable-background:new 0 0 800 800;" xml:space="preserve">
<style type="text/css">
	.st0{fill:#FFFFFF;}
	.st1{fill:#FFFFFF;stroke:#FFFFFF;stroke-width:0.3605;stroke-miterlimit:2.8842;}
</style>
<path class="st0" d="M534.5,75.3v-0.1H572l13.7,2.7c9.1,1.8,17.4,4.1,24.9,7c7.5,2.9,14.7,6.2,21.6,10.1c7,3.8,13.3,7.8,19,11.8
	c5.6,3.9,10.7,8.1,15.1,12.5c4.4,4.5,11.3,5.6,20.7,3.5c9.4-2.2,19.5-5.2,30.3-9s21.5-8.2,32.1-13c10.6-4.8,17-7.9,19.3-9.2
	c2.3-1.3,3.5-2.1,3.6-2.2l0.1-0.2l0.7-0.4l0.7-0.4l0.7-0.4l0.7-0.4l0.1-0.2l0.2-0.1l0.2-0.1l0.1-0.2l0.7-0.2l0.7-0.1l-0.1,1.1
	l-0.2,1.1l-0.4,1.1l-0.4,1.1l-0.4,0.7l-0.4,0.7l-0.4,1.1c-0.2,0.7-0.5,1.7-0.7,2.9c-0.2,1.2-2.5,6-6.8,14.4
	c-4.3,8.4-9.7,16.9-16.2,25.6c-6.5,8.7-12.3,15.2-17.4,19.6c-5.2,4.5-8.6,7.6-10.3,9.4c-1.7,1.8-3.7,3.5-6.1,5l-3.6,2.4l-0.7,0.4
	l-0.7,0.4l-0.1,0.2l-0.2,0.1l-0.2,0.1l-0.1,0.2l-0.7,0.4l-0.7,0.4l-0.1,0.2l-0.2,0.1l-0.2,0.1l-0.1,0.2l-0.1,0.2l-0.2,0.1l-0.2,0.1
	l-0.1,0.2h3.6l20.2-4.3c13.5-2.9,26.3-6.4,38.6-10.5l19.5-6.5l2.2-0.7l1.1-0.4l0.7-0.4l0.7-0.4l0.7-0.4l0.7-0.4l1.4-0.2l1.4-0.1v1.4
	l-0.4,0.1l-0.4,0.2l-0.1,0.2l-0.2,0.1l-0.2,0.1l-0.1,0.2l-0.1,0.2l-0.2,0.1l-0.2,0.1l-0.1,0.2l-0.1,0.2l-0.2,0.1l-0.4,0.7l-0.4,0.7
	l-0.2,0.1c-0.1,0.1-3.1,4.2-9.2,12.3c-6,8.1-9.3,12.2-9.7,12.3c-0.5,0.1-1.2,0.9-2,2.2c-0.8,1.3-5.9,6.7-15.3,16.1
	s-18.6,17.7-27.5,25c-9,7.4-13.6,16.4-13.7,27.1c-0.1,10.7-0.7,22.7-1.7,36.2c-1,13.5-2.8,28-5.4,43.6c-2.6,15.6-6.7,33.3-12.3,53
	c-5.5,19.7-12.3,38.9-20.2,57.7c-7.9,18.7-16.2,35.6-24.9,50.5c-8.7,14.9-16.6,27.5-23.8,37.9c-7.2,10.3-14.5,20.1-22,29.2
	c-7.5,9.1-16.9,19.4-28.3,30.9c-11.4,11.4-17.7,17.6-18.7,18.7c-1.1,1.1-5.8,5-14.1,11.8c-8.3,6.9-17.2,13.7-26.7,20.6
	c-9.5,6.8-18.2,12.5-26.1,17.1c-7.9,4.6-17.5,9.8-28.7,15.6c-11.2,5.9-23.2,11.4-36.2,16.4s-26.7,9.7-41.1,14.1
	c-14.4,4.3-28.4,7.7-41.8,10.1c-13.5,2.4-28.7,4.4-45.8,6.1l-25.6,2.5v0.4h-46.9v-0.4l-6.1-0.4c-4.1-0.2-7.5-0.5-10.1-0.7
	c-2.6-0.2-12.6-1.6-29.9-4s-30.9-4.8-40.7-7.2c-9.9-2.4-24.5-7-44-13.7c-19.5-6.7-36.1-13.5-50-20.4c-13.8-6.8-22.4-11.2-26-13
	c-3.5-1.8-7.4-4-11.7-6.6l-6.5-4l-0.1-0.2l-0.2-0.1L3.2,654l-0.1-0.2l-0.7-0.4l-0.7-0.4l-0.1-0.2l-0.2-0.1L1,652.6l-0.1-0.2
	l-0.1-0.2L0.5,652H0.2v-1.4l0.7,0.1l0.7,0.2l3.2,0.4c2.2,0.2,8.1,0.6,17.7,1.1c9.6,0.5,19.8,0.5,30.6,0s21.9-1.6,33.2-3.2
	c11.3-1.7,24.6-4.6,40-8.7c15.4-4.1,29.5-8.9,42.4-14.6c12.8-5.7,22-9.9,27.4-12.7c5.4-2.7,13.6-7.8,24.7-15.3l16.6-11.2l0.1-0.2
	l0.2-0.1l0.2-0.1l0.1-0.2l0.1-0.2l0.2-0.1l0.2-0.1l0.1-0.2l0.7-0.2l0.7-0.1l0.1-0.7l0.2-0.7l0.2-0.1l0.1-0.2l-5.8-0.4
	c-3.8-0.2-7.6-0.5-11.2-0.7c-3.6-0.2-9.3-1.3-16.9-3.2c-7.7-1.9-16-4.8-24.9-8.7c-8.9-3.8-17.5-8.4-26-13.7
	c-8.4-5.3-14.5-9.7-18.2-13.2c-3.7-3.5-8.5-8.4-14.4-14.7c-5.9-6.4-11-13-15.3-19.7c-4.3-6.7-8.5-14.5-12.4-23.3l-6-13.1l-0.4-1.1
	l-0.4-1.1l-0.2-0.7l-0.1-0.7L90,469l1.1,0.2l7.9,1.1c5.3,0.7,13.6,1,24.9,0.7c11.3-0.2,19.1-0.7,23.4-1.4c4.3-0.7,7-1.2,7.9-1.4
	l1.4-0.4l1.8-0.4l1.8-0.4l0.1-0.2l0.2-0.1l0.2-0.1l0.1-0.2l-1.4-0.4l-1.4-0.4l-1.4-0.4l-1.4-0.4l-1.4-0.4c-1-0.2-2.6-0.7-5-1.4
	c-2.4-0.7-8.9-3.4-19.5-7.9c-10.6-4.6-19-9-25.2-13.3c-6.3-4.3-12.2-9.1-17.9-14.2c-5.6-5.2-11.8-11.9-18.5-20
	c-6.7-8.2-12.7-17.7-18-28.5c-5.3-10.8-9.3-21.2-11.9-31c-2.6-9.8-4.4-19.8-5.2-29.9L31.2,303l0.7,0.1l0.7,0.2l0.7,0.4l0.7,0.4
	l0.7,0.4l0.7,0.4l11.2,5c7.5,3.4,16.7,6.2,27.8,8.7c11.1,2.4,17.7,3.7,19.8,4l3.2,0.4h6.5l-0.1-0.2l-0.2-0.1l-0.2-0.1l-0.1-0.2
	l-0.1-0.2l-0.2-0.1l-0.2-0.1l-0.1-0.2l-0.7-0.4l-0.7-0.4l-0.1-0.2l-0.2-0.1l-0.2-0.1l-0.1-0.2l-0.7-0.4l-0.7-0.4l-0.1-0.2
	c-0.1-0.1-2.2-1.6-6.2-4.6c-3.9-3-8.1-6.9-12.4-11.8c-4.3-4.8-8.7-9.9-13-15.1c-4.3-5.3-8.2-11-11.5-16.9c-3.4-6-6.9-13.7-10.7-22.9
	c-3.7-9.2-6.5-18.5-8.4-27.9c-1.9-9.4-3-18.6-3.2-27.8c-0.2-9.1,0-16.9,0.7-23.4c0.7-6.5,2.2-13.8,4.3-22c2.2-8.2,5.3-16.8,9.4-26
	l6.1-13.7l0.4-1.1l0.4-1.1l0.2-0.1l0.1-0.2l0.1-0.2l0.2-0.1l0.2,0.1l0.1,0.2l0.1,0.2l0.2,0.1l0.2,0.1l0.1,0.2l0.1,0.2l0.2,0.1
	l0.4,0.7l0.4,0.7l0.2,0.1l0.1,0.2l9.7,10.8c6.5,7.2,14.2,15.3,23.1,24.2c8.9,8.9,13.8,13.5,14.8,13.8c1,0.4,2.2,1.5,3.6,3.3
	c1.4,1.8,6.2,6,14.4,12.8c8.2,6.7,18.9,14.5,32.1,23.4c13.2,8.9,27.9,17.7,44,26.3c16.1,8.7,33.4,16.5,51.9,23.4
	c18.5,7,31.5,11.5,38.9,13.7c7.5,2.2,20.2,4.9,38.2,8.3c18,3.4,31.6,5.5,40.7,6.5c9.1,1,15.4,1.5,18.7,1.7l5,0.1l-0.1-1.1l-0.2-1.1
	l-1.4-9c-1-6-1.4-14.4-1.4-25.2c0-10.8,0.8-20.8,2.5-29.9c1.7-9.1,4.2-18.4,7.6-27.8c3.4-9.4,6.7-16.9,9.9-22.6
	c3.3-5.6,7.5-12,12.8-19.3c5.3-7.2,12.1-14.7,20.5-22.4c8.4-7.7,18-14.5,28.8-20.5c10.8-6,20.8-10.6,29.9-13.7
	c9.1-3.1,16.8-5.2,23.1-6.1C531.4,76,534.5,75.5,534.5,75.3z"/>
</svg>
