<?xml version="1.0" encoding="utf-8"?>
<!-- Generator: Adobe Illustrator 25.2.1, SVG Export Plug-In . SVG Version: 6.00 Build 0)  -->
<svg version="1.1" id="Layer_1" xmlns="http://www.w3.org/2000/svg" xmlns:xlink="http://www.w3.org/1999/xlink" x="0px" y="0px"
	 viewBox="0 0 658.2 658.2" style="enable-background:new 0 0 658.2 658.2;" xml:space="preserve">
<style type="text/css">
	.st0{fill:#FFFFFF;}
</style>
<g>
	<polygon class="st0" points="643.7,256.1 607.8,332.9 594.3,303.8 579.7,303.8 601.9,351.4 613.7,351.4 658.2,256.1 	"/>
	<path class="st0" d="M489.7,398.7h28.9v-52.9c0-12.1,7-20.6,17.4-20.6c10,0,15.2,7,15.2,17.1v56.4h28.9v-61.9
		c0-21-12.6-35.8-33-35.8c-13,0-22.1,5.6-28.9,15.8h-0.6v-13h-28L489.7,398.7L489.7,398.7z M432.9,301.2
		c-30.2,0-50.4,21.7-50.4,50.3c0,28.4,20.2,50.3,50.4,50.3s50.4-21.9,50.4-50.3C483.4,322.9,463.1,301.2,432.9,301.2z M432.7,380.4
		c-13.7,0-21-11.5-21-28.9c0-17.6,7.2-28.9,21-28.9c13.7,0,21.3,11.3,21.3,28.9C454.1,368.9,446.5,380.4,432.7,380.4z M300.1,398.7
		h81.2v-22.8h-46v-0.6l44-49.3v-22.3h-79.2v22.9h44.5v0.6l-44.5,49.7L300.1,398.7L300.1,398.7z M263,398.7h29.1v-94.9H263V398.7z
		 M195.5,398.7h29v-43.6c0-19.8,11.9-28.6,30-26.1h0.6v-25c-1.5-0.6-3.2-0.7-5.9-0.7c-11.3,0-18.9,5.2-25.4,16.3h-0.6v-15.8h-27.7
		L195.5,398.7L195.5,398.7z M142.3,380.5c-12.8,0-20.6-8.3-22.1-21.1h68.4c0.2-20.4-5.2-36.7-16.5-46.9c-8-7.4-18.5-11.5-31.9-11.5
		c-28.6,0-48.4,21.7-48.4,50.1c0,28.6,18.9,50.4,50.3,50.4c11.9,0,21.3-3.2,29.1-8.5c8.3-5.7,14.3-14.1,15.9-22.4h-27.8
		C156.6,376.8,150.8,380.5,142.3,380.5z M140.8,321.7c10.2,0,17.2,7.6,18.4,18.7h-38.8C122.7,329.2,128.8,321.7,140.8,321.7z
		 M34,398.7h30.4l33-94.9H68.3l-18.5,61h-0.4l-18.5-61H1L34,398.7z M263,270h29.1v25.8H263V270z"/>
</g>
</svg>
