<?xml version="1.0" encoding="utf-8"?>
<!-- Generator: Adobe Illustrator 25.2.1, SVG Export Plug-In . SVG Version: 6.00 Build 0)  -->
<svg version="1.1" id="Layer_1" xmlns="http://www.w3.org/2000/svg" xmlns:xlink="http://www.w3.org/1999/xlink" x="0px" y="0px"
	 viewBox="0 0 800 800" style="enable-background:new 0 0 800 800;" xml:space="preserve">
<style type="text/css">
	.st0{fill:#FFFFFF;}
</style>
<path class="st0" d="M133.2,488l-52.3-1c-16.9-0.3-33.9,0.3-50.5-3.1C5,478.8,3.2,453.5,1.4,432.2c-2.6-29.9-1.6-60.3,3.3-89.9
	c2.7-16.6,13.6-26.5,30.3-27.6c56.5-3.9,113.4-3.5,169.8-1.6c6,0.2,12,1.1,17.8,2.1c29,5.1,29.7,33.8,31.6,57.9
	c1.9,24.4,1.1,48.9-2.5,73.2c-2.9,20.1-8.4,36.9-31.6,38.5c-29.1,2.1-57.5,3.8-86.6,3.3C133.5,488,133.3,488,133.2,488z
	 M102.4,437.2c21.9-12.6,43.4-24.9,65.2-37.4c-21.9-12.6-43.4-24.9-65.2-37.4V437.2z"/>
<g>
	<path class="st0" d="M675.3,465.2c-1,4.1-1.9,7.3-2.7,10.7h-20.5v-158H676v58.3c1.2-1.6,1.9-2.2,2.4-3c4.1-5.6,9.4-9.3,16.2-10.7
		c10.9-2.1,20.2,2.7,23.4,13.1c2.1,6.5,3.5,13.4,3.7,20.2c0.3,17.4,0.1,34.9-0.5,52.3c-0.2,5.3-1.9,10.8-3.9,15.8
		c-6.7,16.5-28.6,19-39.5,4.7C677.1,467.8,676.5,466.9,675.3,465.2L675.3,465.2z M676.5,421.8v28.9c0,4.7,2.5,7.6,7.2,8.7
		c4.6,1.1,8.4-0.7,10.2-5c0.8-1.8,1.6-3.7,1.6-5.5c0.5-17.7,0.9-35.3,1-53c0-3.3-0.8-6.7-1.8-9.9c-1.9-5.8-7-7.5-12.1-4.1
		c-3.8,2.6-6.2,6.2-6.2,11.1V421.8z M611.5,364.8h25V476H617c-0.7-4.2-1.4-8.5-2.2-13.6c-1.3,2-2.1,3.2-3,4.5
		c-6.5,9.4-15.7,12.6-26.6,10.9c-9.3-1.5-14.9-8.7-16.1-20.4c-0.4-3.5-0.5-7-0.5-10.5c-0.1-26,0-52.1,0-78.2v-3.9h25.3v4.5
		c0,25.1-0.1,50.3,0.1,75.4c0,3.6,0.4,7.3,1,10.9c0.7,3.7,3.4,5,7,4.7c5.8-0.5,9.8-4.7,9.8-10.5v-80.1
		C611.5,368.1,611.5,366.6,611.5,364.8L611.5,364.8z M439.2,364.7h25.1v4.7c0,25-0.1,50,0.1,74.9c0,3.6,0.3,7.3,1.1,10.8
		c1,4.1,3.4,5.5,7.5,4.9c5.7-0.8,9.2-4.7,9.2-10.5v-79.7v-5h25V476h-19.4c-0.7-4.1-1.4-8.4-2.3-13.7c-1.2,1.9-2,3-2.7,4.1
		c-6.5,9.5-15.6,13-26.7,11.3c-8.9-1.3-14.4-7.9-16-18.7c-0.5-3.4-0.8-6.7-0.8-10.1c-0.1-27-0.1-54.2-0.1-81.2L439.2,364.7z
		 M426.3,424.1c-0.1,3.7-0.3,7.5-0.5,11.2c-1,11.2-1.4,27.2-10.5,35.4c-5.8,5.2-13.1,7-20.7,7.3c-3.4,0.1-6.8,0.1-10.2-0.4
		c-15.9-2.4-23.4-9.5-26-27c-3-20.2-3.3-40.8,0.3-61c3.7-20.9,16.7-28.4,36.7-27c18.7,1.3,27.1,13.6,29.3,31.1
		C426,403.8,426.5,413.9,426.3,424.1L426.3,424.1z M400.8,420.3c0-7.1,0.2-14.3-0.1-21.4c-0.2-4.1-0.7-8.3-1.6-12.4
		c-1-4.7-4-7-7.7-6.9c-3.7,0.1-6.2,2.3-7.6,6.7c-0.5,1.6-1,3.3-1,4.9c0,11.2-0.1,22.4-0.2,33.5c-0.1,10.4-1.4,21.3,1.9,31.3
		c1,3,3.6,4.7,7,4.7c3.3,0,5.5-1.6,6.7-4.5c1-2.2,1.8-4.7,1.8-7.1C400.3,439.5,400.8,429.9,400.8,420.3z M321.7,399.3
		c2.2-10.8,4.3-21.3,6.6-31.9c2.9-13.4,6.1-26.9,8.9-40.4c0.7-3.3,2-4.1,5.2-4c6.7,0.2,13.5,0.1,20.7,0.1
		c-2.3,8.6-4.6,16.7-6.9,24.8c-7.1,25.2-14.2,50.5-21.3,75.9c-0.5,2-0.8,4.1-0.8,6.2c-0.1,13.8,0,27.6,0,41.4v4.5h-24.4
		c-0.1-1.2-0.2-2.5-0.2-3.7c0-7.8-0.6-15.7,0.1-23.4c1.8-18.6-4.1-35.7-8.9-53c-6.3-22.9-12.7-45.9-19.1-68.8
		c-0.3-1.1-0.5-2.2-0.8-3.6h24.9C310.9,348.5,316.2,373.8,321.7,399.3L321.7,399.3z M799.9,428.3h-42.1c0.5,8.5,0.6,16.5,1.5,24.4
		c0.6,5.5,3.7,7.9,8.5,8c5,0.1,7.9-2.4,9.1-7.9c0.4-1.8,0.6-3.6,0.8-5.4c0.2-1.6,0.2-3.4,0.4-5.7c7.1,0.4,14.1,0.8,20.9,1.1
		c4,11.9-3.2,27.1-15.3,31.8c-9.5,3.7-19.3,3.7-29.1,0.9c-7.2-2.1-12.6-6.7-15-13.7c-2.2-6.6-4.4-13.4-4.8-20.3
		c-1.2-16.9-1.7-34.1,0.9-51c0.5-2.8,1.2-5.5,2.1-8.3c3.5-11.3,11.1-18.3,22.9-19.4c6.4-0.6,13-0.4,19.4,0.7
		c10.2,1.8,15.7,9.2,18.1,18.8c1.1,4.5,1.9,9.2,2,13.8C800.1,406.6,799.9,417.1,799.9,428.3L799.9,428.3z M775.9,413.7
		c0-8.4,0.1-16.2-0.1-24.2c0-1.9-0.7-3.8-1.4-5.6c-1.4-3.5-4.4-4.5-7.9-4.5c-3.5,0-5.8,1.8-6.7,5c-2.7,9.6-1.8,19.4-1.7,29.3
		C764.5,413.7,770.3,413.7,775.9,413.7z"/>
	<path class="st0" d="M526.6,343.5h-24.8v-20.1h73.9v19.9h-24.6v132.5h-24.5L526.6,343.5z"/>
</g>
</svg>
